<svg width="121" height="36" viewBox="0 0 121 36" fill="none" xmlns="http://www.w3.org/2000/svg">
<path fill-rule="evenodd" clip-rule="evenodd" d="M16.5189 2.76421L21.0841 0.128475C21.6036 -0.171472 22.0248 0.0716831 22.0248 0.671577C22.0248 1.27147 21.6036 2.00094 21.0841 2.30088L16.5189 4.93662C15.9993 5.23657 15.5782 4.99341 15.5782 4.39352C15.5782 3.79363 15.9993 3.06416 16.5189 2.76421ZM16.5189 7.40533L21.0841 4.76959C21.6036 4.46964 22.0248 4.7128 22.0248 5.31269C22.0248 5.91258 21.6036 6.64205 21.0841 6.942L16.5189 9.57773C15.9993 9.87768 15.5782 9.63453 15.5782 9.03463C15.5782 8.43474 15.9993 7.70528 16.5189 7.40533ZM30.8804 29.6787V24.4072C30.8804 23.8073 30.4593 23.0778 29.9397 22.7779C29.4202 22.4779 28.9991 22.7211 28.9991 23.321V28.5925C28.9991 29.1924 29.4202 29.9218 29.9397 30.2218C30.4593 30.5217 30.8804 30.2786 30.8804 29.6787ZM26.8609 22.0864V27.3579C26.8609 27.9578 26.4397 28.2009 25.9202 27.901C25.4007 27.601 24.9795 26.8716 24.9795 26.2717V21.0002C24.9795 20.4003 25.4007 20.1571 25.9202 20.4571C26.4397 20.757 26.8609 21.4865 26.8609 22.0864ZM26.4357 8.51643L18.4006 13.1555C18.335 13.1934 18.2643 13.2265 18.1897 13.2548L16.5189 14.2194C15.9993 14.5194 15.5782 14.2762 15.5782 13.6763C15.5782 13.0765 15.9993 12.347 16.5189 12.047L21.0841 9.4113C21.1497 9.37344 21.2137 9.34424 21.2755 9.32331L24.5544 7.43023C25.0739 7.13028 25.9162 7.13028 26.4357 7.43023C26.9553 7.73017 26.9553 8.21648 26.4357 8.51643ZM29.9422 9.45003L34.5074 12.0858C35.027 12.3857 35.027 12.872 34.5074 13.172C33.9879 13.4719 33.1456 13.4719 32.6261 13.172L28.0608 10.5362C27.5413 10.2363 27.5413 9.74997 28.0608 9.45003C28.5804 9.15008 29.4227 9.15008 29.9422 9.45003ZM30.4879 14.4066L25.9227 11.7708C25.4031 11.4709 24.5608 11.4709 24.0413 11.7708C23.5218 12.0708 23.5218 12.5571 24.0413 12.857L28.6065 15.4928C29.1261 15.7927 29.9684 15.7927 30.4879 15.4928C31.0074 15.1928 31.0074 14.7065 30.4879 14.4066ZM26.4686 16.7271L21.9034 14.0914C21.3839 13.7914 20.5415 13.7914 20.022 14.0914C19.5025 14.3913 19.5025 14.8776 20.022 15.1776L21.8482 16.2319C21.8655 16.243 21.883 16.2536 21.9006 16.2638L29.9357 20.9029C30.4553 21.2029 30.8764 20.9597 30.8764 20.3598C30.8764 19.7599 30.4553 19.0304 29.9357 18.7305L26.5196 16.7582C26.5032 16.7476 26.4862 16.7373 26.4686 16.7271ZM22.841 19.7658L22.841 25.0373C22.841 25.1134 22.8342 25.1837 22.8214 25.248V29.0332C22.8214 29.6331 22.4002 30.3626 21.8807 30.6625C21.3611 30.9625 20.94 30.7193 20.94 30.1194V20.8412C20.94 20.7651 20.9468 20.6869 20.9597 20.6078V18.6796C20.9597 18.0797 21.3808 17.8365 21.9003 18.1365C22.4199 18.4364 22.841 19.1659 22.841 19.7658ZM18.3777 32.6898L13.8125 35.3255C13.293 35.6255 12.8718 35.3823 12.8718 34.7824C12.8718 34.1825 13.293 33.4531 13.8125 33.1531L18.3777 30.5174C18.8973 30.2174 19.3184 30.4606 19.3184 31.0605C19.3184 31.6604 18.8973 32.3898 18.3777 32.6898ZM13.8125 30.6839L18.3777 28.0482C18.8973 27.7482 19.3184 27.0188 19.3184 26.4189C19.3184 25.819 18.8973 25.5758 18.3777 25.8758L13.8125 28.5115C13.293 28.8115 12.8718 29.5409 12.8718 30.1408C12.8718 30.7407 13.293 30.9839 13.8125 30.6839ZM19.3184 21.7772C19.3184 22.2858 19.0157 22.8875 18.607 23.2417C18.5473 23.3051 18.471 23.3648 18.378 23.4185L10.3428 28.0576C9.82331 28.3575 8.98099 28.3575 8.46147 28.0576C7.94195 27.7576 7.94195 27.2713 8.46147 26.9714L13.6716 23.9633C13.7176 23.9288 13.7646 23.8975 13.8125 23.8699L18.3777 21.2341C18.8973 20.9342 19.3184 21.1773 19.3184 21.7772ZM0.389642 23.4019L4.95488 26.0377C5.4744 26.3376 6.31671 26.3376 6.83624 26.0377C7.35576 25.7377 7.35576 25.2514 6.83624 24.9514L2.271 22.3157C1.75148 22.0158 0.909165 22.0158 0.389642 22.3157C-0.129881 22.6157 -0.129881 23.102 0.389642 23.4019ZM8.97441 23.7169L4.40917 21.0811C3.88965 20.7812 3.88965 20.2949 4.40917 19.9949C4.9287 19.695 5.77101 19.695 6.29053 19.9949L10.8558 22.6306C11.3753 22.9306 11.3753 23.4169 10.8558 23.7169C10.3362 24.0168 9.49393 24.0168 8.97441 23.7169ZM4.98077 14.5847L13.0159 19.2238C13.0653 19.2523 13.1138 19.2847 13.1612 19.3206L14.8751 20.3101C15.3946 20.61 15.3946 21.0963 14.8751 21.3963C14.3555 21.6962 13.5132 21.6962 12.9937 21.3963L8.42847 18.7605C8.37907 18.732 8.33436 18.7018 8.29436 18.6702L4.98077 16.7571C4.46125 16.4572 4.04009 15.7277 4.04009 15.1278C4.04009 14.5279 4.46125 14.2848 4.98077 14.5847ZM4.03618 11.0805L4.03618 5.80901C4.03618 5.20911 4.45734 4.96596 4.97686 5.26591C5.49639 5.56585 5.91754 6.29532 5.91754 6.89521V12.1667C5.91754 12.7666 5.49639 13.0097 4.97686 12.7098C4.45734 12.4098 4.03618 11.6804 4.03618 11.0805ZM8.05571 8.12981V13.4013C8.05571 14.0012 8.47687 14.7306 8.99639 15.0306C9.51592 15.3305 9.93707 15.0874 9.93707 14.4875V9.21601C9.93707 8.61612 9.51592 7.88665 8.99639 7.58671C8.47687 7.28676 8.05571 7.52992 8.05571 8.12981ZM13.9566 5.33436V11.5078L12.0752 15.6988V6.42056C12.0752 5.82067 12.4964 5.09121 13.0159 4.79126C13.5354 4.49131 13.9566 4.73447 13.9566 5.33436ZM13.9566 11.5078L12.0756 15.7281C12.0783 16.3269 12.4984 17.0525 13.0163 17.3515C13.5358 17.6514 13.9569 17.4083 13.9569 16.8084V11.5369C13.9569 11.5273 13.9568 11.5176 13.9566 11.5078Z" fill="#111A39" fill-opacity="0.44"/>
<path d="M48.8315 22.7266V10.5716H57.7735V12.6456H51.2965V15.3656H56.9745V17.3886H51.2965V20.6696H57.8245V22.7266H48.8315ZM61.3902 22.7266L58.3642 14.0056H60.7102L62.1042 18.5276C62.3592 19.3606 62.4952 19.9216 62.4952 19.9216H62.5292C62.5292 19.9216 62.6482 19.3606 62.9032 18.5276L64.3312 14.0056H66.6432L63.6002 22.7266H61.3902ZM71.6168 22.9816C68.7268 22.9816 67.0948 20.9586 67.0948 18.3576C67.0948 15.7736 68.8458 13.7676 71.3958 13.7676C74.2008 13.7676 75.6968 15.9096 75.6968 19.0206H69.3728C69.5428 20.3636 70.2908 21.1966 71.5998 21.1966C72.5008 21.1966 73.0278 20.7886 73.2828 20.1256H75.5608C75.2378 21.6726 73.8608 22.9816 71.6168 22.9816ZM71.4298 15.5526C70.2058 15.5526 69.6108 16.2836 69.4068 17.4226H73.2828C73.2148 16.3176 72.4838 15.5526 71.4298 15.5526ZM79.3339 14.0056V15.3996H79.3849C79.9119 14.4136 80.5069 13.9036 81.5269 13.9036C81.7819 13.9036 81.9349 13.9206 82.0709 13.9716V15.9946H82.0199C80.5069 15.8416 79.4189 16.6406 79.4189 18.4766V22.7266H77.1069V14.0056H79.3339ZM87.2038 22.9816C84.4498 22.9816 82.7328 20.9756 82.7328 18.3746C82.7328 15.7736 84.4328 13.7676 87.0848 13.7676C89.3458 13.7676 90.7398 15.0766 91.0458 16.9636H88.7848C88.6318 16.1986 88.0368 15.6206 87.1868 15.6206C85.7928 15.6206 85.0788 16.6916 85.0788 18.3746C85.0788 20.0236 85.7418 21.1286 87.1528 21.1286C88.0878 21.1286 88.7508 20.6356 88.9038 19.6496H91.1308C90.9778 21.5026 89.5328 22.9816 87.2038 22.9816ZM92.5133 22.7266V10.5716H94.8253V22.7266H92.5133ZM100.784 22.9816C97.8944 22.9816 96.2624 20.9586 96.2624 18.3576C96.2624 15.7736 98.0134 13.7676 100.563 13.7676C103.368 13.7676 104.864 15.9096 104.864 19.0206H98.5404C98.7104 20.3636 99.4584 21.1966 100.767 21.1966C101.668 21.1966 102.195 20.7886 102.45 20.1256H104.728C104.405 21.6726 103.028 22.9816 100.784 22.9816ZM100.597 15.5526C99.3734 15.5526 98.7784 16.2836 98.5744 17.4226H102.45C102.382 16.3176 101.651 15.5526 100.597 15.5526ZM111.765 22.7266C111.629 22.5566 111.544 22.1486 111.493 21.7576H111.459C111.017 22.4206 110.388 22.9306 108.892 22.9306C107.107 22.9306 105.849 21.9956 105.849 20.2616C105.849 18.3406 107.413 17.7286 109.351 17.4566C110.796 17.2526 111.459 17.1336 111.459 16.4706C111.459 15.8416 110.966 15.4336 109.997 15.4336C108.909 15.4336 108.382 15.8246 108.314 16.6576H106.257C106.325 15.1276 107.464 13.7846 110.014 13.7846C112.632 13.7846 113.686 14.9576 113.686 16.9976V21.4346C113.686 22.0976 113.788 22.4886 113.992 22.6416V22.7266H111.765ZM109.453 21.3156C110.779 21.3156 111.51 20.4996 111.51 19.6496V18.3406C111.102 18.5786 110.473 18.7146 109.895 18.8506C108.688 19.1226 108.093 19.3946 108.093 20.2106C108.093 21.0266 108.637 21.3156 109.453 21.3156ZM117.723 14.0056V15.3996H117.774C118.301 14.4136 118.896 13.9036 119.916 13.9036C120.171 13.9036 120.324 13.9206 120.46 13.9716V15.9946H120.409C118.896 15.8416 117.808 16.6406 117.808 18.4766V22.7266H115.496V14.0056H117.723Z" fill="#111A39" fill-opacity="0.44"/>
</svg>
