<svg width="118" height="25" viewBox="0 0 118 25" fill="none" xmlns="http://www.w3.org/2000/svg">
<path fill-rule="evenodd" clip-rule="evenodd" d="M4.26107 24.0476V14.9955H0V11.3089H4.26107V9.99928H0V6.39535H4.26107V0.525391H13.9407C16.4777 0.525391 18.3557 1.1221 19.5735 2.31521C20.7913 3.49695 21.4008 5.32059 21.4008 7.78644C21.4008 9.65558 20.9517 11.1583 20.052 12.2948C19.1522 13.4197 17.902 14.2027 16.2957 14.642L21.7418 24.0476H16.7055L11.7036 15.0134H8.80248V24.0476H4.26107ZM8.80248 11.3157H14.5388C15.9612 11.3157 16.6728 10.5327 16.6728 8.96818V6.55275C16.6728 5.76482 16.5136 5.20223 16.194 4.86345C15.8877 4.51483 15.3353 4.33991 14.5388 4.33991H8.80248V11.3157ZM21.9368 15.1997C21.9368 13.8153 22.1303 12.5604 22.517 11.434C22.9039 10.2975 23.4445 9.32817 24.1397 8.52887C24.8459 7.71819 25.6931 7.09412 26.6831 6.65482C27.6731 6.21551 28.771 5.99662 29.9774 5.99662C31.1837 5.99662 32.2767 6.21059 33.2552 6.63852C34.2449 7.06645 35.0875 7.65671 35.7823 8.41205C36.4871 9.15448 37.023 10.0445 37.3868 11.0805C37.762 12.1165 37.9506 13.2365 37.9506 14.4409V16.62H26.4965V17.7854C26.4965 18.8439 26.8439 19.6659 27.5371 20.2513C28.2419 20.8249 29.0727 21.1121 30.0299 21.1121C30.9853 21.1121 31.7655 20.864 32.3685 20.3696C32.9715 19.8734 33.3307 19.1762 33.4438 18.2751H37.8146C37.5296 20.2334 36.6935 21.7589 35.3054 22.8515C33.9287 23.9327 32.1521 24.4725 29.9789 24.4725C28.7154 24.4725 27.5829 24.2472 26.5814 23.7965C25.5918 23.3458 24.7492 22.7153 24.0544 21.9046C23.371 21.0942 22.848 20.1197 22.4842 18.9834C22.1189 17.8454 21.9368 16.5843 21.9368 15.1997ZM26.4946 13.2577H33.4766V12.6336C33.4766 11.6658 33.1471 10.8779 32.4865 10.2698C31.826 9.66204 30.9903 9.35892 29.9774 9.35892C28.9759 9.35892 28.1451 9.66358 27.4846 10.2698C26.8241 10.8779 26.4946 11.6658 26.4946 12.6336V13.2577ZM39.2373 18.4421H43.6081C43.7902 20.2202 44.8652 21.1102 46.8353 21.1102C47.6775 21.1102 48.3937 20.958 48.9856 20.6549C49.5772 20.3404 49.8739 19.8442 49.8739 19.1682C49.8739 18.5263 49.6294 18.0643 49.1395 17.7839C48.6496 17.4903 48.007 17.26 47.2105 17.0916L44.1376 16.4334C41.1564 15.7915 39.6651 14.1086 39.6651 11.3851C39.6651 10.62 39.819 9.91013 40.1256 9.25839C40.4434 8.60511 40.899 8.03761 41.4909 7.5528C42.0825 7.0683 42.8051 6.69201 43.6591 6.42148C44.5128 6.13926 45.4849 6 46.5778 6C48.6036 6 50.2655 6.4845 51.5618 7.45227C52.86 8.42035 53.553 9.884 53.6448 11.8423H49.274C49.2279 11.0092 48.9609 10.39 48.471 9.98453C47.9823 9.56797 47.3499 9.36045 46.5763 9.36045C45.8255 9.36045 45.211 9.52431 44.7326 9.85018C44.2655 10.1647 44.0328 10.6104 44.0328 11.1841C44.0328 11.7581 44.2096 12.186 44.5619 12.4682C44.9257 12.7387 45.398 12.9352 45.9797 13.06L49.5132 13.8203C50.1623 13.9546 50.7768 14.1575 51.3569 14.428C51.9485 14.6875 52.4551 15.0247 52.8764 15.4413C53.2974 15.8579 53.6268 16.3522 53.8661 16.9277C54.117 17.5017 54.2416 18.1826 54.2416 18.9705C54.2416 19.7357 54.0759 20.4505 53.7465 21.1151C53.417 21.7798 52.9385 22.3587 52.3126 22.8545C51.6864 23.3492 50.9127 23.7445 49.9901 24.0366C49.069 24.3283 48.0154 24.4759 46.8319 24.4759C44.4538 24.4759 42.615 23.9585 41.3187 22.9228C40.0224 21.8689 39.3273 20.3776 39.2373 18.4421ZM55.5806 15.1997C55.5806 13.8153 55.7738 12.5604 56.1607 11.434C56.5474 10.2975 57.0883 9.32817 57.7816 8.52887C58.4878 7.71819 59.335 7.09412 60.3251 6.65482C61.3151 6.21551 62.4129 5.99662 63.6193 5.99662C64.8257 5.99662 65.9186 6.21059 66.8972 6.63852C67.8872 7.06645 68.7294 7.65671 69.4243 8.41205C70.1308 9.15448 70.6649 10.0445 71.0287 11.0805C71.4043 12.1165 71.5925 13.2365 71.5925 14.4409V16.62H60.1384V17.7854C60.1384 18.8439 60.4858 19.6659 61.1791 20.2513C61.8853 20.8249 62.7161 21.1121 63.6718 21.1121C64.6272 21.1121 65.4074 20.864 66.0104 20.3696C66.6137 19.8734 66.9726 19.1762 67.0857 18.2751H71.4565C71.1715 20.2334 70.3354 21.7589 68.9473 22.8515C67.5707 23.9327 65.7959 24.4725 63.6208 24.4725C62.3573 24.4725 61.2248 24.2472 60.2234 23.7965C59.2337 23.3458 58.3911 22.7153 57.6963 21.9046C57.0129 21.0942 56.4899 20.1197 56.1261 18.9834C55.7623 17.8454 55.5806 16.5843 55.5806 15.1997ZM60.1384 13.2577H67.12V12.6336C67.12 11.6658 66.7905 10.8779 66.13 10.2698C65.4698 9.66204 64.6337 9.35892 63.6208 9.35892C62.6197 9.35892 61.7886 9.66358 61.1281 10.2698C60.4675 10.8779 60.1384 11.6658 60.1384 12.6336V13.2577ZM73.3413 24.0476V6.4181H83.2945V9.79484H77.7124V24.0461H73.3413V24.0476ZM84.5828 6.4181H89.2602L93.1525 19.2008H93.2885L97.2662 6.4181H101.893L95.6274 24.0476H90.8464L84.5828 6.4181ZM101.99 15.1997C101.99 13.8153 102.183 12.5604 102.57 11.434C102.956 10.2975 103.497 9.32817 104.191 8.52887C104.897 7.71819 105.744 7.09412 106.734 6.65482C107.724 6.21551 108.822 5.99662 110.028 5.99662C111.235 5.99662 112.328 6.21059 113.306 6.63852C114.296 7.06645 115.138 7.65671 115.832 8.41205C116.538 9.15448 117.072 10.0445 117.436 11.0805C117.811 12.1165 118 13.2365 118 14.4409V16.62H106.546V17.7854C106.546 18.8439 106.893 19.6659 107.587 20.2513C108.293 20.8249 109.124 21.1121 110.079 21.1121C111.035 21.1121 111.815 20.864 112.418 20.3696C113.021 19.8734 113.38 19.1762 113.493 18.2751H117.864C117.579 20.2334 116.743 21.7589 115.355 22.8515C113.978 23.9327 112.203 24.4725 110.028 24.4725C108.765 24.4725 107.632 24.2472 106.631 23.7965C105.641 23.3458 104.799 22.7153 104.104 21.9046C103.42 21.0942 102.897 20.1197 102.534 18.9834C102.171 17.8454 101.99 16.5843 101.99 15.1997ZM106.547 13.2577H113.529V12.6336C113.529 11.6658 113.2 10.8779 112.539 10.2698C111.879 9.66204 111.043 9.35892 110.03 9.35892C109.029 9.35892 108.198 9.66358 107.537 10.2698C106.877 10.8779 106.547 11.6658 106.547 12.6336V13.2577Z" fill="#F9EDDD"/>
</svg>
