<svg width="11" height="8" viewBox="0 0 11 8" fill="none" xmlns="http://www.w3.org/2000/svg">
<path d="M1.28297 3.71614L1.28282 3.71599C1.2078 3.64097 1.10606 3.59883 0.999976 3.59883C0.893889 3.59883 0.792147 3.64097 0.717133 3.71599C0.642118 3.791 0.599976 3.89274 0.599976 3.99883C0.599976 4.00524 0.60013 4.01164 0.600437 4.01804C0.605214 4.11737 0.646817 4.21136 0.717133 4.28167L0.717283 4.28182L3.51713 7.08167C3.67334 7.23788 3.92661 7.23788 4.08282 7.08167L9.68282 1.48167C9.75783 1.40666 9.79998 1.30491 9.79998 1.19883C9.79998 1.09274 9.75783 0.991 9.68282 0.915986C9.6078 0.840971 9.50606 0.798828 9.39998 0.798828C9.29389 0.798828 9.19215 0.840971 9.11713 0.915986L3.79998 6.23314L1.28297 3.71614Z" fill="#191919" stroke="black" stroke-width="0.5"/>
</svg>
