<svg width="11" height="11" viewBox="0 0 11 11" fill="none" xmlns="http://www.w3.org/2000/svg">
<path fill-rule="evenodd" clip-rule="evenodd" d="M5.5 0.21875C5.5 0.21875 6.5742 0.21875 7.55583 0.633944C7.55583 0.633944 8.50366 1.03484 9.23441 1.76559C9.23441 1.76559 9.96516 2.49634 10.3661 3.44417C10.3661 3.44417 10.7812 4.4258 10.7812 5.5C10.7812 5.5 10.7812 6.57419 10.3661 7.55582C10.3661 7.55582 9.96516 8.50366 9.23441 9.23441C9.23441 9.23441 8.50366 9.96516 7.55583 10.3661C7.55583 10.3661 6.57419 10.7812 5.5 10.7812C5.5 10.7812 4.4258 10.7812 3.44417 10.3661C3.44417 10.3661 2.49634 9.96516 1.76559 9.23441C1.76559 9.23441 1.03484 8.50366 0.633944 7.55583C0.633944 7.55583 0.21875 6.5742 0.21875 5.5C0.21875 5.5 0.21875 4.4258 0.633944 3.44417C0.633944 3.44417 1.03484 2.49634 1.76559 1.76559C1.76559 1.76559 2.49634 1.03484 3.44417 0.633943C3.44417 0.633943 4.4258 0.21875 5.5 0.21875ZM5.5 1.03125C5.5 1.03125 4.59057 1.03125 3.76069 1.38226C3.76069 1.38226 2.95881 1.72143 2.34012 2.34012C2.34012 2.34012 1.72143 2.95881 1.38226 3.76069C1.38226 3.76069 1.03125 4.59056 1.03125 5.5C1.03125 5.5 1.03125 6.40943 1.38226 7.23931C1.38226 7.23931 1.72143 8.04119 2.34012 8.65988C2.34012 8.65988 2.95881 9.27857 3.76069 9.61774C3.76069 9.61774 4.59057 9.96875 5.5 9.96875C5.5 9.96875 6.40943 9.96875 7.23932 9.61774C7.23932 9.61774 8.04119 9.27857 8.65988 8.65988C8.65988 8.65988 9.27858 8.04119 9.61774 7.23931C9.61774 7.23931 9.96875 6.40943 9.96875 5.5C9.96875 5.5 9.96875 4.59057 9.61774 3.76069C9.61774 3.76069 9.27858 2.95881 8.65988 2.34012C8.65988 2.34012 8.04119 1.72142 7.23932 1.38226C7.23932 1.38226 6.40943 1.03125 5.5 1.03125Z" fill="white"/>
<path d="M5.5 5.90625H8.34375C8.56812 5.90625 8.75 5.72437 8.75 5.5C8.75 5.27563 8.56812 5.09375 8.34375 5.09375H5.90625V2.65625C5.90625 2.43188 5.72437 2.25 5.5 2.25C5.27563 2.25 5.09375 2.43188 5.09375 2.65625V5.5C5.09375 5.72437 5.27563 5.90625 5.5 5.90625Z" fill="white"/>
</svg>
