<svg width="13" height="14" viewBox="0 0 13 14" fill="none" xmlns="http://www.w3.org/2000/svg">
<path d="M3.56071 4.70933C3.52731 4.66777 3.48587 4.63337 3.43886 4.6082C3.39185 4.58304 3.34025 4.56762 3.28714 4.56288C3.23403 4.55814 3.18051 4.56417 3.12979 4.58061C3.07907 4.59705 3.03219 4.62356 2.99196 4.65855L0.554455 6.6898C0.508723 6.72744 0.471891 6.77473 0.446604 6.82829C0.421317 6.88185 0.408203 6.94034 0.408203 6.99957C0.408203 7.0588 0.421317 7.11729 0.446604 7.17085C0.471891 7.2244 0.508723 7.2717 0.554455 7.30933L2.99196 9.34058C3.03219 9.37558 3.07907 9.40209 3.12979 9.41853C3.18051 9.43497 3.23403 9.441 3.28714 9.43626C3.34025 9.43152 3.39185 9.4161 3.43886 9.39093C3.48587 9.36577 3.52731 9.33137 3.56071 9.2898C3.5957 9.24957 3.62221 9.20269 3.63865 9.15197C3.65509 9.10125 3.66112 9.04773 3.65638 8.99462C3.65164 8.94151 3.63622 8.8899 3.61106 8.8429C3.58589 8.79589 3.55149 8.75445 3.50992 8.72105L1.44821 6.99957L3.50992 5.27808C3.55149 5.24469 3.58589 5.20325 3.61106 5.15624C3.63622 5.10923 3.65164 5.05763 3.65638 5.00452C3.66112 4.95141 3.65509 4.89789 3.63865 4.84717C3.62221 4.79645 3.5957 4.74956 3.56071 4.70933Z" fill="white"/>
<path d="M12.4474 6.68981L10.0099 4.65856C9.92661 4.60329 9.82584 4.58069 9.7269 4.59507C9.62796 4.60945 9.5378 4.65981 9.47367 4.73652C9.40954 4.81322 9.37595 4.91087 9.37932 5.0108C9.3827 5.11072 9.4228 5.20589 9.49195 5.27809L11.5537 6.99958L9.49195 8.72106C9.42877 8.77466 9.38349 8.8463 9.36218 8.92637C9.34087 9.00644 9.34456 9.09111 9.37274 9.16902C9.40092 9.24694 9.45225 9.31437 9.51985 9.36229C9.58745 9.4102 9.66808 9.43629 9.75093 9.43708C9.84613 9.43751 9.93821 9.40321 10.0099 9.34059L12.4474 7.30934C12.4932 7.27171 12.53 7.22441 12.5553 7.17085C12.5806 7.11729 12.5937 7.0588 12.5937 6.99958C12.5937 6.94035 12.5806 6.88186 12.5553 6.8283C12.53 6.77474 12.4932 6.72745 12.4474 6.68981Z" fill="white"/>
<path d="M8.26305 2.14996C8.21307 2.13146 8.15991 2.12309 8.10666 2.12536C8.05342 2.12763 8.00116 2.14049 7.95294 2.16318C7.90471 2.18588 7.8615 2.21795 7.82581 2.25753C7.79012 2.29711 7.76268 2.34341 7.74508 2.39371L4.49508 11.3312C4.47658 11.3812 4.46821 11.4344 4.47048 11.4876C4.47275 11.5408 4.48561 11.5931 4.5083 11.6413C4.531 11.6895 4.56307 11.7328 4.60265 11.7684C4.64223 11.8041 4.68853 11.8316 4.73883 11.8492C4.78288 11.8649 4.82917 11.8735 4.87594 11.8746C4.95955 11.875 5.04121 11.8493 5.1095 11.801C5.17778 11.7528 5.22928 11.6844 5.2568 11.6054L8.5068 2.66793C8.5253 2.61795 8.53366 2.56479 8.53139 2.51154C8.52912 2.4583 8.51627 2.40604 8.49358 2.35781C8.47088 2.30959 8.43881 2.26638 8.39923 2.23069C8.35965 2.195 8.31335 2.16756 8.26305 2.14996Z" fill="white"/>
</svg>
