<svg width="13" height="13" viewBox="0 0 13 13" fill="none" xmlns="http://www.w3.org/2000/svg">
<path d="M6.5 3.25C6.27563 3.25 6.09375 3.43188 6.09375 3.65625V4.46875C6.09375 4.69312 6.27563 4.875 6.5 4.875C6.72437 4.875 6.90625 4.69312 6.90625 4.46875V3.65625C6.90625 3.43188 6.72437 3.25 6.5 3.25Z" fill="white"/>
<path d="M6.5 8.125C6.27563 8.125 6.09375 8.30688 6.09375 8.53125V9.34375C6.09375 9.56812 6.27563 9.75 6.5 9.75C6.72437 9.75 6.90625 9.56812 6.90625 9.34375V8.53125C6.90625 8.30688 6.72437 8.125 6.5 8.125Z" fill="white"/>
<path fill-rule="evenodd" clip-rule="evenodd" d="M6.5 1.21875C6.5 1.21875 7.5742 1.21875 8.55583 1.63394C8.55583 1.63394 9.50366 2.03484 10.2344 2.76559C10.2344 2.76559 10.9652 3.49634 11.3661 4.44417C11.3661 4.44417 11.7812 5.4258 11.7812 6.5C11.7812 6.5 11.7812 7.57419 11.3661 8.55582C11.3661 8.55582 10.9652 9.50366 10.2344 10.2344C10.2344 10.2344 9.50366 10.9652 8.55583 11.3661C8.55583 11.3661 7.57419 11.7812 6.5 11.7812C6.5 11.7812 5.4258 11.7812 4.44417 11.3661C4.44417 11.3661 3.49634 10.9652 2.76559 10.2344C2.76559 10.2344 2.03484 9.50366 1.63394 8.55583C1.63394 8.55583 1.21875 7.5742 1.21875 6.5C1.21875 6.5 1.21875 5.4258 1.63394 4.44417C1.63394 4.44417 2.03484 3.49634 2.76559 2.76559C2.76559 2.76559 3.49634 2.03484 4.44417 1.63394C4.44417 1.63394 5.4258 1.21875 6.5 1.21875ZM6.5 2.03125C6.5 2.03125 5.59057 2.03125 4.76069 2.38226C4.76069 2.38226 3.95881 2.72143 3.34012 3.34012C3.34012 3.34012 2.72143 3.95881 2.38226 4.76069C2.38226 4.76069 2.03125 5.59056 2.03125 6.5C2.03125 6.5 2.03125 7.40943 2.38226 8.23931C2.38226 8.23931 2.72143 9.04119 3.34012 9.65988C3.34012 9.65988 3.95881 10.2786 4.76069 10.6177C4.76069 10.6177 5.59057 10.9688 6.5 10.9688C6.5 10.9688 7.40943 10.9688 8.23932 10.6177C8.23932 10.6177 9.04119 10.2786 9.65988 9.65988C9.65988 9.65988 10.2786 9.04119 10.6177 8.23931C10.6177 8.23931 10.9688 7.40943 10.9688 6.5C10.9688 6.5 10.9688 5.59057 10.6177 4.76069C10.6177 4.76069 10.2786 3.95881 9.65988 3.34012C9.65988 3.34012 9.04119 2.72142 8.23932 2.38226C8.23932 2.38226 7.40943 2.03125 6.5 2.03125Z" fill="white"/>
<path d="M5.89062 4.875H7.71875C7.94312 4.875 8.125 4.69312 8.125 4.46875C8.125 4.24438 7.94312 4.0625 7.71875 4.0625H5.89062C5.30166 4.0625 4.88521 4.47896 4.88521 4.47896C4.46875 4.89542 4.46875 5.48438 4.46875 5.48438C4.46875 6.07333 4.88521 6.48979 4.88521 6.48979C5.30166 6.90625 5.89062 6.90625 5.89062 6.90625H7.10938C7.36179 6.90625 7.54027 7.08473 7.54027 7.08473C7.71875 7.26321 7.71875 7.51562 7.71875 7.51562C7.71875 7.76804 7.54027 7.94652 7.54027 7.94652C7.36179 8.125 7.10938 8.125 7.10938 8.125H5.28125C5.05688 8.125 4.875 8.30688 4.875 8.53125C4.875 8.75562 5.05688 8.9375 5.28125 8.9375H7.10938C7.69834 8.9375 8.11479 8.52104 8.11479 8.52104C8.53125 8.10458 8.53125 7.51562 8.53125 7.51562C8.53125 6.92667 8.11479 6.51021 8.11479 6.51021C7.69833 6.09375 7.10938 6.09375 7.10938 6.09375H5.89062C5.63821 6.09375 5.45973 5.91527 5.45973 5.91527C5.28125 5.73679 5.28125 5.48438 5.28125 5.48438C5.28125 5.23196 5.45973 5.05348 5.45973 5.05348C5.63821 4.875 5.89062 4.875 5.89062 4.875Z" fill="white"/>
</svg>
