<svg width="13" height="11" viewBox="0 0 13 11" fill="none" xmlns="http://www.w3.org/2000/svg">
<path d="M12.5565 7.62255L10.8299 1.87412C10.7968 1.75785 10.7374 1.65073 10.6564 1.56094C10.5754 1.47116 10.475 1.40111 10.3628 1.35615H10.3323L10.3628 1.34599C9.79623 1.119 9.20968 0.945582 8.6108 0.828023C8.55845 0.817676 8.50457 0.817743 8.45225 0.828222C8.39992 0.838701 8.35018 0.859386 8.30585 0.889095C8.26152 0.918805 8.22348 0.956956 8.1939 1.00137C8.16432 1.04578 8.14378 1.09559 8.13345 1.14794C8.12235 1.19999 8.12171 1.25373 8.13157 1.30602C8.14143 1.35832 8.1616 1.40813 8.1909 1.45256C8.22021 1.49698 8.25805 1.53513 8.30224 1.56479C8.34643 1.59444 8.39608 1.61501 8.4483 1.62529C8.67681 1.67099 8.90025 1.72685 9.11861 1.78779C9.19904 1.82954 9.2632 1.89697 9.30089 1.97938C9.33858 2.06178 9.34764 2.15443 9.32663 2.24257C9.30561 2.33072 9.25573 2.40931 9.18491 2.46584C9.1141 2.52238 9.02641 2.55362 8.9358 2.55459H8.89517C8.11262 2.3505 7.30703 2.24809 6.4983 2.2499C5.70857 2.24754 4.92181 2.34653 4.15728 2.54443C4.06 2.5701 3.95665 2.55875 3.86725 2.51259C3.77785 2.46643 3.70876 2.38873 3.67336 2.29455C3.63796 2.20036 3.63877 2.0964 3.67564 2.00278C3.7125 1.90916 3.7828 1.83255 3.87291 1.78779H3.87799C4.09634 1.72685 4.31978 1.67099 4.5483 1.62529C4.60065 1.61496 4.65046 1.59442 4.69487 1.56484C4.73929 1.53526 4.77744 1.49722 4.80715 1.45289C4.83686 1.40857 4.85754 1.35882 4.86802 1.30649C4.8785 1.25417 4.87857 1.20029 4.86822 1.14794C4.84615 1.04287 4.78387 0.950585 4.69468 0.890808C4.60549 0.83103 4.49646 0.808498 4.39088 0.828023C3.78984 0.948211 3.20154 1.12504 2.63384 1.35615C2.52161 1.40111 2.42115 1.47116 2.34017 1.56094C2.25919 1.65073 2.19984 1.75785 2.16666 1.87412L0.440095 7.62255C0.395304 7.77285 0.394964 7.93289 0.439117 8.08337C0.48327 8.23385 0.570028 8.36834 0.688923 8.4706C0.735637 8.5156 0.784801 8.55798 0.836188 8.59755H0.841267C1.66392 9.26787 2.74556 9.78076 3.96431 10.0753C3.99551 10.0853 4.02805 10.0904 4.0608 10.0905C4.16124 10.0921 4.25871 10.0564 4.33439 9.99038C4.41007 9.92432 4.45859 9.83256 4.47058 9.73283C4.48257 9.63309 4.45719 9.53245 4.39933 9.45033C4.34147 9.36821 4.25524 9.31045 4.15728 9.28818C3.60938 9.15583 3.0767 8.96692 2.56783 8.72451C2.49818 8.65925 2.45373 8.57154 2.44229 8.47679C2.43084 8.38203 2.45312 8.28627 2.50522 8.2063C2.55732 8.12633 2.63592 8.06725 2.72722 8.03944C2.81853 8.01163 2.91671 8.01685 3.00455 8.0542C3.96939 8.48076 5.18306 8.7499 6.4983 8.7499C7.81353 8.7499 9.0272 8.48076 9.99205 8.0542C10.0799 8.01685 10.1781 8.01163 10.2694 8.03944C10.3607 8.06725 10.4393 8.12633 10.4914 8.2063C10.5435 8.28627 10.5658 8.38203 10.5543 8.47679C10.5429 8.57154 10.4984 8.65925 10.4288 8.72451C9.91989 8.96692 9.38722 9.15583 8.83931 9.28818C8.74136 9.31045 8.65513 9.36821 8.59727 9.45033C8.53941 9.53245 8.51402 9.63309 8.52602 9.73283C8.53801 9.83256 8.58653 9.92432 8.66221 9.99038C8.73789 10.0564 8.83536 10.0921 8.9358 10.0905C8.96855 10.0904 9.00109 10.0853 9.03228 10.0753C10.251 9.78076 11.3327 9.26787 12.1553 8.59755H12.1604C12.2118 8.55798 12.261 8.5156 12.3077 8.4706C12.4266 8.36834 12.5133 8.23385 12.5575 8.08337C12.6016 7.93289 12.6013 7.77285 12.5565 7.62255ZM4.8733 6.92177C4.75277 6.92177 4.63496 6.88603 4.53475 6.81907C4.43454 6.75212 4.35643 6.65694 4.31031 6.5456C4.26419 6.43425 4.25212 6.31172 4.27563 6.19351C4.29914 6.07531 4.35718 5.96673 4.4424 5.88151C4.52763 5.79628 4.63621 5.73824 4.75441 5.71473C4.87262 5.69122 4.99515 5.70329 5.1065 5.74941C5.21784 5.79553 5.31302 5.87364 5.37997 5.97385C5.44693 6.07406 5.48267 6.19187 5.48267 6.3124C5.48267 6.47401 5.41847 6.62901 5.30419 6.74329C5.18991 6.85757 5.03491 6.92177 4.8733 6.92177ZM8.1233 6.92177C8.00277 6.92177 7.88496 6.88603 7.78475 6.81907C7.68454 6.75212 7.60643 6.65694 7.56031 6.5456C7.51419 6.43425 7.50212 6.31172 7.52563 6.19351C7.54914 6.07531 7.60718 5.96673 7.6924 5.88151C7.77763 5.79628 7.88621 5.73824 8.00441 5.71473C8.12262 5.69122 8.24515 5.70329 8.35649 5.74941C8.46784 5.79553 8.56301 5.87364 8.62997 5.97385C8.69693 6.07406 8.73267 6.19187 8.73267 6.3124C8.73267 6.47401 8.66847 6.62901 8.55419 6.74329C8.43991 6.85757 8.28491 6.92177 8.1233 6.92177Z" fill="white"/>
</svg>
