<svg width="21" height="20" viewBox="0 0 21 20" fill="none" xmlns="http://www.w3.org/2000/svg">
<path d="M3.42233 3.91428C3.30706 3.80862 3.15637 3.75 3 3.75C2.99095 3.75 2.9819 3.7502 2.97285 3.75059C2.80725 3.75779 2.65129 3.83048 2.53928 3.95267C2.43362 4.06794 2.375 4.21863 2.375 4.375C2.375 4.38405 2.3752 4.3931 2.37559 4.40215C2.38279 4.56775 2.45548 4.72371 2.57767 4.83572L10.0777 11.7107C10.3166 11.9298 10.6834 11.9298 10.9223 11.7107L18.4219 4.8361C18.5511 4.71772 18.625 4.55019 18.625 4.375L18.625 4.3698C18.6237 4.21523 18.5652 4.06662 18.4607 3.95267C18.3487 3.83048 18.1928 3.75779 18.0271 3.75059C18.0181 3.7502 18.0091 3.75 18 3.75L17.9971 3.75001C17.8417 3.75072 17.6922 3.80929 17.5777 3.91428L10.5 10.4021L3.42233 3.91428Z" fill="#F9FAFB"/>
<path fill-rule="evenodd" clip-rule="evenodd" d="M2.375 15V4.375C2.375 4.02982 2.65482 3.75 3 3.75L18 3.75C18.3452 3.75 18.625 4.02982 18.625 4.375V15C18.625 15 18.625 15.5178 18.2589 15.8839C18.2589 15.8839 17.8928 16.25 17.375 16.25H3.625C3.625 16.25 3.10723 16.25 2.74112 15.8839C2.74112 15.8839 2.375 15.5178 2.375 15ZM3.625 15H17.375V5H3.625V15Z" fill="#F9FAFB"/>
<path d="M8.71037 9.53938L2.77287 14.9847C2.6438 15.1031 2.57031 15.2702 2.57031 15.4453L2.57034 15.4507C2.57166 15.6052 2.63021 15.7538 2.73469 15.8678C2.85307 15.9968 3.02017 16.0703 3.19531 16.0703L3.20066 16.0703C3.35523 16.069 3.50383 16.0104 3.61775 15.9059L9.55525 10.4606C9.68433 10.3422 9.75781 10.1751 9.75781 10L9.75779 9.99465C9.75647 9.84008 9.69791 9.69148 9.59343 9.57756C9.4814 9.4554 9.32542 9.38274 9.15981 9.37558C9.15082 9.37519 9.14182 9.375 9.13281 9.375L9.12979 9.37501C8.97441 9.37576 8.82489 9.43436 8.71037 9.53938Z" fill="#F9FAFB"/>
<path d="M18.2271 14.9847L12.2896 9.53938C12.1743 9.43365 12.0236 9.375 11.8672 9.375C11.8582 9.375 11.8492 9.37519 11.8402 9.37558C11.6746 9.38274 11.5186 9.4554 11.4066 9.57756C11.3008 9.69284 11.2422 9.84358 11.2422 10C11.2422 10.009 11.2424 10.018 11.2428 10.027C11.2499 10.1926 11.3226 10.3486 11.4447 10.4606L17.3821 15.9058C17.4974 16.0115 17.6483 16.0703 17.8047 16.0703C17.8137 16.0703 17.8227 16.0701 17.8317 16.0697C17.9973 16.0626 18.1533 15.9899 18.2653 15.8678C18.371 15.7525 18.4297 15.6017 18.4297 15.4453C18.4297 15.4363 18.4295 15.4273 18.4291 15.4183C18.4219 15.2527 18.3493 15.0967 18.2271 14.9847Z" fill="#F9FAFB"/>
</svg>
