<svg width="11" height="13" viewBox="0 0 11 13" fill="none" xmlns="http://www.w3.org/2000/svg">
<path d="M5.09375 0.8125V12.1875C5.09375 12.4119 5.27563 12.5938 5.5 12.5938C5.72437 12.5938 5.90625 12.4119 5.90625 12.1875V0.8125C5.90625 0.588134 5.72437 0.40625 5.5 0.40625C5.27563 0.40625 5.09375 0.588134 5.09375 0.8125Z" fill="white"/>
<path d="M5.5 8.085L1.19936 6.13016C1.14656 6.10617 1.08924 6.09375 1.03125 6.09375C1.0244 6.09375 1.01755 6.09392 1.01071 6.09427C0.859013 6.10195 0.724268 6.19361 0.661414 6.33189C0.637416 6.38469 0.625 6.44201 0.625 6.5C0.625 6.50685 0.625173 6.5137 0.625519 6.52054C0.633198 6.67224 0.724863 6.80698 0.863143 6.86984L5.33189 8.90109C5.43871 8.94964 5.56129 8.94964 5.66811 8.90109L10.1369 6.86984C10.2819 6.80391 10.375 6.65931 10.375 6.5L10.375 6.49882C10.3748 6.44123 10.3624 6.38433 10.3386 6.33189C10.2727 6.18686 10.1281 6.09375 9.96875 6.09375L9.96757 6.09375C9.90997 6.09392 9.85307 6.10633 9.80064 6.13016L5.5 8.085Z" fill="white"/>
<path fill-rule="evenodd" clip-rule="evenodd" d="M0.711808 6.24903L5.18056 0.561527C5.31918 0.385104 5.57457 0.354458 5.75099 0.493076C5.77645 0.513083 5.79943 0.536063 5.81944 0.561527L10.2882 6.24903C10.4039 6.39634 10.4039 6.6037 10.2882 6.75101L5.81944 12.4385C5.75288 12.5232 5.65538 12.578 5.5484 12.5909C5.44143 12.6037 5.33373 12.5735 5.24901 12.507C5.22355 12.487 5.20057 12.464 5.18056 12.4385L0.711808 6.75101C0.596064 6.6037 0.596064 6.39634 0.711808 6.24903ZM5.5 11.53L1.5479 6.50002L5.5 1.47007L9.4521 6.50002L5.5 11.53Z" fill="white"/>
</svg>
