<svg width="13" height="14" viewBox="0 0 13 14" fill="none" xmlns="http://www.w3.org/2000/svg">
<path fill-rule="evenodd" clip-rule="evenodd" d="M6.27289 0.580352C6.41217 0.473216 6.58783 0.473216 6.72711 0.580352L12.3604 4.91369C12.4886 5.01227 12.5667 5.1869 12.5667 5.375C12.5667 5.67415 12.3727 5.91667 12.1333 5.91667H0.866668C0.716188 5.91667 0.576482 5.81908 0.497616 5.65889C0.372187 5.40411 0.435737 5.07047 0.639559 4.91369L6.27289 0.580352ZM2.39765 4.83333L6.5 1.67768L10.6024 4.83333H2.39765Z" fill="white"/>
<path d="M2.16667 5.375V10.7917C2.16667 11.0908 2.36068 11.3333 2.6 11.3333C2.83932 11.3333 3.03333 11.0908 3.03333 10.7917V5.375C3.03333 5.07585 2.83932 4.83333 2.6 4.83333C2.36068 4.83333 2.16667 5.07585 2.16667 5.375Z" fill="white"/>
<path d="M4.76667 5.375V10.7917C4.76667 11.0908 4.96068 11.3333 5.2 11.3333C5.43932 11.3333 5.63333 11.0908 5.63333 10.7917V5.375C5.63333 5.07585 5.43932 4.83333 5.2 4.83333C4.96068 4.83333 4.76667 5.07585 4.76667 5.375Z" fill="white"/>
<path d="M7.36667 5.375V10.7917C7.36667 11.0908 7.56068 11.3333 7.8 11.3333C8.03932 11.3333 8.23333 11.0908 8.23333 10.7917V5.375C8.23333 5.07585 8.03932 4.83333 7.8 4.83333C7.56068 4.83333 7.36667 5.07585 7.36667 5.375Z" fill="white"/>
<path d="M9.96667 5.375V10.7917C9.96667 11.0908 10.1607 11.3333 10.4 11.3333C10.6393 11.3333 10.8333 11.0908 10.8333 10.7917V5.375C10.8333 5.07585 10.6393 4.83333 10.4 4.83333C10.1607 4.83333 9.96667 5.07585 9.96667 5.375Z" fill="white"/>
<path d="M1.3 11.3333H11.7C11.9393 11.3333 12.1333 11.0908 12.1333 10.7917C12.1333 10.4925 11.9393 10.25 11.7 10.25H1.3C1.06068 10.25 0.866667 10.4925 0.866667 10.7917C0.866667 11.0908 1.06068 11.3333 1.3 11.3333Z" fill="white"/>
<path d="M0.433333 13.5H12.5667C12.806 13.5 13 13.2575 13 12.9583C13 12.6592 12.806 12.4167 12.5667 12.4167H0.433333C0.19401 12.4167 0 12.6592 0 12.9583C0 13.2575 0.19401 13.5 0.433333 13.5Z" fill="white"/>
</svg>
