<svg width="13" height="9" viewBox="0 0 13 9" fill="none" xmlns="http://www.w3.org/2000/svg">
<path d="M10.5625 1.65625V6.9375C10.5625 7.16187 10.7444 7.34375 10.9688 7.34375C11.1931 7.34375 11.375 7.16187 11.375 6.9375V1.65625C11.375 1.15143 11.018 0.794464 11.018 0.794464C10.6611 0.4375 10.1562 0.4375 10.1562 0.4375H2.84375C2.33893 0.4375 1.98196 0.794464 1.98196 0.794464C1.625 1.15143 1.625 1.65625 1.625 1.65625V6.9375C1.625 7.16187 1.80688 7.34375 2.03125 7.34375C2.25562 7.34375 2.4375 7.16187 2.4375 6.9375V1.65625C2.4375 1.48798 2.55649 1.36899 2.55649 1.36899C2.67548 1.25 2.84375 1.25 2.84375 1.25H10.1562C10.3245 1.25 10.4435 1.36899 10.4435 1.36899C10.5625 1.48798 10.5625 1.65625 10.5625 1.65625Z" fill="white"/>
<path fill-rule="evenodd" clip-rule="evenodd" d="M0.8125 7.75V6.9375C0.8125 6.71313 0.994384 6.53125 1.21875 6.53125H11.7812C12.0056 6.53125 12.1875 6.71313 12.1875 6.9375V7.75C12.1875 7.75 12.1875 8.25482 11.8305 8.61179C11.8305 8.61179 11.4736 8.96875 10.9688 8.96875H2.03125C2.03125 8.96875 1.52643 8.96875 1.16946 8.61179C1.16946 8.61179 0.8125 8.25482 0.8125 7.75ZM1.625 7.75C1.625 7.75 1.625 7.91827 1.74399 8.03726C1.74399 8.03726 1.86298 8.15625 2.03125 8.15625H10.9688C10.9688 8.15625 11.137 8.15625 11.256 8.03726C11.256 8.03726 11.375 7.91827 11.375 7.75V7.34375H1.625V7.75Z" fill="white"/>
<path d="M7.3125 2.0625H5.6875C5.46313 2.0625 5.28125 2.24438 5.28125 2.46875C5.28125 2.69312 5.46313 2.875 5.6875 2.875H7.3125C7.53687 2.875 7.71875 2.69312 7.71875 2.46875C7.71875 2.24438 7.53687 2.0625 7.3125 2.0625Z" fill="white"/>
</svg>
