<svg width="11" height="11" viewBox="0 0 11 11" fill="none" xmlns="http://www.w3.org/2000/svg">
<path d="M5.66266 6.3263C5.32694 6.18688 5.07038 5.92936 5.07038 5.92936C4.99434 5.85303 4.89109 5.81003 4.78335 5.80983L4.78258 5.80983C4.77633 5.80983 4.77008 5.80998 4.76383 5.81026C4.66294 5.81493 4.56741 5.857 4.49586 5.92828C4.41934 6.00451 4.37633 6.10807 4.37633 6.21608C4.37633 6.22284 4.3765 6.22959 4.37684 6.23634C4.38185 6.33669 4.42387 6.43163 4.49479 6.50281C4.86569 6.8751 5.35103 7.07666 5.35103 7.07666C5.83636 7.27823 6.36188 7.27823 6.36188 7.27823C6.8874 7.27823 7.37274 7.07666 7.37274 7.07666C7.85807 6.8751 8.22898 6.50281 8.22898 6.50281L9.66504 5.07182C9.66965 5.06723 9.67415 5.06252 9.67854 5.05771C10.3927 4.27416 10.3682 3.21426 10.3682 3.21426C10.3436 2.15436 9.59396 1.4047 9.59396 1.4047C8.8443 0.655039 7.7844 0.630501 7.7844 0.630501C6.72451 0.605963 5.94096 1.32013 5.94096 1.32013C5.93632 1.32435 5.93179 1.32868 5.92735 1.33312L4.92189 2.33858C4.8457 2.41477 4.8029 2.5181 4.8029 2.62585C4.8029 2.63235 4.80305 2.63886 4.80337 2.64536C4.80822 2.74624 4.85047 2.84169 4.92189 2.91311C4.99807 2.9893 5.1014 3.0321 5.20915 3.0321C5.31689 3.0321 5.42022 2.9893 5.49641 2.91311L6.49494 1.91458C7.0357 1.42589 7.7656 1.44278 7.7656 1.44278C8.5 1.45979 9.01944 1.97922 9.01944 1.97922C9.53888 2.49866 9.55588 3.23307 9.55588 3.23307C9.57278 3.9628 9.08431 4.50348 9.08431 4.50348L7.65338 5.92936C7.39682 6.18688 7.06111 6.3263 7.06111 6.3263C6.72539 6.46573 6.36188 6.46573 6.36188 6.46573C5.99837 6.46573 5.66266 6.3263 5.66266 6.3263Z" fill="white"/>
<path d="M5.33452 4.67381C5.67023 4.81324 5.92679 5.07076 5.92679 5.07076C6.00302 5.14727 6.10658 5.19028 6.21459 5.19028C6.22135 5.19028 6.2281 5.19012 6.23485 5.18978C6.3352 5.18477 6.43013 5.14275 6.50131 5.07183C6.57764 4.99579 6.62064 4.89254 6.62084 4.78479L6.62084 4.78403C6.62084 4.77778 6.62069 4.77153 6.6204 4.76528C6.61574 4.66439 6.57367 4.56886 6.50239 4.49731C6.13148 4.12501 5.64615 3.92345 5.64615 3.92345C5.16081 3.72189 4.63529 3.72189 4.63529 3.72189C4.10977 3.72189 3.62443 3.92345 3.62443 3.92345C3.1391 4.12501 2.76819 4.49731 2.76819 4.49731L1.33213 5.9283C1.32752 5.93289 1.32302 5.93759 1.31864 5.94241C0.60447 6.72596 0.629008 7.78585 0.629008 7.78585C0.653545 8.84575 1.40321 9.59542 1.40321 9.59542C2.15287 10.3451 3.21277 10.3696 3.21277 10.3696C4.27267 10.3942 5.05622 9.67999 5.05622 9.67999C5.06085 9.67576 5.06539 9.67143 5.06982 9.667L6.07508 8.66174C6.15126 8.58556 6.19427 8.48201 6.19427 8.37427C6.19427 8.26653 6.15147 8.16319 6.07529 8.08701C5.9991 8.01082 5.89577 7.96802 5.78802 7.96802C5.68028 7.96802 5.57695 8.01082 5.50076 8.08701L4.50224 9.08553C3.96148 9.57423 3.23157 9.55733 3.23157 9.55733C2.49717 9.54033 1.97773 9.02089 1.97773 9.02089C1.45829 8.50145 1.44129 7.76705 1.44129 7.76705C1.4244 7.03732 1.91286 6.49664 1.91286 6.49664L3.34379 5.07076C3.60035 4.81324 3.93606 4.67381 3.93606 4.67381C4.27178 4.53439 4.63529 4.53439 4.63529 4.53439C4.9988 4.53439 5.33452 4.67381 5.33452 4.67381Z" fill="white"/>
</svg>
