<svg width="11" height="11" viewBox="0 0 11 11" fill="none" xmlns="http://www.w3.org/2000/svg">
<path d="M9.76562 0.421875H1.23438C1.01889 0.421875 0.812224 0.507477 0.659851 0.659851C0.507477 0.812224 0.421875 1.01889 0.421875 1.23438V9.76562C0.421875 9.98111 0.507477 10.1878 0.659851 10.3401C0.812224 10.4925 1.01889 10.5781 1.23438 10.5781H9.76562C9.98111 10.5781 10.1878 10.4925 10.3401 10.3401C10.4925 10.1878 10.5781 9.98111 10.5781 9.76562V1.23438C10.5781 1.01889 10.4925 0.812224 10.3401 0.659851C10.1878 0.507477 9.98111 0.421875 9.76562 0.421875ZM3.875 7.9375C3.875 8.04524 3.8322 8.14858 3.75601 8.22476C3.67983 8.30095 3.57649 8.34375 3.46875 8.34375C3.36101 8.34375 3.25767 8.30095 3.18149 8.22476C3.1053 8.14858 3.0625 8.04524 3.0625 7.9375V4.6875C3.0625 4.57976 3.1053 4.47642 3.18149 4.40024C3.25767 4.32405 3.36101 4.28125 3.46875 4.28125C3.57649 4.28125 3.67983 4.32405 3.75601 4.40024C3.8322 4.47642 3.875 4.57976 3.875 4.6875V7.9375ZM3.46875 3.67188C3.34823 3.67188 3.23041 3.63614 3.1302 3.56918C3.02999 3.50222 2.95188 3.40705 2.90576 3.2957C2.85964 3.18435 2.84757 3.06182 2.87108 2.94362C2.8946 2.82541 2.95263 2.71683 3.03786 2.63161C3.12308 2.54638 3.23166 2.48835 3.34987 2.46483C3.46807 2.44132 3.5906 2.45339 3.70195 2.49951C3.8133 2.54563 3.90847 2.62374 3.97543 2.72395C4.04239 2.82416 4.07812 2.94198 4.07812 3.0625C4.07812 3.22412 4.01392 3.37911 3.89964 3.49339C3.78536 3.60767 3.63037 3.67188 3.46875 3.67188ZM8.34375 7.9375C8.34375 8.04524 8.30095 8.14858 8.22476 8.22476C8.14858 8.30095 8.04524 8.34375 7.9375 8.34375C7.82976 8.34375 7.72642 8.30095 7.65024 8.22476C7.57405 8.14858 7.53125 8.04524 7.53125 7.9375V6.10938C7.53125 5.84001 7.42425 5.58169 7.23378 5.39122C7.04331 5.20075 6.78499 5.09375 6.51562 5.09375C6.24626 5.09375 5.98794 5.20075 5.79747 5.39122C5.607 5.58169 5.5 5.84001 5.5 6.10938V7.9375C5.5 8.04524 5.4572 8.14858 5.38101 8.22476C5.30483 8.30095 5.20149 8.34375 5.09375 8.34375C4.98601 8.34375 4.88267 8.30095 4.80649 8.22476C4.7303 8.14858 4.6875 8.04524 4.6875 7.9375V4.6875C4.68722 4.58752 4.72381 4.49095 4.79028 4.41627C4.85675 4.34158 4.94843 4.29404 5.04776 4.28272C5.1471 4.2714 5.24712 4.29711 5.32869 4.35493C5.41025 4.41275 5.46763 4.49861 5.48984 4.59609C5.76473 4.40975 6.08519 4.30181 6.41679 4.28385C6.7484 4.2659 7.07864 4.33862 7.37204 4.49419C7.66544 4.64977 7.91092 4.88232 8.08212 5.16689C8.25331 5.45146 8.34376 5.77728 8.34375 6.10938V7.9375Z" fill="white"/>
</svg>
