<svg width="11" height="12" viewBox="0 0 11 12" fill="none" xmlns="http://www.w3.org/2000/svg">
<path d="M6.31152 10.969H4.68652C4.46215 10.969 4.28027 11.1508 4.28027 11.3752C4.28027 11.5996 4.46215 11.7815 4.68652 11.7815H6.31152C6.53589 11.7815 6.71777 11.5996 6.71777 11.3752C6.71777 11.1508 6.53589 10.969 6.31152 10.969Z" fill="white"/>
<path fill-rule="evenodd" clip-rule="evenodd" d="M5.49902 0.507324C5.49902 0.507324 5.79001 0.507324 6.00936 0.690567C6.00936 0.690567 6.58118 1.15594 7.07255 1.75521C7.07255 1.75521 7.81506 2.66079 8.21158 3.69148C8.21158 3.69148 9.34737 6.64378 7.47765 9.95016C7.40556 10.0776 7.27046 10.1564 7.12402 10.1564H3.87402C3.72884 10.1564 3.59469 10.079 3.52213 9.9532C3.52213 9.9532 1.61369 6.64524 2.76218 3.68836C2.76218 3.68836 3.16293 2.65659 3.91499 1.75109C3.91499 1.75109 4.41392 1.15036 4.9847 0.693854C4.9847 0.693854 5.20803 0.507324 5.49902 0.507324ZM4.54002 2.27021C4.54002 2.27021 4.98327 1.73653 5.49894 1.32274C5.49894 1.32274 6.00586 1.73572 6.44424 2.27038C6.44424 2.27038 7.10375 3.07472 7.45326 3.98322C7.45326 3.98322 8.41666 6.4874 6.88406 9.34394H4.1116C4.1116 9.34394 2.54658 6.48754 3.51955 3.98253C3.51955 3.98253 3.87244 3.07401 4.54002 2.27021Z" fill="white"/>
<path d="M4.12754 10.0677C4.2239 9.99057 4.28027 9.87364 4.28027 9.75023C4.28027 9.74422 4.28014 9.73821 4.27987 9.73221C4.27605 9.64622 4.24502 9.56366 4.19125 9.49644C4.11415 9.40007 3.99743 9.34398 3.87402 9.34398C3.86801 9.34398 3.86201 9.34411 3.856 9.34438C3.77001 9.34819 3.68745 9.37923 3.62024 9.433L2.09699 10.6516L1.47267 7.82434L1.47237 7.823L3.06345 5.9178C3.12446 5.84474 3.158 5.75244 3.158 5.65726L3.158 5.65512C3.15794 5.6437 3.1574 5.63228 3.15637 5.6209C3.14673 5.51359 3.09486 5.4145 3.01216 5.34544C2.9391 5.28443 2.84694 5.25101 2.75175 5.25101L2.74962 5.25101C2.7382 5.25107 2.72678 5.25162 2.7154 5.25264C2.60809 5.26228 2.509 5.31416 2.43994 5.39686L0.848773 7.30225C0.723286 7.44865 0.679122 7.63635 0.679122 7.63635C0.635747 7.8207 0.680346 8.00437 0.680346 8.00437L1.30417 10.8293C1.35013 11.0343 1.48972 11.1914 1.48972 11.1914C1.6293 11.3484 1.82752 11.4181 1.82752 11.4181C2.02573 11.4878 2.23288 11.4527 2.23288 11.4527C2.44003 11.4175 2.60437 11.2862 2.60437 11.2862L4.12754 10.0677Z" fill="white"/>
<path d="M7.37801 9.43312C7.30597 9.37549 7.21627 9.34394 7.12402 9.34394L7.1211 9.34395C6.99871 9.34483 6.88325 9.40084 6.80679 9.4964C6.74917 9.56844 6.71777 9.65794 6.71777 9.75019L6.71777 9.75099C6.7178 9.76571 6.71863 9.78042 6.72026 9.79505C6.73215 9.90213 6.7861 10.0001 6.87024 10.0674L8.39368 11.2862C8.55801 11.4175 8.76516 11.4526 8.76516 11.4526C8.97231 11.4877 9.17052 11.4181 9.17052 11.4181C9.36874 11.3484 9.50832 11.1913 9.50832 11.1913C9.64791 11.0343 9.69387 10.8293 9.69387 10.8293L10.3177 8.00434C10.3623 7.82066 10.3189 7.63631 10.3189 7.63631C10.2748 7.44862 10.1493 7.30221 10.1493 7.30221L8.52791 5.35652C8.45072 5.2639 8.33638 5.21034 8.21582 5.21034L8.21062 5.21038C8.11737 5.21157 8.02738 5.2448 7.95574 5.3045C7.86312 5.38169 7.80957 5.49603 7.80957 5.61659L7.8096 5.62179C7.81079 5.71504 7.84403 5.80503 7.90373 5.87667L9.52568 7.82295L9.52537 7.82431L8.90105 10.6516L7.37801 9.43312Z" fill="white"/>
<path d="M6.1084 4.87521C6.1084 5.21173 5.83555 5.48458 5.49902 5.48458C5.1625 5.48458 4.88965 5.21173 4.88965 4.87521C4.88965 4.53868 5.1625 4.26583 5.49902 4.26583C5.83555 4.26583 6.1084 4.53868 6.1084 4.87521Z" fill="white"/>
</svg>
