<svg width="11" height="11" viewBox="0 0 11 11" fill="none" xmlns="http://www.w3.org/2000/svg">
<path d="M1.50363 9.00394C1.87001 7.90371 2.75397 7.60644 2.75397 7.60644C2.8561 7.5721 2.9404 7.4986 2.98833 7.4021C3.01622 7.34594 3.03073 7.28409 3.03073 7.22138L3.03073 7.21884C3.03046 7.17567 3.02331 7.13281 3.00955 7.09189C2.95394 6.92653 2.79895 6.81513 2.62449 6.81513L2.61583 6.81522C2.57471 6.8161 2.53397 6.82322 2.49499 6.83632C1.2271 7.26272 0.732745 8.74723 0.732745 8.74723C0.49675 9.45591 0.49675 10.0956 0.49675 10.0956C0.49675 10.32 0.678634 10.5019 0.903 10.5019C1.54269 10.5019 2.25137 10.2659 2.25137 10.2659C3.73528 9.77171 4.16192 8.50468 4.16192 8.50468L4.16222 8.5038C4.17625 8.46207 4.18347 8.41815 4.18347 8.37412L4.1834 8.36657C4.18228 8.30642 4.16782 8.24728 4.14106 8.1934C4.09313 8.0969 4.00883 8.0234 3.90671 7.98906C3.86498 7.97502 3.82124 7.96787 3.77722 7.96787C3.7701 7.96787 3.76299 7.96805 3.75588 7.96843C3.58946 7.97718 3.44527 8.08668 3.39216 8.24463C3.0949 9.12859 1.99467 9.49498 1.99467 9.49498C1.65643 9.60761 1.34363 9.65498 1.34363 9.65498C1.39099 9.34217 1.50363 9.00394 1.50363 9.00394Z" fill="white"/>
<path fill-rule="evenodd" clip-rule="evenodd" d="M10.5577 1.1271C10.5577 1.1271 10.6621 1.84798 10.4634 2.59265C10.4634 2.59265 10.1661 3.70744 9.23401 4.63951L5.78596 8.08756C5.62731 8.24621 5.37009 8.24621 5.21144 8.08756L2.91105 5.78717C2.83486 5.71098 2.79206 5.60765 2.79206 5.49991C2.79206 5.39216 2.83486 5.28883 2.91105 5.21264L6.3591 1.7646C6.3591 1.7646 7.29116 0.832525 8.40596 0.535162C8.40596 0.535162 9.1517 0.336243 9.87358 0.441244C9.87358 0.441244 10.138 0.476497 10.3301 0.668537C10.3301 0.668537 10.5212 0.859623 10.5577 1.1271ZM8.61537 1.32021C8.61537 1.32021 9.19836 1.16471 9.75374 1.24486C9.75374 1.24486 9.8339 1.80025 9.67839 2.38324C9.67839 2.38324 9.43726 3.28721 8.65949 4.06499L5.4987 7.22577L3.77283 5.49991L6.93362 2.33912C6.93362 2.33912 7.7114 1.56134 8.61537 1.32021Z" fill="white"/>
<path d="M5.89703 7.72038C5.87585 7.61473 5.81357 7.52183 5.7239 7.46211C5.65719 7.41768 5.57884 7.39398 5.4987 7.39398L5.49732 7.39398C5.47096 7.39407 5.44468 7.39673 5.41885 7.40191C5.22904 7.43996 5.09245 7.60665 5.09245 7.80023L5.0925 7.80627C5.09287 7.83106 5.0955 7.85577 5.10038 7.88008L5.52694 10.0078C5.57065 10.2277 5.72158 10.3943 5.72158 10.3943C5.87251 10.5609 6.08761 10.6262 6.08761 10.6262C6.3027 10.6915 6.52078 10.637 6.52078 10.637C6.73886 10.5825 6.89791 10.4236 6.89791 10.4236L8.53875 8.77767C8.77437 8.54683 8.77913 8.21227 8.77913 8.21227L8.77917 4.92601C8.77917 4.70164 8.59729 4.51976 8.37292 4.51976C8.14856 4.51976 7.96667 4.70164 7.96667 4.92601L7.96671 8.20069L7.96334 8.20404L6.32372 9.84874L6.32359 9.84811L5.89703 7.72038Z" fill="white"/>
<path d="M0.990721 5.47166L3.11846 5.89822C3.14475 5.90349 3.1715 5.90615 3.19831 5.90615C3.20927 5.90615 3.22022 5.9057 3.23114 5.90482C3.41186 5.89017 3.56099 5.75753 3.59663 5.57975C3.6019 5.55346 3.60456 5.52671 3.60456 5.4999C3.60456 5.48894 3.60412 5.47799 3.60323 5.46707C3.58858 5.28635 3.45594 5.13721 3.27817 5.10157L1.1498 4.67489L2.7945 3.03526L2.79785 3.03189L6.07253 3.03193C6.2969 3.03193 6.47878 2.85004 6.47878 2.62568C6.47878 2.40131 6.2969 2.21943 6.07253 2.21943L2.78627 2.21947C2.45171 2.22424 2.22087 2.45985 2.22087 2.45985L0.574945 4.10069C0.416083 4.25974 0.361561 4.47782 0.361561 4.47782C0.307038 4.6959 0.372363 4.911 0.372363 4.911C0.437688 5.12609 0.604281 5.27702 0.604281 5.27702C0.770873 5.42795 0.990721 5.47166 0.990721 5.47166Z" fill="white"/>
</svg>
