<svg width="11" height="12" viewBox="0 0 11 12" fill="none" xmlns="http://www.w3.org/2000/svg">
<path d="M1.23438 5.90625H9.76562C9.98999 5.90625 10.1719 5.72437 10.1719 5.5C10.1719 5.27563 9.98999 5.09375 9.76562 5.09375H1.23438C1.01001 5.09375 0.828125 5.27563 0.828125 5.5C0.828125 5.72437 1.01001 5.90625 1.23438 5.90625Z" fill="white"/>
<path d="M2.33125 10.9437C2.27851 11.0141 2.25 11.0996 2.25 11.1875L2.25002 11.1911C2.25017 11.2091 2.25153 11.2271 2.25408 11.245C2.26932 11.3516 2.3263 11.4479 2.4125 11.5125C2.48282 11.5652 2.56835 11.5938 2.65625 11.5938L2.65983 11.5937C2.67786 11.5936 2.69585 11.5922 2.7137 11.5897C2.82036 11.5744 2.9166 11.5174 2.98125 11.4313L4.19995 9.80632C4.25274 9.73593 4.28125 9.6504 4.28125 9.5625L4.28123 9.55892C4.28108 9.54089 4.27972 9.5229 4.27717 9.50505C4.26193 9.39839 4.20495 9.30215 4.11875 9.2375C4.04843 9.18476 3.9629 9.15625 3.875 9.15625L3.87142 9.15627C3.85339 9.15642 3.8354 9.15778 3.81755 9.16033C3.71089 9.17557 3.61465 9.23255 3.55 9.31875L2.33125 10.9437Z" fill="white"/>
<path d="M8.01864 11.4311C8.08329 11.5173 8.17964 11.5744 8.2863 11.5897C8.30533 11.5924 8.32453 11.5938 8.34375 11.5938L8.34514 11.5937C8.43257 11.5934 8.51756 11.565 8.5875 11.5125C8.6737 11.4479 8.73068 11.3516 8.74592 11.245C8.74864 11.2259 8.75 11.2067 8.75 11.1875L8.75 11.1861C8.7497 11.0987 8.7212 11.0137 8.66875 10.9437L7.45 9.31875C7.38535 9.23255 7.28911 9.17557 7.18245 9.16033C7.16342 9.15761 7.14422 9.15625 7.125 9.15625L7.12361 9.15625C7.03618 9.15655 6.95119 9.18505 6.88125 9.2375C6.79505 9.30215 6.73807 9.39839 6.72283 9.50505C6.72011 9.52408 6.71875 9.54328 6.71875 9.5625L6.71875 9.56389C6.71905 9.65132 6.74755 9.73631 6.8 9.80625L8.01864 11.4311Z" fill="white"/>
<path fill-rule="evenodd" clip-rule="evenodd" d="M0.828125 1.84375C0.828125 1.84375 0.828125 1.17065 1.30408 0.694701C1.30408 0.694701 1.78003 0.21875 2.45312 0.21875H8.54688C8.54688 0.21875 9.21997 0.21875 9.69592 0.694702C9.69592 0.694702 10.1719 1.17065 10.1719 1.84375V8.34375C10.1719 8.34375 10.1719 9.01685 9.69592 9.4928C9.69592 9.4928 9.21997 9.96875 8.54688 9.96875H2.45312C2.45312 9.96875 1.78003 9.96875 1.30408 9.4928C1.30408 9.4928 0.828125 9.01685 0.828125 8.34375V1.84375ZM1.64063 1.84375L1.64062 8.34375C1.64062 8.34375 1.64062 8.6803 1.8786 8.91827C1.8786 8.91827 2.11658 9.15625 2.45312 9.15625H8.54688C8.54688 9.15625 8.88342 9.15625 9.1214 8.91827C9.1214 8.91827 9.35938 8.6803 9.35938 8.34375V1.84375C9.35938 1.84375 9.35938 1.5072 9.1214 1.26923C9.1214 1.26923 8.88342 1.03125 8.54688 1.03125L2.45312 1.03125C2.45312 1.03125 2.11658 1.03125 1.8786 1.26923C1.8786 1.26923 1.64063 1.5072 1.64063 1.84375Z" fill="white"/>
<path d="M3.875 7.73438C3.875 8.0709 3.60215 8.34375 3.26562 8.34375C2.9291 8.34375 2.65625 8.0709 2.65625 7.73438C2.65625 7.39785 2.9291 7.125 3.26562 7.125C3.60215 7.125 3.875 7.39785 3.875 7.73438Z" fill="white"/>
<path d="M8.34375 7.73438C8.34375 8.0709 8.0709 8.34375 7.73438 8.34375C7.39785 8.34375 7.125 8.0709 7.125 7.73438C7.125 7.39785 7.39785 7.125 7.73438 7.125C8.0709 7.125 8.34375 7.39785 8.34375 7.73438Z" fill="white"/>
</svg>
