<svg width="12" height="10" viewBox="0 0 12 10" fill="none" xmlns="http://www.w3.org/2000/svg">
<path d="M11.4767 1.94575L9.94313 3.47427C9.63844 7.02388 6.64235 9.7813 3.06227 9.7813C2.32594 9.7813 1.71657 9.6645 1.25446 9.43599C0.883753 9.24809 0.73141 9.05005 0.690785 8.98911C0.657172 8.93806 0.635513 8.88008 0.627422 8.81949C0.61933 8.75891 0.625013 8.69728 0.644049 8.63919C0.663085 8.58111 0.694983 8.52807 0.737365 8.48402C0.779748 8.43998 0.831522 8.40607 0.888832 8.38481C0.898988 8.37973 2.09743 7.9227 2.87438 7.04419C2.39254 6.70111 1.96903 6.28274 1.62008 5.80513C0.924378 4.86059 0.18805 3.22036 0.629847 0.772704C0.643735 0.699937 0.677017 0.632272 0.726178 0.576855C0.775338 0.521438 0.838553 0.480325 0.909144 0.45786C0.97996 0.434672 1.05579 0.431408 1.12834 0.448425C1.20088 0.465442 1.26735 0.502085 1.32047 0.554344C1.33571 0.574657 3.02672 2.24028 5.09352 2.77856V2.4688C5.09551 2.1467 5.16093 1.82815 5.28604 1.53133C5.41115 1.23451 5.59349 0.965245 5.82267 0.738901C6.05184 0.512557 6.32335 0.333569 6.6217 0.212158C6.92005 0.0907473 7.23939 0.0292908 7.56149 0.0312976C7.98424 0.037327 8.39821 0.152757 8.76309 0.366342C9.12796 0.579927 9.43129 0.884383 9.64352 1.25005H11.1873C11.2675 1.2498 11.346 1.27329 11.4128 1.31757C11.4797 1.36185 11.532 1.42494 11.5631 1.49888C11.5923 1.57391 11.5997 1.65571 11.5845 1.73479C11.5692 1.81387 11.5318 1.88701 11.4767 1.94575Z" fill="white"/>
</svg>
