<svg width="11" height="11" viewBox="0 0 11 11" fill="none" xmlns="http://www.w3.org/2000/svg">
<path d="M0.3 4.85016C0.659525 4.36755 1.13927 3.98761 1.69141 3.7482C1.38932 3.47184 1.1778 3.11063 1.08459 2.71195C0.991378 2.31327 1.02082 1.89572 1.16906 1.51407C1.31731 1.13241 1.57742 0.804465 1.91531 0.573229C2.25319 0.341992 2.65307 0.218262 3.0625 0.218262C3.47193 0.218262 3.87181 0.341992 4.20969 0.573229C4.54758 0.804465 4.80769 1.13241 4.95594 1.51407C5.10418 1.89572 5.13362 2.31327 5.04041 2.71195C4.9472 3.11063 4.73568 3.47184 4.43359 3.7482C4.83147 3.92122 5.19323 4.16757 5.5 4.47438C5.80677 4.16757 6.16853 3.92122 6.56641 3.7482C6.26432 3.47184 6.0528 3.11063 5.95959 2.71195C5.86638 2.31327 5.89582 1.89572 6.04406 1.51407C6.19231 1.13241 6.45242 0.804465 6.79031 0.573229C7.12819 0.341992 7.52807 0.218262 7.9375 0.218262C8.34693 0.218262 8.74681 0.341992 9.08469 0.573229C9.42258 0.804465 9.68269 1.13241 9.83094 1.51407C9.97918 1.89572 10.0086 2.31327 9.91541 2.71195C9.8222 3.11063 9.61068 3.47184 9.30859 3.7482C9.86073 3.98761 10.3405 4.36755 10.7 4.85016C10.732 4.89284 10.7553 4.9414 10.7685 4.99308C10.7818 5.04476 10.7847 5.09855 10.7772 5.15136C10.7696 5.20417 10.7517 5.25498 10.7246 5.30089C10.6974 5.3468 10.6614 5.3869 10.6188 5.41891C10.5321 5.48225 10.4241 5.50922 10.3178 5.49404C10.2116 5.47885 10.1155 5.42274 10.05 5.33766C9.80403 5.0097 9.48509 4.74352 9.11842 4.56019C8.75176 4.37685 8.34744 4.28141 7.9375 4.28141C7.52756 4.28141 7.12324 4.37685 6.75658 4.56019C6.38991 4.74352 6.07097 5.0097 5.825 5.33766L5.79453 5.36813H5.78945L5.76406 5.39352L5.74883 5.40367C5.74883 5.40502 5.74829 5.40631 5.74734 5.40726C5.74639 5.40822 5.7451 5.40875 5.74375 5.40875L5.72852 5.41891L5.71328 5.42906L5.68789 5.4443H5.67773L5.59141 5.47477H5.42383L5.3832 5.46461H5.36797L5.32227 5.4443L5.30703 5.43414C5.29068 5.42578 5.27534 5.41555 5.26133 5.40367H5.25625L5.24102 5.38844H5.23086C5.2207 5.37828 5.21055 5.3732 5.20547 5.36305H5.20039L5.16992 5.3275C4.92347 5.00081 4.60445 4.73586 4.23806 4.55358C3.87167 4.3713 3.46792 4.27668 3.05869 4.27717C2.64946 4.27766 2.24595 4.37326 1.88 4.55642C1.51404 4.73958 1.19567 5.00529 0.95 5.33258C0.912695 5.38397 0.863862 5.4259 0.80742 5.455C0.750979 5.4841 0.6885 5.49957 0.625 5.50016C0.536918 5.5013 0.451028 5.47267 0.38125 5.41891C0.338571 5.3869 0.302614 5.3468 0.275432 5.30089C0.248251 5.25498 0.230378 5.20417 0.222833 5.15136C0.215288 5.09855 0.21822 5.04476 0.23146 4.99308C0.244701 4.9414 0.26799 4.89284 0.3 4.85016ZM9.30859 9.02945C9.61068 8.75309 9.8222 8.39188 9.91541 7.9932C10.0086 7.59452 9.97918 7.17697 9.83094 6.79532C9.68269 6.41366 9.42258 6.08572 9.08469 5.85448C8.74681 5.62324 8.34693 5.49951 7.9375 5.49951C7.52807 5.49951 7.12819 5.62324 6.79031 5.85448C6.45242 6.08572 6.19231 6.41366 6.04406 6.79532C5.89582 7.17697 5.86638 7.59452 5.95959 7.9932C6.0528 8.39188 6.26432 8.75309 6.56641 9.02945C6.16853 9.20247 5.80677 9.44882 5.5 9.75563C5.19323 9.44882 4.83147 9.20247 4.43359 9.02945C4.73568 8.75309 4.9472 8.39188 5.04041 7.9932C5.13362 7.59452 5.10418 7.17697 4.95594 6.79532C4.80769 6.41366 4.54758 6.08572 4.20969 5.85448C3.87181 5.62324 3.47193 5.49951 3.0625 5.49951C2.65307 5.49951 2.25319 5.62324 1.91531 5.85448C1.57742 6.08572 1.31731 6.41366 1.16906 6.79532C1.02082 7.17697 0.991378 7.59452 1.08459 7.9932C1.1778 8.39188 1.38932 8.75309 1.69141 9.02945C1.13927 9.26886 0.659525 9.6488 0.3 10.1314C0.254733 10.1918 0.227167 10.2635 0.220392 10.3387C0.213616 10.4138 0.227899 10.4894 0.261639 10.5568C0.295379 10.6243 0.347244 10.6811 0.411422 10.7207C0.4756 10.7604 0.549555 10.7814 0.625 10.7814H10.375C10.4504 10.7814 10.5244 10.7604 10.5886 10.7207C10.6528 10.6811 10.7046 10.6243 10.7384 10.5568C10.7721 10.4894 10.7864 10.4138 10.7796 10.3387C10.7728 10.2635 10.7453 10.1918 10.7 10.1314C10.3405 9.6488 9.86073 9.26886 9.30859 9.02945Z" fill="white"/>
</svg>
