<svg width="11" height="11" viewBox="0 0 11 11" fill="none" xmlns="http://www.w3.org/2000/svg">
<path d="M9.70909 6.45968C9.18655 6.97784 8.5209 7.32776 7.7978 7.46442C7.07471 7.60107 6.32727 7.5182 5.65167 7.22648L3.01104 10.2835C3.00596 10.2937 2.99581 10.2987 2.99073 10.3038C2.84023 10.4549 2.66137 10.5748 2.46443 10.6566C2.26748 10.7384 2.05633 10.7805 1.84307 10.7805C1.62982 10.7805 1.41866 10.7384 1.22172 10.6566C1.02478 10.5748 0.845921 10.4549 0.695417 10.3038C0.544334 10.1533 0.424454 9.97446 0.342655 9.77752C0.260857 9.58057 0.21875 9.36942 0.21875 9.15616C0.21875 8.94291 0.260857 8.73175 0.342655 8.53481C0.424454 8.33787 0.544334 8.15901 0.695417 8.00851L0.715729 7.98819L3.77276 5.34757C3.4783 4.67678 3.39214 3.93301 3.52543 3.21268C3.65872 2.49234 4.00532 1.82864 4.52031 1.30764C5.03529 0.786634 5.69491 0.43234 6.41365 0.290687C7.13239 0.149033 7.87712 0.226552 8.55128 0.513194C8.61226 0.538809 8.66596 0.579103 8.7076 0.630489C8.74924 0.681876 8.77753 0.742761 8.78995 0.807725C8.80276 0.873157 8.79927 0.940737 8.77979 1.0045C8.7603 1.06827 8.72542 1.12625 8.67823 1.17335L6.70284 3.14874L6.89073 4.10851L7.8505 4.2964L9.82589 2.32101C9.87298 2.27381 9.93097 2.23893 9.99474 2.21945C10.0585 2.19997 10.1261 2.19648 10.1915 2.20929C10.2565 2.22171 10.3174 2.25 10.3687 2.29164C10.4201 2.33328 10.4604 2.38698 10.486 2.44796C10.7727 3.11764 10.8519 3.85792 10.7134 4.57309C10.5749 5.28826 10.225 5.94544 9.70909 6.45968Z" fill="white"/>
</svg>
