<svg width="11" height="11" viewBox="0 0 11 11" fill="none" xmlns="http://www.w3.org/2000/svg">
<path fill-rule="evenodd" clip-rule="evenodd" d="M5.5 0.21875C5.5 0.21875 6.5742 0.21875 7.55583 0.633944C7.55583 0.633944 8.50366 1.03484 9.23441 1.76559C9.23441 1.76559 9.96516 2.49634 10.3661 3.44417C10.3661 3.44417 10.7812 4.4258 10.7812 5.5C10.7812 5.5 10.7812 6.57419 10.3661 7.55582C10.3661 7.55582 9.96516 8.50366 9.23441 9.23441C9.23441 9.23441 8.50366 9.96516 7.55583 10.3661C7.55583 10.3661 6.57419 10.7812 5.5 10.7812C5.5 10.7812 4.4258 10.7812 3.44417 10.3661C3.44417 10.3661 2.49634 9.96516 1.76559 9.23441C1.76559 9.23441 1.03484 8.50366 0.633944 7.55583C0.633944 7.55583 0.21875 6.5742 0.21875 5.5C0.21875 5.5 0.21875 4.4258 0.633944 3.44417C0.633944 3.44417 1.03484 2.49634 1.76559 1.76559C1.76559 1.76559 2.49634 1.03484 3.44417 0.633943C3.44417 0.633943 4.4258 0.21875 5.5 0.21875ZM5.5 1.03125C5.5 1.03125 4.59057 1.03125 3.76069 1.38226C3.76069 1.38226 2.95881 1.72143 2.34012 2.34012C2.34012 2.34012 1.72143 2.95881 1.38226 3.76069C1.38226 3.76069 1.03125 4.59056 1.03125 5.5C1.03125 5.5 1.03125 6.40943 1.38226 7.23931C1.38226 7.23931 1.72143 8.04119 2.34012 8.65988C2.34012 8.65988 2.95881 9.27857 3.76069 9.61774C3.76069 9.61774 4.59057 9.96875 5.5 9.96875C5.5 9.96875 6.40943 9.96875 7.23932 9.61774C7.23932 9.61774 8.04119 9.27857 8.65988 8.65988C8.65988 8.65988 9.27858 8.04119 9.61774 7.23931C9.61774 7.23931 9.96875 6.40943 9.96875 5.5C9.96875 5.5 9.96875 4.59057 9.61774 3.76069C9.61774 3.76069 9.27858 2.95881 8.65988 2.34012C8.65988 2.34012 8.04119 1.72142 7.23932 1.38226C7.23932 1.38226 6.40943 1.03125 5.5 1.03125Z" fill="white"/>
<path d="M0.625 5.90625H10.375C10.5994 5.90625 10.7812 5.72437 10.7812 5.5C10.7812 5.27563 10.5994 5.09375 10.375 5.09375H0.625C0.400634 5.09375 0.21875 5.27563 0.21875 5.5C0.21875 5.72437 0.400634 5.90625 0.625 5.90625Z" fill="white"/>
<path fill-rule="evenodd" clip-rule="evenodd" d="M5.5 0.350761C5.5 0.350761 6.08005 0.350761 6.57612 0.840692C6.57612 0.840692 6.99728 1.25664 7.30975 1.98626C7.30975 1.98626 7.9375 3.45205 7.9375 5.49998C7.9375 5.49998 7.9375 7.54791 7.30975 9.0137C7.30975 9.0137 6.99728 9.74332 6.57612 10.1593C6.57612 10.1593 6.08005 10.6492 5.5 10.6492C5.5 10.6492 4.91995 10.6492 4.42388 10.1593C4.42388 10.1593 4.00272 9.74332 3.69024 9.0137C3.69024 9.0137 3.0625 7.54791 3.0625 5.49998C3.0625 5.49998 3.0625 3.45205 3.69024 1.98626C3.69024 1.98626 4.00272 1.25664 4.42388 0.840692C4.42388 0.840692 4.91995 0.350761 5.5 0.350761ZM5.5 1.16326C5.5 1.16326 5.25354 1.16326 4.99481 1.41878C4.99481 1.41878 4.68693 1.72286 4.43713 2.30613C4.43713 2.30613 3.875 3.61871 3.875 5.49998C3.875 5.49998 3.875 7.38125 4.43713 8.69383C4.43713 8.69383 4.68693 9.2771 4.99481 9.58118C4.99481 9.58118 5.25354 9.8367 5.5 9.8367C5.5 9.8367 5.74646 9.8367 6.00519 9.58118C6.00519 9.58118 6.31307 9.2771 6.56287 8.69383C6.56287 8.69383 7.125 7.38125 7.125 5.49998C7.125 5.49998 7.125 3.61871 6.56287 2.30613C6.56287 2.30613 6.31307 1.72286 6.00519 1.41878C6.00519 1.41878 5.74646 1.16326 5.5 1.16326Z" fill="white"/>
</svg>
