<svg width="11" height="12" viewBox="0 0 11 12" fill="none" xmlns="http://www.w3.org/2000/svg">
<path d="M5.09187 1.84375C5.09187 1.52236 5.18718 1.20818 5.36573 0.940949C5.54429 0.673719 5.79808 0.465439 6.09501 0.342446C6.39194 0.219454 6.71867 0.187274 7.03389 0.249975C7.34911 0.312676 7.63866 0.467442 7.86592 0.694702C8.09318 0.921962 8.24795 1.21151 8.31065 1.52673C8.37335 1.84195 8.34117 2.16868 8.21818 2.46561C8.09518 2.76254 7.8869 3.01633 7.61967 3.19489C7.35244 3.37345 7.03827 3.46875 6.71687 3.46875C6.28631 3.46741 5.87376 3.29578 5.5693 2.99132C5.26485 2.68686 5.09321 2.27432 5.09187 1.84375ZM10.3731 5.78438C10.3731 5.67663 10.3303 5.5733 10.2541 5.49711C10.1779 5.42093 10.0746 5.37813 9.96687 5.37813C9.90143 5.3776 9.83687 5.39331 9.77898 5.42383H9.78406C9.77898 5.42383 9.45398 5.58125 8.85984 5.52031C8.2657 5.45938 7.36179 5.19531 6.1532 4.2457C5.39148 3.65156 4.20828 2.99648 2.88289 3.25039C2.08054 3.40273 1.61843 3.81406 1.56765 3.85977C1.52772 3.89541 1.49532 3.93868 1.47237 3.98704C1.44942 4.03539 1.43637 4.08785 1.43401 4.14133C1.43164 4.1948 1.44 4.24821 1.45859 4.2984C1.47718 4.3486 1.50563 4.39456 1.54226 4.43359C1.615 4.51303 1.71631 4.56033 1.82392 4.56509C1.93152 4.56986 2.03662 4.53169 2.11609 4.45899C2.17195 4.4082 3.42625 3.32149 5.39656 4.69258C5.15517 5.50129 4.7792 6.26353 4.28445 6.94727L4.16257 7.10469C3.20281 8.33359 2.02468 8.88203 0.663746 8.74492C0.556002 8.73415 0.448391 8.76662 0.364585 8.83518C0.28078 8.90375 0.227646 9.0028 0.216871 9.11055C0.206097 9.21829 0.238565 9.3259 0.307133 9.40971C0.375701 9.49351 0.474752 9.54665 0.582496 9.55742C0.750074 9.57266 0.907496 9.57773 1.06492 9.57773C2.72039 9.57773 3.93914 8.69414 4.78211 7.63281C5.76726 7.89688 7.52937 8.65859 7.52937 10.7762C7.52937 10.8839 7.57217 10.9872 7.64836 11.0634C7.72455 11.1396 7.82788 11.1824 7.93562 11.1824C8.04337 11.1824 8.1467 11.1396 8.22288 11.0634C8.29907 10.9872 8.34187 10.8839 8.34187 10.7762C8.34187 9.52188 7.82898 8.4707 6.85906 7.73438C6.33093 7.3332 5.74187 7.08438 5.27468 6.93203C5.61093 6.38783 5.88355 5.80681 6.08718 5.20039C7.39734 6.10938 8.43328 6.33281 9.13406 6.33281C9.83484 6.33281 10.1243 6.15508 10.1548 6.13477C10.2199 6.10209 10.2747 6.05209 10.3132 5.99027C10.3517 5.92845 10.3725 5.85721 10.3731 5.78438Z" fill="white"/>
</svg>
