<svg width="10" height="11" viewBox="0 0 10 11" fill="none" xmlns="http://www.w3.org/2000/svg">
<path fill-rule="evenodd" clip-rule="evenodd" d="M3.87582 9.67473C3.87582 9.67473 4.37779 9.95719 4.8496 10.1244C4.8496 10.1244 5.09375 10.2181 5.33789 10.1244C5.33789 10.1244 5.80971 9.95719 6.31168 9.67473C6.31168 9.67473 7.11864 9.22064 7.7594 8.59165C7.7594 8.59165 9.66406 6.72198 9.66406 3.82461V0.84375C9.66406 0.84375 9.66406 0.507201 9.44096 0.269226C9.44096 0.269226 9.21786 0.03125 8.90234 0.03125H1.28516C1.28516 0.03125 0.969642 0.03125 0.74654 0.269226C0.74654 0.269226 0.523438 0.507202 0.523438 0.84375V3.82461C0.523438 3.82461 0.523438 6.72198 2.4281 8.59165C2.4281 8.59165 3.06886 9.22064 3.87582 9.67473ZM5.95627 8.95609C5.95627 8.95609 5.50773 9.20849 5.09375 9.35472C5.09375 9.35472 4.67977 9.20849 4.23123 8.95609C4.23123 8.95609 3.51183 8.55128 2.94391 7.99379C2.94391 7.99379 1.28516 6.36551 1.28516 3.82461V0.84375H8.90234V3.82461C8.90234 3.82461 8.90234 6.36551 7.24359 7.99379C7.24359 7.99379 6.67567 8.55128 5.95627 8.95609Z" fill="white"/>
<path d="M3.26215 4.40942C3.19129 4.33719 3.09704 4.29688 2.99902 4.29688C2.99894 4.29688 2.99038 4.29698 2.99038 4.29698C2.8894 4.29942 2.79346 4.34456 2.72368 4.42245C2.65596 4.49804 2.61816 4.59857 2.61816 4.70312L2.61826 4.71234C2.62055 4.82006 2.66287 4.92239 2.73589 4.99683L4.13079 6.4187C4.27791 6.56867 4.50957 6.56878 4.65682 6.41894L7.45128 3.57529C7.52436 3.50092 7.56685 3.39852 7.56923 3.29081C7.56937 3.2843 7.56937 3.2778 7.56922 3.27129C7.5669 3.17033 7.52941 3.0739 7.46405 3.00083C7.39218 2.92047 7.2926 2.875 7.18848 2.875L7.17773 2.87516C7.08357 2.878 6.99374 2.91795 6.92558 2.98731L4.39415 5.56331L3.26215 4.40942Z" fill="white"/>
</svg>
