<svg width="13" height="13" viewBox="0 0 13 13" fill="none" xmlns="http://www.w3.org/2000/svg">
<path fill-rule="evenodd" clip-rule="evenodd" d="M0 3.25C0 3.25 0 2.80127 0.292893 2.48397C0.292893 2.48397 0.585786 2.16667 1 2.16667H12C12 2.16667 12.4142 2.16667 12.7071 2.48397C12.7071 2.48397 13 2.80127 13 3.25V11.9167C13 11.9167 13 12.3654 12.7071 12.6827C12.7071 12.6827 12.4142 13 12 13H1C1 13 0.585785 13 0.292893 12.6827C0.292893 12.6827 0 12.3654 0 11.9167V3.25ZM1 3.25V11.9167H12V3.25H1Z" fill="white"/>
<path d="M3.93934 0.475951C3.5 0.951903 3.5 1.625 3.5 1.625V2.70833C3.5 3.00749 3.72386 3.25 4 3.25C4.27614 3.25 4.5 3.00749 4.5 2.70833V1.625C4.5 1.40063 4.64645 1.24198 4.64645 1.24198C4.79289 1.08333 5 1.08333 5 1.08333H8C8.20711 1.08333 8.35355 1.24198 8.35355 1.24198C8.5 1.40063 8.5 1.625 8.5 1.625V2.70833C8.5 3.00749 8.72386 3.25 9 3.25C9.27614 3.25 9.5 3.00749 9.5 2.70833V1.625C9.5 0.951904 9.06066 0.475952 9.06066 0.475952C8.62132 0 8 0 8 0H5C4.37868 0 3.93934 0.475951 3.93934 0.475951Z" fill="white"/>
<path d="M0.5 9.20833H12.5C12.7761 9.20833 13 8.96582 13 8.66667C13 8.36751 12.7761 8.125 12.5 8.125H0.5C0.223858 8.125 0 8.36751 0 8.66667C0 8.96582 0.223858 9.20833 0.5 9.20833Z" fill="white"/>
</svg>
