<svg width="13" height="10" viewBox="0 0 13 10" fill="none" xmlns="http://www.w3.org/2000/svg">
<path d="M3.55875 2.70933C3.52536 2.66777 3.48392 2.63337 3.43691 2.6082C3.3899 2.58304 3.3383 2.56762 3.28519 2.56288C3.23208 2.55814 3.17856 2.56417 3.12784 2.58061C3.07711 2.59705 3.03023 2.62356 2.99 2.65855L0.552502 4.6898C0.50677 4.72744 0.469938 4.77473 0.444651 4.82829C0.419364 4.88185 0.40625 4.94034 0.40625 4.99957C0.40625 5.0588 0.419364 5.11729 0.444651 5.17085C0.469938 5.2244 0.50677 5.2717 0.552502 5.30933L2.99 7.34058C3.03023 7.37558 3.07711 7.40209 3.12784 7.41853C3.17856 7.43497 3.23208 7.441 3.28519 7.43626C3.3383 7.43152 3.3899 7.4161 3.43691 7.39093C3.48392 7.36577 3.52536 7.33137 3.55875 7.2898C3.59375 7.24957 3.62026 7.20269 3.6367 7.15197C3.65314 7.10125 3.65917 7.04773 3.65443 6.99462C3.64968 6.94151 3.63427 6.8899 3.6091 6.8429C3.58394 6.79589 3.54954 6.75445 3.50797 6.72105L1.44625 4.99957L3.50797 3.27808C3.54954 3.24469 3.58394 3.20325 3.6091 3.15624C3.63427 3.10923 3.64968 3.05763 3.65443 3.00452C3.65917 2.95141 3.65314 2.89789 3.6367 2.84717C3.62026 2.79645 3.59375 2.74956 3.55875 2.70933Z" fill="white"/>
<path d="M12.4455 4.68981L10.008 2.65856C9.92465 2.60329 9.82388 2.58069 9.72495 2.59507C9.62601 2.60945 9.53585 2.65981 9.47172 2.73652C9.40759 2.81322 9.374 2.91087 9.37737 3.0108C9.38074 3.11072 9.42084 3.20589 9.49 3.27809L11.5517 4.99958L9.49 6.72106C9.42682 6.77466 9.38153 6.8463 9.36023 6.92637C9.33892 7.00644 9.3426 7.09111 9.37079 7.16902C9.39897 7.24694 9.4503 7.31437 9.5179 7.36229C9.5855 7.4102 9.66613 7.43629 9.74898 7.43708C9.84418 7.43751 9.93626 7.40321 10.008 7.34059L12.4455 5.30934C12.4912 5.27171 12.528 5.22441 12.5533 5.17085C12.5786 5.11729 12.5917 5.0588 12.5917 4.99958C12.5917 4.94035 12.5786 4.88186 12.5533 4.8283C12.528 4.77474 12.4912 4.72745 12.4455 4.68981Z" fill="white"/>
<path d="M8.2611 0.14996C8.21112 0.131455 8.15795 0.123094 8.10471 0.125364C8.05146 0.127635 7.9992 0.140492 7.95098 0.163184C7.90276 0.185877 7.85954 0.21795 7.82386 0.25753C7.78817 0.297111 7.76072 0.343405 7.74313 0.39371L4.49313 9.33121C4.47462 9.38119 4.46626 9.43435 4.46853 9.4876C4.4708 9.54084 4.48366 9.5931 4.50635 9.64132C4.52904 9.68954 4.56112 9.73276 4.6007 9.76845C4.64028 9.80414 4.68657 9.83158 4.73688 9.84918C4.78093 9.86493 4.82722 9.8735 4.87399 9.87457C4.9576 9.87499 5.03926 9.84928 5.10754 9.80103C5.17583 9.75277 5.22733 9.68439 5.25485 9.60543L8.50485 0.667929C8.52335 0.617951 8.53171 0.564786 8.52944 0.511541C8.52717 0.458295 8.51431 0.406036 8.49162 0.357815C8.46893 0.309593 8.43686 0.266377 8.39728 0.230689C8.3577 0.195001 8.3114 0.167557 8.2611 0.14996Z" fill="white"/>
</svg>
