<svg width="13" height="14" viewBox="0 0 13 14" fill="none" xmlns="http://www.w3.org/2000/svg">
<path d="M12.5582 9.12255L10.8316 3.37412C10.7985 3.25785 10.7391 3.15073 10.6581 3.06094C10.5772 2.97116 10.4767 2.90111 10.3645 2.85615H10.334L10.3645 2.84599C9.79793 2.619 9.21139 2.44558 8.61251 2.32802C8.56016 2.31768 8.50628 2.31774 8.45396 2.32822C8.40163 2.3387 8.35189 2.35939 8.30756 2.3891C8.26323 2.4188 8.22519 2.45696 8.19561 2.50137C8.16603 2.54578 8.14549 2.59559 8.13516 2.64794C8.12406 2.69999 8.12341 2.75373 8.13328 2.80602C8.14314 2.85832 8.16331 2.90813 8.19261 2.95256C8.22191 2.99698 8.25976 3.03513 8.30395 3.06479C8.34814 3.09444 8.39779 3.11501 8.45001 3.12529C8.67852 3.17099 8.90196 3.22685 9.12032 3.28779C9.20075 3.32954 9.26491 3.39697 9.3026 3.47938C9.34029 3.56178 9.34935 3.65443 9.32834 3.74257C9.30732 3.83072 9.25744 3.90931 9.18662 3.96584C9.1158 4.02238 9.02812 4.05362 8.93751 4.05459H8.89688C8.11433 3.8505 7.30874 3.74809 6.50001 3.7499C5.71028 3.74754 4.92352 3.84653 4.15899 4.04443C4.06171 4.0701 3.95835 4.05875 3.86896 4.01259C3.77956 3.96643 3.71047 3.88873 3.67507 3.79455C3.63967 3.70036 3.64048 3.5964 3.67735 3.50278C3.71421 3.40916 3.78451 3.33255 3.87462 3.28779H3.87969C4.09805 3.22685 4.32149 3.17099 4.55001 3.12529C4.60236 3.11496 4.65217 3.09442 4.69658 3.06484C4.741 3.03526 4.77915 2.99722 4.80886 2.95289C4.83857 2.90857 4.85925 2.85882 4.86973 2.80649C4.88021 2.75417 4.88028 2.70029 4.86993 2.64794C4.84786 2.54287 4.78558 2.45058 4.69639 2.39081C4.60719 2.33103 4.49817 2.3085 4.39258 2.32802C3.79155 2.44821 3.20325 2.62504 2.63555 2.85615C2.52332 2.90111 2.42286 2.97116 2.34188 3.06094C2.2609 3.15073 2.20155 3.25785 2.16837 3.37412L0.441804 9.12255C0.397013 9.27285 0.396673 9.43289 0.440826 9.58337C0.484979 9.73385 0.571737 9.86834 0.690632 9.9706C0.737346 10.0156 0.78651 10.058 0.837897 10.0976H0.842975C1.66563 10.7679 2.74727 11.2808 3.96602 11.5753C3.99721 11.5853 4.02975 11.5904 4.06251 11.5905C4.16295 11.5921 4.26042 11.5564 4.3361 11.4904C4.41178 11.4243 4.46029 11.3326 4.47229 11.2328C4.48428 11.1331 4.4589 11.0324 4.40104 10.9503C4.34318 10.8682 4.25695 10.8104 4.15899 10.7882C3.61109 10.6558 3.07841 10.4669 2.56954 10.2245C2.49989 10.1592 2.45544 10.0715 2.44399 9.97679C2.43255 9.88203 2.45483 9.78627 2.50693 9.7063C2.55903 9.62633 2.63763 9.56725 2.72893 9.53944C2.82024 9.51163 2.91842 9.51685 3.00626 9.5542C3.9711 9.98076 5.18477 10.2499 6.50001 10.2499C7.81524 10.2499 9.02891 9.98076 9.99376 9.5542C10.0816 9.51685 10.1798 9.51163 10.2711 9.53944C10.3624 9.56725 10.441 9.62633 10.4931 9.7063C10.5452 9.78627 10.5675 9.88203 10.556 9.97679C10.5446 10.0715 10.5001 10.1592 10.4305 10.2245C9.9216 10.4669 9.38893 10.6558 8.84102 10.7882C8.74307 10.8104 8.65683 10.8682 8.59898 10.9503C8.54111 11.0324 8.51573 11.1331 8.52773 11.2328C8.53972 11.3326 8.58824 11.4243 8.66392 11.4904C8.73959 11.5564 8.83707 11.5921 8.93751 11.5905C8.97026 11.5904 9.0028 11.5853 9.03399 11.5753C10.2527 11.2808 11.3344 10.7679 12.157 10.0976H12.1621C12.2135 10.058 12.2627 10.0156 12.3094 9.9706C12.4283 9.86834 12.515 9.73385 12.5592 9.58337C12.6033 9.43289 12.603 9.27285 12.5582 9.12255ZM4.87501 8.42177C4.75448 8.42177 4.63667 8.38603 4.53646 8.31907C4.43624 8.25212 4.35814 8.15694 4.31202 8.0456C4.2659 7.93425 4.25383 7.81172 4.27734 7.69351C4.30085 7.57531 4.35889 7.46673 4.44411 7.38151C4.52934 7.29628 4.63792 7.23824 4.75612 7.21473C4.87433 7.19122 4.99686 7.20329 5.1082 7.24941C5.21955 7.29553 5.31472 7.37364 5.38168 7.47385C5.44864 7.57406 5.48438 7.69187 5.48438 7.8124C5.48438 7.97401 5.42018 8.12901 5.3059 8.24329C5.19162 8.35757 5.03662 8.42177 4.87501 8.42177ZM8.12501 8.42177C8.00448 8.42177 7.88667 8.38603 7.78646 8.31907C7.68624 8.25212 7.60814 8.15694 7.56202 8.0456C7.5159 7.93425 7.50383 7.81172 7.52734 7.69351C7.55085 7.57531 7.60889 7.46673 7.69411 7.38151C7.77934 7.29628 7.88792 7.23824 8.00612 7.21473C8.12433 7.19122 8.24685 7.20329 8.3582 7.24941C8.46955 7.29553 8.56472 7.37364 8.63168 7.47385C8.69864 7.57406 8.73438 7.69187 8.73438 7.8124C8.73438 7.97401 8.67018 8.12901 8.5559 8.24329C8.44162 8.35757 8.28662 8.42177 8.12501 8.42177Z" fill="white"/>
</svg>
