<svg width="11" height="11" viewBox="0 0 11 11" fill="none" xmlns="http://www.w3.org/2000/svg">
<path d="M10.375 2.45312C10.375 2.10898 10.2779 1.77183 10.0948 1.48044C9.91165 1.18906 9.65001 0.955272 9.33994 0.805979C9.02987 0.656687 8.68395 0.597948 8.34198 0.63652C8.00001 0.675092 7.67587 0.809407 7.40684 1.02402C7.13781 1.23863 6.93483 1.52482 6.82123 1.84967C6.70763 2.17452 6.68803 2.52484 6.76468 2.86033C6.84134 3.19583 7.01114 3.50287 7.25455 3.74615C7.49796 3.98943 7.80509 4.15906 8.14063 4.23554V4.28124C8.14063 4.49673 8.05503 4.70339 7.90265 4.85577C7.75028 5.00814 7.54362 5.09374 7.32813 5.09374H3.67188C3.38664 5.09442 3.10653 5.16969 2.85938 5.3121V4.23554C3.2976 4.13566 3.68366 3.87785 3.94383 3.51135C4.204 3.14485 4.32005 2.69536 4.26979 2.24872C4.21954 1.80208 4.00651 1.38961 3.6714 1.09009C3.33629 0.790574 2.90258 0.625001 2.45313 0.625001C2.00367 0.625001 1.56997 0.790574 1.23486 1.09009C0.89975 1.38961 0.686722 1.80208 0.636468 2.24872C0.586213 2.69536 0.702254 3.14485 0.962425 3.51135C1.2226 3.87785 1.60866 4.13566 2.04688 4.23554V6.76445C1.60866 6.86433 1.2226 7.12214 0.962425 7.48864C0.702254 7.85513 0.586213 8.30463 0.636468 8.75127C0.686722 9.1979 0.89975 9.61038 1.23486 9.9099C1.56997 10.2094 2.00367 10.375 2.45313 10.375C2.90258 10.375 3.33629 10.2094 3.6714 9.9099C4.00651 9.61038 4.21954 9.1979 4.26979 8.75127C4.32005 8.30463 4.204 7.85513 3.94383 7.48864C3.68366 7.12214 3.2976 6.86433 2.85938 6.76445V6.71874C2.85938 6.50326 2.94498 6.29659 3.09736 6.14422C3.24973 5.99185 3.45639 5.90624 3.67188 5.90624H7.32813C7.75869 5.9049 8.17124 5.73327 8.4757 5.42881C8.78016 5.12436 8.95179 4.71181 8.95313 4.28124V4.23554C9.35658 4.14265 9.71671 3.91592 9.97489 3.59228C10.2331 3.26863 10.3741 2.86713 10.375 2.45312ZM1.4375 2.45312C1.4375 2.25225 1.49707 2.05589 1.60867 1.88887C1.72027 1.72185 1.87889 1.59167 2.06447 1.5148C2.25005 1.43793 2.45426 1.41782 2.65127 1.45701C2.84828 1.4962 3.02925 1.59293 3.17128 1.73496C3.31332 1.877 3.41005 2.05797 3.44924 2.25498C3.48843 2.45199 3.46831 2.6562 3.39144 2.84178C3.31457 3.02736 3.1844 3.18598 3.01738 3.29758C2.85036 3.40918 2.654 3.46874 2.45313 3.46874C2.18418 3.46741 1.92663 3.35998 1.73645 3.1698C1.54627 2.97962 1.43884 2.72207 1.4375 2.45312ZM3.46875 8.54687C3.46875 8.74774 3.40919 8.9441 3.29759 9.11112C3.18599 9.27814 3.02737 9.40831 2.84179 9.48518C2.65621 9.56205 2.452 9.58217 2.25499 9.54298C2.05798 9.50379 1.87701 9.40706 1.73497 9.26502C1.59294 9.12299 1.49621 8.94202 1.45702 8.74501C1.41783 8.548 1.43794 8.34379 1.51481 8.15821C1.59168 7.97262 1.72186 7.81401 1.88888 7.70241C2.0559 7.59081 2.25226 7.53124 2.45313 7.53124C2.72208 7.53258 2.97963 7.64001 3.16981 7.83019C3.35999 8.02037 3.46742 8.27792 3.46875 8.54687Z" fill="white"/>
</svg>
