<svg width="11" height="12" viewBox="0 0 11 12" fill="none" xmlns="http://www.w3.org/2000/svg">
<path d="M4.89062 9.96875V7.53125C4.89062 7.30688 4.70874 7.125 4.48438 7.125C4.26001 7.125 4.07812 7.30688 4.07812 7.53125V9.96875C4.07881 10.1319 4.01732 10.2813 4.01732 10.2813C3.95584 10.4306 3.84165 10.5448 3.84165 10.5448C3.72746 10.659 3.57814 10.7204 3.57814 10.7204C3.42881 10.7819 3.26733 10.7813 3.26733 10.7813L3.26562 10.7812C3.2414 10.7812 3.21722 10.7834 3.19338 10.7877L2.85938 11.1858C2.85935 11.1923 2.85948 11.1988 2.85977 11.2053C2.86419 11.3062 2.90605 11.4018 2.97716 11.4736C3.05303 11.5501 3.15618 11.5933 3.26392 11.5937L3.26562 11.5938C3.58869 11.5948 3.88749 11.4717 3.88749 11.4717C4.18708 11.3484 4.41617 11.1193 4.41617 11.1193C4.64527 10.8902 4.76862 10.5906 4.76862 10.5906C4.89198 10.291 4.89062 9.96875 4.89062 9.96875Z" fill="white"/>
<path d="M6.92189 9.96875V7.53125C6.92189 7.30688 6.74001 7.125 6.51564 7.125C6.29127 7.125 6.10939 7.30688 6.10939 7.53125V9.96875C6.10803 10.291 6.23139 10.5906 6.23139 10.5906C6.35475 10.8902 6.58384 11.1193 6.58384 11.1193C6.81294 11.3484 7.11252 11.4717 7.11252 11.4717C7.41132 11.5948 7.73439 11.5938 7.73439 11.5938L7.73609 11.5937C7.95979 11.5928 8.14064 11.4112 8.14064 11.1875L8.14064 11.1861C8.1397 10.9624 7.95809 10.7812 7.73439 10.7812L7.73297 10.7813C7.57148 10.7819 7.42188 10.7204 7.42188 10.7204C7.27256 10.659 7.15837 10.5448 7.15837 10.5448C7.04418 10.4306 6.98269 10.2813 6.98269 10.2813C6.92121 10.1319 6.92189 9.96875 6.92189 9.96875Z" fill="white"/>
<path d="M9.97015 10.7813C10.0779 10.7808 10.1813 10.7376 10.2572 10.6611C10.3327 10.585 10.375 10.4822 10.375 10.375L10.375 10.3738L10.375 10.3733C10.3741 10.1496 10.1925 9.96876 9.96875 9.96876L9.96733 9.96876C9.80584 9.96944 9.65624 9.90796 9.65624 9.90796C9.50692 9.84647 9.39273 9.73228 9.39273 9.73228C9.27854 9.6181 9.21705 9.46877 9.21705 9.46877C9.15557 9.31945 9.15625 9.15796 9.15625 9.15796L9.15625 8.75001C9.15761 8.42773 9.03425 8.12814 9.03425 8.12814C8.91089 7.82856 8.6818 7.59946 8.6818 7.59946C8.4527 7.37037 8.15312 7.24701 8.15312 7.24701C7.85353 7.12366 7.52955 7.12501 7.52955 7.12501L6.71875 7.12501C6.49438 7.12501 6.3125 7.3069 6.3125 7.53126C6.3125 7.75563 6.49438 7.93751 6.71875 7.93751L7.53295 7.93751C7.69444 7.93683 7.84376 7.99832 7.84376 7.99832C7.99308 8.0598 8.10727 8.17399 8.10727 8.17399C8.22146 8.28818 8.28295 8.4375 8.28295 8.4375C8.34443 8.58682 8.34375 8.75001 8.34375 8.75001L8.34375 9.15456C8.3424 9.47854 8.46575 9.77813 8.46575 9.77813C8.58911 10.0777 8.8182 10.3068 8.8182 10.3068C9.0473 10.5359 9.34688 10.6593 9.34688 10.6593C9.64568 10.7823 9.96875 10.7813 9.96875 10.7813L9.96966 10.7813L9.97015 10.7813Z" fill="white"/>
<path d="M1.34376 9.90796C1.19444 9.96944 1.03295 9.96876 1.03295 9.96876L1.03125 9.96876C1.00702 9.96876 0.982844 9.97093 0.959003 9.97524L0.625004 10.3733C0.624976 10.3798 0.625105 10.3863 0.625391 10.3928C0.629819 10.4937 0.671672 10.5894 0.742786 10.6611C0.818653 10.7376 0.921804 10.7808 1.02955 10.7813L1.03125 10.7813C1.35432 10.7823 1.65312 10.6593 1.65312 10.6593C1.9527 10.5359 2.1818 10.3068 2.1818 10.3068C2.41089 10.0777 2.53425 9.77813 2.53425 9.77813C2.6576 9.47854 2.65625 9.15456 2.65625 9.15456L2.65625 8.75001C2.65557 8.58682 2.71705 8.4375 2.71705 8.4375C2.77854 8.28818 2.89273 8.17399 2.89273 8.17399C3.00692 8.0598 3.15624 7.99832 3.15624 7.99832C3.30556 7.93683 3.46705 7.93751 3.46705 7.93751L4.28125 7.93751C4.50562 7.93751 4.6875 7.75563 4.6875 7.53126C4.6875 7.3069 4.50562 7.12501 4.28125 7.12501L3.47045 7.12501C3.14647 7.12366 2.84688 7.24701 2.84688 7.24701C2.5473 7.37037 2.3182 7.59946 2.3182 7.59946C2.08911 7.82856 1.96575 8.12814 1.96575 8.12814C1.8424 8.42773 1.84375 8.75001 1.84375 8.75001L1.84375 9.15796C1.84443 9.31945 1.78295 9.46877 1.78295 9.46877C1.72146 9.6181 1.60727 9.73228 1.60727 9.73228C1.49308 9.84647 1.34376 9.90796 1.34376 9.90796Z" fill="white"/>
<path fill-rule="evenodd" clip-rule="evenodd" d="M7.08365 0.999839C7.08365 0.999839 6.50082 1.3192 6.1098 1.84375H4.8902C4.8902 1.84375 4.49918 1.3192 3.91635 0.999839C3.91635 0.999839 3.23275 0.625267 2.45326 0.625C2.30812 0.62495 2.17397 0.702345 2.10136 0.828027C2.10136 0.828027 1.75593 1.42594 1.70203 2.11436C1.70203 2.11436 1.65633 2.69796 1.82772 3.24993C1.82772 3.24993 1.44343 3.90826 1.43751 4.6844L1.4375 5.09375C1.4375 5.09375 1.4375 6.27167 2.27042 7.10459C2.27042 7.10459 3.10333 7.93751 4.28125 7.93751H6.71875C6.71875 7.93751 7.89667 7.9375 8.72959 7.10458C8.72959 7.10458 9.5625 6.27167 9.5625 5.09375V4.6875C9.5625 4.6875 9.55657 3.90862 9.17227 3.24996C9.17227 3.24996 9.34367 2.69798 9.29797 2.11436C9.29797 2.11436 9.24407 1.42594 8.89864 0.828027C8.82603 0.702345 8.69188 0.62495 8.54674 0.625C8.54674 0.625 7.76724 0.625267 7.08365 0.999839ZM6.32266 2.65625H4.67734C4.53872 2.65625 4.40966 2.58556 4.33502 2.46875C4.33502 2.46875 4.02722 1.98707 3.52592 1.71238C3.52592 1.71238 3.13214 1.49661 2.69497 1.45021C2.69497 1.45021 2.54203 1.79491 2.51205 2.17778C2.51205 2.17778 2.47252 2.68262 2.6545 3.15518C2.70233 3.27936 2.68629 3.4191 2.61159 3.52923C2.61159 3.52923 2.25484 4.05513 2.24999 4.6906L2.25 5.09375C2.25 5.09375 2.25 5.93512 2.84494 6.53006C2.84494 6.53006 3.43988 7.12501 4.28125 7.12501H6.71875C6.71875 7.12501 7.56012 7.125 8.15506 6.53006C8.15506 6.53006 8.75 5.93512 8.75 5.09375V4.6875C8.75 4.6875 8.74516 4.05513 8.38841 3.52923C8.31371 3.4191 8.29767 3.27936 8.3455 3.15518C8.3455 3.15518 8.52748 2.68262 8.48795 2.17778C8.48795 2.17778 8.45797 1.79491 8.30503 1.45021C8.30503 1.45021 7.86786 1.49661 7.47408 1.71238C7.47408 1.71238 6.97278 1.98707 6.66498 2.46875C6.59034 2.58556 6.46128 2.65625 6.32266 2.65625Z" fill="white"/>
</svg>
