<svg width="11" height="12" viewBox="0 0 11 12" fill="none" xmlns="http://www.w3.org/2000/svg">
<path fill-rule="evenodd" clip-rule="evenodd" d="M3.67214 5.28104C3.67214 5.28104 4.2611 5.28104 4.67756 5.6975C4.67756 5.6975 5.09402 6.11396 5.09402 6.70292C5.09402 6.70292 5.09402 7.29188 4.67756 7.70834C4.67756 7.70834 4.2611 8.12479 3.67214 8.12479C3.67214 8.12479 3.08318 8.12479 2.66672 7.70834C2.66672 7.70834 2.25027 7.29188 2.25027 6.70292C2.25027 6.70292 2.25027 6.11396 2.66672 5.6975C2.66672 5.6975 3.08318 5.28104 3.67214 5.28104ZM3.67214 6.09354C3.67214 6.09354 3.41973 6.09354 3.24125 6.27203C3.24125 6.27203 3.06277 6.45051 3.06277 6.70292C3.06277 6.70292 3.06277 6.95533 3.24125 7.13381C3.24125 7.13381 3.41973 7.31229 3.67214 7.31229C3.67214 7.31229 3.92455 7.31229 4.10303 7.13381C4.10303 7.13381 4.28152 6.95533 4.28152 6.70292C4.28152 6.70292 4.28152 6.45051 4.10303 6.27203C4.10303 6.27203 3.92455 6.09354 3.67214 6.09354Z" fill="white"/>
<path fill-rule="evenodd" clip-rule="evenodd" d="M7.32839 5.28104C7.32839 5.28104 7.91735 5.28104 8.33381 5.6975C8.33381 5.6975 8.75027 6.11396 8.75027 6.70292C8.75027 6.70292 8.75027 7.29188 8.33381 7.70834C8.33381 7.70834 7.91735 8.12479 7.32839 8.12479C7.32839 8.12479 6.73943 8.12479 6.32297 7.70834C6.32297 7.70834 5.90652 7.29188 5.90652 6.70292C5.90652 6.70292 5.90652 6.11396 6.32297 5.6975C6.32297 5.6975 6.73943 5.28104 7.32839 5.28104ZM7.32839 6.09354C7.32839 6.09354 7.07598 6.09354 6.8975 6.27203C6.8975 6.27203 6.71902 6.45051 6.71902 6.70292C6.71902 6.70292 6.71902 6.95533 6.8975 7.13381C6.8975 7.13381 7.07598 7.31229 7.32839 7.31229C7.32839 7.31229 7.5808 7.31229 7.75928 7.13381C7.75928 7.13381 7.93777 6.95533 7.93777 6.70292C7.93777 6.70292 7.93777 6.45051 7.75928 6.27203C7.75928 6.27203 7.5808 6.09354 7.32839 6.09354Z" fill="white"/>
<path fill-rule="evenodd" clip-rule="evenodd" d="M2.65652 10.9685V10.0989C2.65652 10.0989 1.35309 9.22513 0.772679 7.7451C0.772679 7.7451 0.149864 6.15695 0.612186 4.51488C0.612186 4.51488 1.07451 2.87281 2.43443 1.8429C2.43443 1.8429 3.79436 0.812988 5.50027 0.812988C5.50027 0.812988 7.20618 0.812988 8.5661 1.8429C8.5661 1.8429 9.92603 2.87282 10.3883 4.51488C10.3883 4.51488 10.8507 6.15695 10.2279 7.7451C10.2279 7.7451 9.64745 9.22513 8.34402 10.0989V10.9685C8.34402 10.9685 8.34402 11.3051 8.10604 11.543C8.10604 11.543 7.86807 11.781 7.53152 11.781H3.46902C3.46902 11.781 3.13247 11.781 2.89449 11.543C2.89449 11.543 2.65652 11.3051 2.65652 10.9685ZM7.53152 10.9685V9.87671C7.53152 9.73524 7.60512 9.60395 7.72581 9.53014C7.72581 9.53014 8.94828 8.7825 9.47144 7.44846C9.47144 7.44846 9.99461 6.11441 9.60626 4.73508C9.60626 4.73508 9.21791 3.35574 8.07557 2.49062C8.07557 2.49062 6.93323 1.62549 5.50027 1.62549C5.50027 1.62549 4.06731 1.62549 2.92497 2.49062C2.92497 2.49062 1.78263 3.35574 1.39428 4.73508C1.39428 4.73508 1.00593 6.11441 1.52909 7.44846C1.52909 7.44846 2.05226 8.78251 3.27472 9.53014C3.39542 9.60395 3.46902 9.73524 3.46902 9.87671V10.9685H7.53152Z" fill="white"/>
<path d="M5.09402 11.3748V9.74979C5.09402 9.52543 4.91213 9.34354 4.68777 9.34354C4.4634 9.34354 4.28152 9.52543 4.28152 9.74979V11.3748C4.28152 11.5992 4.4634 11.781 4.68777 11.781C4.91213 11.781 5.09402 11.5992 5.09402 11.3748Z" fill="white"/>
<path d="M6.71902 11.3748V9.74979C6.71902 9.52543 6.53713 9.34354 6.31277 9.34354C6.0884 9.34354 5.90652 9.52543 5.90652 9.74979V11.3748C5.90652 11.5992 6.0884 11.781 6.31277 11.781C6.53713 11.781 6.71902 11.5992 6.71902 11.3748Z" fill="white"/>
</svg>
