<svg width="9" height="13" viewBox="0 0 9 13" fill="none" xmlns="http://www.w3.org/2000/svg">
<path d="M0.84375 12.1875H8.15625C8.38062 12.1875 8.5625 12.0056 8.5625 11.7812C8.5625 11.5569 8.38062 11.375 8.15625 11.375H0.84375C0.619384 11.375 0.4375 11.5569 0.4375 11.7812C0.4375 12.0056 0.619384 12.1875 0.84375 12.1875Z" fill="white"/>
<path fill-rule="evenodd" clip-rule="evenodd" d="M4.5 3.25C4.5 3.25 5.34137 3.25 5.93631 3.84494C5.93631 3.84494 6.53125 4.43988 6.53125 5.28125C6.53125 5.28125 6.53125 6.12262 5.93631 6.71756C5.93631 6.71756 5.34137 7.3125 4.5 7.3125C4.5 7.3125 3.65863 7.3125 3.06369 6.71756C3.06369 6.71756 2.46875 6.12262 2.46875 5.28125C2.46875 5.28125 2.46875 4.43988 3.06369 3.84494C3.06369 3.84494 3.65863 3.25 4.5 3.25ZM4.5 4.0625C4.5 4.0625 3.99518 4.0625 3.63821 4.41946C3.63821 4.41946 3.28125 4.77643 3.28125 5.28125C3.28125 5.28125 3.28125 5.78607 3.63821 6.14304C3.63821 6.14304 3.99518 6.5 4.5 6.5C4.5 6.5 5.00482 6.5 5.36179 6.14304C5.36179 6.14304 5.71875 5.78607 5.71875 5.28125C5.71875 5.28125 5.71875 4.77643 5.36179 4.41946C5.36179 4.41946 5.00482 4.0625 4.5 4.0625Z" fill="white"/>
<path fill-rule="evenodd" clip-rule="evenodd" d="M8.62859 3.57113C8.62859 3.57113 8.96875 4.39236 8.96875 5.28125C8.96875 5.28125 8.96875 7.71833 6.83781 10.1689C6.83781 10.1689 6.18294 10.922 5.39787 11.5893C5.39787 11.5893 5.00249 11.9254 4.73297 12.1141C4.59309 12.212 4.40691 12.212 4.26703 12.1141C4.26703 12.1141 3.99751 11.9254 3.60213 11.5893C3.60213 11.5893 2.81706 10.922 2.16219 10.1689C2.16219 10.1689 0.03125 7.71833 0.03125 5.28125C0.03125 5.28125 0.03125 4.39236 0.371413 3.57113C0.371413 3.57113 0.711577 2.74991 1.34012 2.12137C1.34012 2.12137 1.96866 1.49283 2.78988 1.15266C2.78988 1.15266 3.61111 0.8125 4.5 0.8125C4.5 0.8125 5.38889 0.8125 6.21012 1.15266C6.21012 1.15266 7.03134 1.49283 7.65988 2.12137C7.65988 2.12137 8.28842 2.74991 8.62859 3.57113ZM8.15625 5.28125C8.15625 5.28125 8.15625 4.55398 7.87793 3.88206C7.87793 3.88206 7.59962 3.21015 7.08536 2.69589C7.08536 2.69589 6.5711 2.18163 5.89919 1.90332C5.89919 1.90332 5.22727 1.625 4.5 1.625C4.5 1.625 3.77273 1.625 3.10081 1.90332C3.10081 1.90332 2.4289 2.18163 1.91464 2.69589C1.91464 2.69589 1.40038 3.21015 1.12207 3.88206C1.12207 3.88206 0.84375 4.55398 0.84375 5.28125C0.84375 5.28125 0.84375 7.41448 2.77531 9.63577C2.77531 9.63577 3.38997 10.3426 4.12834 10.9702C4.12834 10.9702 4.33444 11.1454 4.5 11.2748C4.5 11.2748 4.66556 11.1454 4.87166 10.9702C4.87166 10.9702 5.61003 10.3426 6.22469 9.63577C6.22469 9.63577 8.15625 7.41448 8.15625 5.28125Z" fill="white"/>
</svg>
