<svg width="13" height="9" viewBox="0 0 13 9" fill="none" xmlns="http://www.w3.org/2000/svg">
<path fill-rule="evenodd" clip-rule="evenodd" d="M0.40625 1.65625C0.40625 1.65625 0.40625 1.3197 0.644226 1.08173C0.644226 1.08173 0.882201 0.84375 1.21875 0.84375H11.7812C11.7812 0.84375 12.1178 0.84375 12.3558 1.08173C12.3558 1.08173 12.5938 1.3197 12.5938 1.65625V7.34375C12.5938 7.34375 12.5938 7.6803 12.3558 7.91827C12.3558 7.91827 12.1178 8.15625 11.7812 8.15625H1.21875C1.21875 8.15625 0.882201 8.15625 0.644225 7.91827C0.644225 7.91827 0.40625 7.6803 0.40625 7.34375V1.65625ZM1.21875 1.65625V7.34375L11.7812 7.34375V1.65625H1.21875Z" fill="white"/>
<path fill-rule="evenodd" clip-rule="evenodd" d="M6.5 2.46875C6.5 2.46875 7.34137 2.46875 7.93631 3.06369C7.93631 3.06369 8.53125 3.65863 8.53125 4.5C8.53125 4.5 8.53125 5.34137 7.93631 5.93631C7.93631 5.93631 7.34137 6.53125 6.5 6.53125C6.5 6.53125 5.65863 6.53125 5.06369 5.93631C5.06369 5.93631 4.46875 5.34137 4.46875 4.5C4.46875 4.5 4.46875 3.65863 5.06369 3.06369C5.06369 3.06369 5.65863 2.46875 6.5 2.46875ZM6.5 3.28125C6.5 3.28125 5.99518 3.28125 5.63821 3.63821C5.63821 3.63821 5.28125 3.99518 5.28125 4.5C5.28125 4.5 5.28125 5.00482 5.63821 5.36179C5.63821 5.36179 5.99518 5.71875 6.5 5.71875C6.5 5.71875 7.00482 5.71875 7.36179 5.36179C7.36179 5.36179 7.71875 5.00482 7.71875 4.5C7.71875 4.5 7.71875 3.99518 7.36179 3.63821C7.36179 3.63821 7.00482 3.28125 6.5 3.28125Z" fill="white"/>
<path d="M8.66998 1.55573L11.92 4.39948C11.994 4.46428 12.0891 4.5 12.1875 4.5C12.1965 4.5 12.2055 4.4997 12.2145 4.4991C12.322 4.49193 12.4223 4.44235 12.4932 4.36127C12.558 4.28721 12.5938 4.19215 12.5938 4.09375C12.5938 4.08473 12.5935 4.07572 12.5929 4.06673C12.5857 3.95922 12.5361 3.85897 12.455 3.78802L9.20502 0.944266C9.13096 0.879467 9.0359 0.84375 8.9375 0.84375C8.92848 0.84375 8.91947 0.84405 8.91048 0.84465C8.80297 0.851817 8.70272 0.901397 8.63177 0.982483C8.56697 1.05654 8.53125 1.1516 8.53125 1.25C8.53125 1.25902 8.53155 1.26803 8.53215 1.27702C8.53932 1.38453 8.5889 1.48478 8.66998 1.55573Z" fill="white"/>
<path d="M12.4549 5.21208C12.5431 5.13494 12.5938 5.0234 12.5938 4.90625C12.5938 4.90125 12.5937 4.89626 12.5935 4.89127C12.59 4.79808 12.5546 4.70891 12.4932 4.63873C12.4161 4.55057 12.3046 4.5 12.1875 4.5C12.1825 4.5 12.1775 4.50009 12.1725 4.50028C12.0793 4.50372 11.9902 4.53911 11.92 4.60052L8.66998 7.44427C8.58182 7.52141 8.53125 7.63285 8.53125 7.75C8.53125 7.755 8.53134 7.75999 8.53153 7.76498C8.53497 7.85817 8.57036 7.94734 8.63177 8.01752C8.70891 8.10568 8.82035 8.15625 8.9375 8.15625C8.9425 8.15625 8.94749 8.15616 8.95248 8.15597C9.04567 8.15253 9.13484 8.11714 9.20502 8.05573L12.4549 5.21208Z" fill="white"/>
<path d="M3.79487 0.944363L0.544983 3.78802C0.45682 3.86516 0.40625 3.9766 0.40625 4.09375C0.40625 4.09875 0.406342 4.10374 0.406526 4.10873C0.409966 4.20192 0.44536 4.29109 0.506766 4.36127C0.583908 4.44943 0.695353 4.5 0.8125 4.5C0.817496 4.5 0.822492 4.49991 0.827484 4.49972C0.920672 4.49628 1.00984 4.46089 1.08002 4.39948L4.32991 1.55583C4.41807 1.47869 4.46875 1.36715 4.46875 1.25C4.46875 1.245 4.46866 1.24001 4.46847 1.23502C4.46503 1.14183 4.42964 1.05266 4.36823 0.982483C4.29109 0.89432 4.17965 0.84375 4.0625 0.84375C4.0575 0.84375 4.05251 0.843842 4.04752 0.844026C3.95433 0.847466 3.86505 0.882957 3.79487 0.944363Z" fill="white"/>
<path d="M4.33002 7.44427L1.08002 4.60052C1.00596 4.53572 0.910903 4.5 0.8125 4.5C0.803485 4.5 0.794472 4.5003 0.785477 4.5009C0.677971 4.50807 0.577716 4.55765 0.506766 4.63873C0.441967 4.71279 0.40625 4.80785 0.40625 4.90625C0.40625 4.91527 0.40655 4.92428 0.40715 4.93327C0.414317 5.04078 0.463897 5.14103 0.544983 5.21198L3.79498 8.05573C3.86904 8.12053 3.9641 8.15625 4.0625 8.15625C4.07152 8.15625 4.08053 8.15595 4.08952 8.15535C4.19703 8.14818 4.29728 8.0986 4.36823 8.01752C4.43303 7.94346 4.46875 7.8484 4.46875 7.75C4.46875 7.74098 4.46845 7.73197 4.46785 7.72298C4.46068 7.61547 4.4111 7.51522 4.33002 7.44427Z" fill="white"/>
</svg>
