<svg width="11" height="11" viewBox="0 0 11 11" fill="none" xmlns="http://www.w3.org/2000/svg">
<path d="M5.5 0.21875C4.45547 0.21875 3.43439 0.52849 2.5659 1.1088C1.6974 1.68911 1.02049 2.51393 0.620764 3.47895C0.221038 4.44397 0.116452 5.50586 0.32023 6.53032C0.524008 7.55478 1.027 8.49581 1.76559 9.23441C2.50419 9.973 3.44522 10.476 4.46968 10.6798C5.49414 10.8835 6.55603 10.779 7.52105 10.3792C8.48607 9.97951 9.31089 9.3026 9.8912 8.4341C10.4715 7.56561 10.7813 6.54453 10.7813 5.5C10.7786 4.10015 10.2213 2.7584 9.23144 1.76856C8.2416 0.778712 6.89985 0.221434 5.5 0.21875ZM6.10938 7.9375H5.90625V8.34375C5.90625 8.45149 5.86345 8.55482 5.78726 8.63101C5.71108 8.7072 5.60775 8.75 5.5 8.75C5.39226 8.75 5.28893 8.7072 5.21274 8.63101C5.13655 8.55482 5.09375 8.45149 5.09375 8.34375V7.9375H4.28125C4.17351 7.9375 4.07018 7.8947 3.99399 7.81851C3.9178 7.74233 3.875 7.63899 3.875 7.53125C3.875 7.42351 3.9178 7.32017 3.99399 7.24399C4.07018 7.1678 4.17351 7.125 4.28125 7.125H6.10938C6.27099 7.125 6.42599 7.0608 6.54027 6.94652C6.65455 6.83224 6.71875 6.67724 6.71875 6.51562C6.71875 6.35401 6.65455 6.19901 6.54027 6.08473C6.42599 5.97045 6.27099 5.90625 6.10938 5.90625H4.89063C4.51352 5.90625 4.15186 5.75644 3.88521 5.48979C3.61856 5.22314 3.46875 4.86148 3.46875 4.48437C3.46875 4.10727 3.61856 3.74561 3.88521 3.47896C4.15186 3.2123 4.51352 3.0625 4.89063 3.0625H5.09375V2.65625C5.09375 2.54851 5.13655 2.44517 5.21274 2.36899C5.28893 2.2928 5.39226 2.25 5.5 2.25C5.60775 2.25 5.71108 2.2928 5.78726 2.36899C5.86345 2.44517 5.90625 2.54851 5.90625 2.65625V3.0625H6.71875C6.8265 3.0625 6.92983 3.1053 7.00601 3.18149C7.0822 3.25767 7.125 3.36101 7.125 3.46875C7.125 3.57649 7.0822 3.67983 7.00601 3.75601C6.92983 3.8322 6.8265 3.875 6.71875 3.875H4.89063C4.72901 3.875 4.57401 3.9392 4.45973 4.05348C4.34545 4.16776 4.28125 4.32276 4.28125 4.48437C4.28125 4.64599 4.34545 4.80099 4.45973 4.91527C4.57401 5.02955 4.72901 5.09375 4.89063 5.09375H6.10938C6.48648 5.09375 6.84814 5.24355 7.11479 5.51021C7.38145 5.77686 7.53125 6.13852 7.53125 6.51562C7.53125 6.89273 7.38145 7.25439 7.11479 7.52104C6.84814 7.7877 6.48648 7.9375 6.10938 7.9375Z" fill="white"/>
</svg>
