<svg width="13" height="10" viewBox="0 0 13 10" fill="none" xmlns="http://www.w3.org/2000/svg">
<path d="M6.0833 8.90798C6.06084 8.99615 6.00977 9.07438 5.9381 9.13043C5.86643 9.18648 5.77819 9.21719 5.68721 9.21774C5.65446 9.21763 5.62191 9.21249 5.59072 9.20251L4.05713 8.82165C3.93274 8.79023 3.81776 8.72926 3.72197 8.64391L2.57939 7.6486C2.53938 7.61392 2.50659 7.57171 2.4829 7.52436C2.4592 7.47701 2.44506 7.42545 2.44129 7.37264C2.43752 7.31983 2.44419 7.26679 2.46091 7.21655C2.47764 7.16631 2.50409 7.11986 2.53877 7.07985C2.57345 7.03984 2.61567 7.00705 2.66302 6.98335C2.71036 6.95966 2.76192 6.94552 2.81473 6.94175C2.86754 6.93797 2.92058 6.94464 2.97082 6.96137C3.02106 6.97809 3.06751 7.00455 3.10752 7.03923L4.25518 8.03454L5.78369 8.4154C5.88823 8.44184 5.9782 8.50828 6.03424 8.60041C6.09028 8.69254 6.10789 8.80299 6.0833 8.90798ZM12.8169 4.0736C12.7835 4.17588 12.7299 4.27039 12.6592 4.35152C12.5885 4.43266 12.5023 4.49875 12.4056 4.54587L11.2224 5.14001L10.4657 6.02868H10.4556C10.4556 6.03376 10.4505 6.03376 10.4505 6.03884H10.4454L8.57666 7.90759C8.42179 8.05897 8.21432 8.1445 7.99775 8.14626C7.93264 8.14566 7.86784 8.13713 7.80478 8.12087L4.85947 7.39469C4.74827 7.36875 4.6442 7.31845 4.55479 7.24743L1.8126 5.10446L0.593848 4.49509C0.399169 4.39642 0.251335 4.22486 0.18252 4.01774C0.149987 3.91512 0.138172 3.80706 0.147761 3.69983C0.15735 3.5926 0.188153 3.48835 0.238379 3.39313L1.4876 1.00134C1.58632 0.813114 1.75446 0.670735 1.95637 0.604378C2.15829 0.538021 2.37811 0.552902 2.56924 0.645866L3.70674 1.21462L6.17979 0.493523C6.36517 0.443006 6.56225 0.457339 6.73838 0.534148L8.41416 1.29587H9.24697L10.4302 0.701726C10.6205 0.607047 10.8403 0.590707 11.0425 0.65621C11.2447 0.721712 11.4132 0.863841 11.5118 1.05212L12.761 3.44391C12.8114 3.54 12.8423 3.64511 12.8519 3.75318C12.8615 3.86125 12.8496 3.97014 12.8169 4.0736ZM9.53135 5.81032L7.92666 4.64235L7.51533 4.95212C7.16307 5.21426 6.73568 5.35584 6.29658 5.35584C5.85748 5.35584 5.43009 5.21426 5.07783 4.95212L4.80361 4.74391C4.70993 4.67453 4.63238 4.58569 4.5763 4.48349C4.52022 4.38129 4.48693 4.26816 4.47873 4.15187C4.47053 4.03558 4.4876 3.9189 4.52878 3.80984C4.56996 3.70078 4.63427 3.60193 4.71729 3.52008L6.70283 1.52946L6.79424 1.45329L6.40322 1.27555L3.93018 1.99665L2.54893 4.64743L5.05752 6.60758L7.99775 7.34391L9.53135 5.81032ZM10.481 4.75915L9.09971 2.10837H7.27666L5.29111 4.09391L5.56533 4.30212C5.77726 4.45803 6.03348 4.54212 6.29658 4.54212C6.55969 4.54212 6.8159 4.45803 7.02783 4.30212L7.67783 3.81462C7.74715 3.76233 7.83139 3.73362 7.91821 3.73271C8.00503 3.7318 8.08985 3.75872 8.16025 3.80954L10.0899 5.2111L10.481 4.75915Z" fill="white"/>
</svg>
