<svg width="13" height="9" viewBox="0 0 13 9" fill="none" xmlns="http://www.w3.org/2000/svg">
<path d="M9.34375 2.55V2.26562C9.34375 0.991016 7.42422 0.03125 4.875 0.03125C2.32578 0.03125 0.40625 0.991016 0.40625 2.26562V4.29688C0.40625 5.3582 1.73672 6.20117 3.65625 6.45508V6.73438C3.65625 8.00898 5.57578 8.96875 8.125 8.96875C10.6742 8.96875 12.5938 8.00898 12.5938 6.73438V4.70312C12.5938 3.65195 11.3039 2.80898 9.34375 2.55ZM3.65625 5.62734V4.42383C4.0604 4.47577 4.46752 4.50121 4.875 4.5C5.28248 4.50121 5.6896 4.47577 6.09375 4.42383V5.62734C5.69058 5.69017 5.28303 5.72074 4.875 5.71875C4.46697 5.72074 4.05942 5.69017 3.65625 5.62734ZM8.53125 3.58086V4.29688C8.53125 4.72344 7.90156 5.18047 6.90625 5.45977V4.27148C7.56133 4.11406 8.11484 3.87539 8.53125 3.58086ZM1.21875 4.29688V3.58086C1.63516 3.87539 2.18867 4.11406 2.84375 4.27148V5.45977C1.84844 5.18047 1.21875 4.72344 1.21875 4.29688ZM4.46875 6.73438V6.52109L4.875 6.53125C5.07474 6.53125 5.26771 6.52617 5.45391 6.51602C5.65703 6.58711 5.87031 6.64805 6.09375 6.70391V7.89727C5.09844 7.61797 4.46875 7.16094 4.46875 6.73438ZM6.90625 8.06484V6.85625C7.31035 6.90927 7.71743 6.9364 8.125 6.9375C8.53248 6.93871 8.9396 6.91327 9.34375 6.86133V8.06484C8.53582 8.18672 7.71418 8.18672 6.90625 8.06484ZM10.1562 7.89727V6.70898C10.8113 6.55156 11.3648 6.31289 11.7812 6.01836V6.73438C11.7812 7.16094 11.1516 7.61797 10.1562 7.89727Z" fill="white"/>
</svg>
