<svg width="11" height="11" viewBox="0 0 11 11" fill="none" xmlns="http://www.w3.org/2000/svg">
<path fill-rule="evenodd" clip-rule="evenodd" d="M0.21875 3.0625C0.21875 3.0625 0.21875 2.72595 0.456726 2.48798C0.456726 2.48798 0.694701 2.25 1.03125 2.25H9.96875C9.96875 2.25 10.3053 2.25 10.5433 2.48798C10.5433 2.48798 10.7812 2.72595 10.7812 3.0625V9.5625C10.7812 9.5625 10.7812 9.89905 10.5433 10.137C10.5433 10.137 10.3053 10.375 9.96875 10.375H1.03125C1.03125 10.375 0.694701 10.375 0.456726 10.137C0.456726 10.137 0.21875 9.89905 0.21875 9.5625V3.0625ZM1.03125 3.0625V9.5625H9.96875V3.0625H1.03125Z" fill="white"/>
<path d="M3.0625 1.84375V9.96875C3.0625 10.1931 3.24438 10.375 3.46875 10.375C3.69312 10.375 3.875 10.1931 3.875 9.96875V1.84375C3.875 1.67548 3.99399 1.55649 3.99399 1.55649C4.11298 1.4375 4.28125 1.4375 4.28125 1.4375H6.71875C6.88702 1.4375 7.00601 1.55649 7.00601 1.55649C7.125 1.67548 7.125 1.84375 7.125 1.84375V9.96875C7.125 10.1931 7.30688 10.375 7.53125 10.375C7.75562 10.375 7.9375 10.1931 7.9375 9.96875V1.84375C7.9375 1.33893 7.58054 0.981964 7.58054 0.981964C7.22357 0.625 6.71875 0.625 6.71875 0.625H4.28125C3.77643 0.625 3.41946 0.981964 3.41946 0.981964C3.0625 1.33893 3.0625 1.84375 3.0625 1.84375Z" fill="white"/>
</svg>
