<svg width="13" height="14" viewBox="0 0 13 14" fill="none" xmlns="http://www.w3.org/2000/svg">
<path d="M11.7457 2.10984C11.633 2.01433 11.4965 1.95115 11.3508 1.92701C11.2051 1.90286 11.0555 1.91866 10.918 1.97273L1.54379 5.65437C1.37937 5.71701 1.24009 5.83197 1.14742 5.98153C1.05474 6.1311 1.0138 6.30698 1.0309 6.4821C1.04615 6.65715 1.11774 6.82254 1.23493 6.95346C1.35212 7.08439 1.5086 7.17379 1.6809 7.20827L4.06254 7.68054V10.6563C4.06245 10.8173 4.11019 10.9747 4.1997 11.1085C4.28921 11.2423 4.41645 11.3465 4.56527 11.4079C4.66377 11.4475 4.76887 11.4682 4.87504 11.4688C4.98175 11.4692 5.08747 11.4483 5.186 11.4073C5.28453 11.3663 5.3739 11.3061 5.44887 11.2301L6.76918 9.91491L8.76488 11.6719C8.91222 11.8019 9.10164 11.874 9.29809 11.8751C9.38447 11.8769 9.47047 11.8631 9.55199 11.8344C9.686 11.792 9.80661 11.7154 9.90191 11.6121C9.99721 11.5088 10.0639 11.3824 10.0954 11.2454L12.0047 2.9071C12.0381 2.76322 12.0316 2.61296 11.986 2.47249C11.9404 2.33202 11.8573 2.20664 11.7457 2.10984ZM9.30316 11.0626L5.11879 7.38093L11.1465 3.02898L9.30316 11.0626Z" fill="white"/>
</svg>
