<svg width="13" height="14" viewBox="0 0 13 14" fill="none" xmlns="http://www.w3.org/2000/svg">
<path d="M12.477 4.44575L10.9434 5.97427C10.6387 9.52388 7.64259 12.2813 4.06251 12.2813C3.32618 12.2813 2.71681 12.1645 2.2547 11.936C1.884 11.7481 1.73165 11.55 1.69103 11.4891C1.65742 11.4381 1.63576 11.3801 1.62767 11.3195C1.61957 11.2589 1.62526 11.1973 1.64429 11.1392C1.66333 11.0811 1.69523 11.0281 1.73761 10.984C1.77999 10.94 1.83177 10.9061 1.88908 10.8848C1.89923 10.8797 3.09767 10.4227 3.87462 9.54419C3.39278 9.20111 2.96927 8.78274 2.62033 8.30513C1.92462 7.36059 1.18829 5.72036 1.63009 3.2727C1.64398 3.19994 1.67726 3.13227 1.72642 3.07685C1.77558 3.02144 1.8388 2.98033 1.90939 2.95786C1.9802 2.93467 2.05603 2.93141 2.12858 2.94843C2.20113 2.96544 2.2676 3.00209 2.32072 3.05434C2.33595 3.07466 4.02697 4.74028 6.09376 5.27856V4.9688C6.09576 4.6467 6.16118 4.32815 6.28628 4.03133C6.41139 3.73451 6.59374 3.46524 6.82291 3.2389C7.05208 3.01256 7.3236 2.83357 7.62194 2.71216C7.92029 2.59075 8.23963 2.52929 8.56173 2.5313C8.98448 2.53733 9.39846 2.65276 9.76333 2.86634C10.1282 3.07993 10.4315 3.38438 10.6438 3.75005H12.1875C12.2677 3.7498 12.3462 3.77329 12.4131 3.81757C12.4799 3.86185 12.5322 3.92494 12.5633 3.99888C12.5926 4.07391 12.6 4.15571 12.5847 4.23479C12.5694 4.31387 12.5321 4.38701 12.477 4.44575Z" fill="white"/>
</svg>
