<svg width="13" height="10" viewBox="0 0 13 10" fill="none" xmlns="http://www.w3.org/2000/svg">
<path d="M3.25002 5.10914C3.2507 5.16268 3.24066 5.21581 3.22048 5.26541C3.20031 5.315 3.17041 5.36006 3.13255 5.39792C3.09469 5.43578 3.04963 5.46568 3.00003 5.48585C2.95044 5.50603 2.8973 5.51607 2.84377 5.51539H0.609391C0.53392 5.51478 0.460034 5.49366 0.395633 5.45431C0.331233 5.41495 0.278739 5.35883 0.243766 5.29195C0.211245 5.22384 0.197845 5.14818 0.205001 5.07304C0.212157 4.99791 0.239598 4.92613 0.284391 4.86539C0.643916 4.38278 1.12366 4.00284 1.6758 3.76344C1.43854 3.54626 1.25626 3.27584 1.14394 2.97444C1.03162 2.67305 0.992485 2.34928 1.02975 2.0298C1.06701 1.71032 1.17962 1.40426 1.35829 1.1368C1.53695 0.869348 1.77659 0.648145 2.05745 0.491401C2.33832 0.334657 2.6524 0.246853 2.97383 0.235217C3.29527 0.22358 3.61487 0.288443 3.90634 0.424467C4.19781 0.560491 4.4528 0.763788 4.65035 1.01762C4.84789 1.27146 4.98233 1.56858 5.04259 1.88453C5.05762 1.96682 5.0472 2.05173 5.01272 2.12794C4.97824 2.20416 4.92135 2.26805 4.84963 2.31109C4.19284 2.70056 3.69331 3.30789 3.43791 4.0275C3.312 4.37415 3.24839 4.74033 3.25002 5.10914ZM12.7156 4.86539C12.3561 4.38278 11.8764 4.00284 11.3242 3.76344C11.5615 3.54626 11.7438 3.27584 11.8561 2.97444C11.9684 2.67305 12.0075 2.34928 11.9703 2.0298C11.933 1.71032 11.8204 1.40426 11.6417 1.1368C11.4631 0.869348 11.2234 0.648145 10.9426 0.491401C10.6617 0.334657 10.3476 0.246853 10.0262 0.235217C9.70476 0.22358 9.38516 0.288443 9.09369 0.424467C8.80223 0.560491 8.54723 0.763788 8.34969 1.01762C8.15214 1.27146 8.01771 1.56858 7.95744 1.88453C7.94241 1.96682 7.95284 2.05173 7.98731 2.12794C8.02179 2.20416 8.07868 2.26805 8.15041 2.31109C8.80805 2.69956 9.30787 3.30725 9.56213 4.0275C9.68803 4.37415 9.75164 4.74033 9.75002 5.10914C9.74933 5.16268 9.75938 5.21581 9.77955 5.26541C9.79973 5.315 9.82962 5.36006 9.86748 5.39792C9.90534 5.43578 9.9504 5.46568 10 5.48585C10.0496 5.50603 10.1027 5.51607 10.1563 5.51539H12.3906C12.4661 5.51539 12.54 5.49438 12.6042 5.45472C12.6684 5.41505 12.7203 5.3583 12.754 5.29082C12.7877 5.22334 12.802 5.1478 12.7952 5.07266C12.7885 4.99751 12.7609 4.92574 12.7156 4.86539ZM7.98283 7.0439C8.38714 6.73401 8.6842 6.30523 8.83227 5.81782C8.98034 5.3304 8.97198 4.80884 8.80837 4.32642C8.64475 3.844 8.33411 3.42496 7.92007 3.12818C7.50604 2.83141 7.00943 2.67181 6.50002 2.67181C5.9906 2.67181 5.49399 2.83141 5.07996 3.12818C4.66593 3.42496 4.35528 3.844 4.19166 4.32642C4.02805 4.80884 4.01969 5.3304 4.16776 5.81782C4.31583 6.30523 4.61289 6.73401 5.0172 7.0439C4.22732 7.39459 3.58694 8.01338 3.20939 8.79078C3.17935 8.85256 3.1659 8.92109 3.17035 8.98965C3.1748 9.0582 3.197 9.12442 3.23478 9.1818C3.26994 9.24065 3.31978 9.28938 3.37942 9.32321C3.43906 9.35703 3.50645 9.3748 3.57502 9.37476H9.42502C9.49358 9.3748 9.56098 9.35703 9.62062 9.32321C9.68025 9.28938 9.73009 9.24065 9.76525 9.1818C9.80303 9.12442 9.82523 9.0582 9.82968 8.98965C9.83414 8.92109 9.82068 8.85256 9.79064 8.79078C9.41309 8.01338 8.77272 7.39459 7.98283 7.0439Z" fill="white"/>
</svg>
