<svg width="13" height="14" viewBox="0 0 13 14" fill="none" xmlns="http://www.w3.org/2000/svg">
<path fill-rule="evenodd" clip-rule="evenodd" d="M6.5 1.71875C6.5 1.71875 7.5742 1.71875 8.55583 2.13394C8.55583 2.13394 9.50366 2.53484 10.2344 3.26559C10.2344 3.26559 10.9652 3.99634 11.3661 4.94417C11.3661 4.94417 11.7812 5.9258 11.7812 7C11.7812 7 11.7812 8.07419 11.3661 9.05582C11.3661 9.05582 10.9652 10.0037 10.2344 10.7344C10.2344 10.7344 9.50366 11.4652 8.55583 11.8661C8.55583 11.8661 7.57419 12.2812 6.5 12.2812C6.5 12.2812 5.4258 12.2812 4.44417 11.8661C4.44417 11.8661 3.49634 11.4652 2.76559 10.7344C2.76559 10.7344 2.03484 10.0037 1.63394 9.05583C1.63394 9.05583 1.21875 8.0742 1.21875 7C1.21875 7 1.21875 5.9258 1.63394 4.94417C1.63394 4.94417 2.03484 3.99634 2.76559 3.26559C2.76559 3.26559 3.49634 2.53484 4.44417 2.13394C4.44417 2.13394 5.4258 1.71875 6.5 1.71875ZM6.5 2.53125C6.5 2.53125 5.59057 2.53125 4.76069 2.88226C4.76069 2.88226 3.95881 3.22143 3.34012 3.84012C3.34012 3.84012 2.72143 4.45881 2.38226 5.26069C2.38226 5.26069 2.03125 6.09056 2.03125 7C2.03125 7 2.03125 7.90943 2.38226 8.73931C2.38226 8.73931 2.72143 9.54119 3.34012 10.1599C3.34012 10.1599 3.95881 10.7786 4.76069 11.1177C4.76069 11.1177 5.59057 11.4688 6.5 11.4688C6.5 11.4688 7.40943 11.4688 8.23932 11.1177C8.23932 11.1177 9.04119 10.7786 9.65988 10.1599C9.65988 10.1599 10.2786 9.54119 10.6177 8.73931C10.6177 8.73931 10.9688 7.90943 10.9688 7C10.9688 7 10.9688 6.09057 10.6177 5.26069C10.6177 5.26069 10.2786 4.45881 9.65988 3.84012C9.65988 3.84012 9.04119 3.22142 8.23932 2.88226C8.23932 2.88226 7.40943 2.53125 6.5 2.53125Z" fill="white"/>
<path d="M1.625 7.40625H11.375C11.5994 7.40625 11.7812 7.22437 11.7812 7C11.7812 6.77563 11.5994 6.59375 11.375 6.59375H1.625C1.40063 6.59375 1.21875 6.77563 1.21875 7C1.21875 7.22437 1.40063 7.40625 1.625 7.40625Z" fill="white"/>
<path fill-rule="evenodd" clip-rule="evenodd" d="M6.5 1.85076C6.5 1.85076 7.08005 1.85076 7.57612 2.34069C7.57612 2.34069 7.99728 2.75664 8.30975 3.48626C8.30975 3.48626 8.9375 4.95205 8.9375 6.99998C8.9375 6.99998 8.9375 9.04791 8.30975 10.5137C8.30975 10.5137 7.99728 11.2433 7.57612 11.6593C7.57612 11.6593 7.08005 12.1492 6.5 12.1492C6.5 12.1492 5.91995 12.1492 5.42388 11.6593C5.42388 11.6593 5.00272 11.2433 4.69024 10.5137C4.69024 10.5137 4.0625 9.04791 4.0625 6.99998C4.0625 6.99998 4.0625 4.95205 4.69024 3.48626C4.69024 3.48626 5.00272 2.75664 5.42388 2.34069C5.42388 2.34069 5.91995 1.85076 6.5 1.85076ZM6.5 2.66326C6.5 2.66326 6.25354 2.66326 5.99481 2.91878C5.99481 2.91878 5.68693 3.22286 5.43713 3.80613C5.43713 3.80613 4.875 5.11871 4.875 6.99998C4.875 6.99998 4.875 8.88125 5.43713 10.1938C5.43713 10.1938 5.68693 10.7771 5.99481 11.0812C5.99481 11.0812 6.25354 11.3367 6.5 11.3367C6.5 11.3367 6.74646 11.3367 7.00519 11.0812C7.00519 11.0812 7.31307 10.7771 7.56287 10.1938C7.56287 10.1938 8.125 8.88125 8.125 6.99998C8.125 6.99998 8.125 5.11871 7.56287 3.80613C7.56287 3.80613 7.31307 3.22286 7.00519 2.91878C7.00519 2.91878 6.74646 2.66326 6.5 2.66326Z" fill="white"/>
</svg>
