<svg width="16" height="17" viewBox="0 0 16 17" fill="none" xmlns="http://www.w3.org/2000/svg">
<path d="M4.38098 5.99371C4.33988 5.94255 4.28887 5.90021 4.23102 5.86924C4.17316 5.83826 4.10965 5.81929 4.04428 5.81346C3.97892 5.80762 3.91305 5.81504 3.85062 5.83527C3.78819 5.85551 3.73049 5.88814 3.68098 5.93121L0.680979 8.43121C0.624693 8.47753 0.579361 8.53574 0.548239 8.60165C0.517117 8.66757 0.500977 8.73956 0.500977 8.81246C0.500977 8.88535 0.517117 8.95734 0.548239 9.02326C0.579361 9.08918 0.624693 9.14739 0.680979 9.19371L3.68098 11.6937C3.73049 11.7368 3.78819 11.7694 3.85062 11.7896C3.91305 11.8099 3.97892 11.8173 4.04428 11.8115C4.10965 11.8056 4.17316 11.7866 4.23102 11.7557C4.28887 11.7247 4.33988 11.6824 4.38098 11.6312C4.42405 11.5817 4.45668 11.524 4.47691 11.4616C4.49715 11.3991 4.50457 11.3333 4.49873 11.2679C4.4929 11.2025 4.47392 11.139 4.44295 11.0812C4.41198 11.0233 4.36964 10.9723 4.31848 10.9312L1.78098 8.81246L4.31848 6.69371C4.36964 6.65261 4.41198 6.6016 4.44295 6.54375C4.47392 6.48589 4.4929 6.42238 4.49873 6.35701C4.50457 6.29165 4.49715 6.22578 4.47691 6.16335C4.45668 6.10092 4.42405 6.04322 4.38098 5.99371Z" fill="#F9FAFB"/>
<path d="M15.3185 8.43122L12.3185 5.93122C12.2159 5.86319 12.0919 5.83537 11.9701 5.85307C11.8484 5.87077 11.7374 5.93276 11.6585 6.02716C11.5795 6.12156 11.5382 6.24176 11.5424 6.36474C11.5465 6.48772 11.5959 6.60485 11.681 6.69372L14.2185 8.81247L11.681 10.9312C11.6032 10.9972 11.5475 11.0854 11.5213 11.1839C11.495 11.2825 11.4996 11.3867 11.5343 11.4826C11.5689 11.5785 11.6321 11.6614 11.7153 11.7204C11.7985 11.7794 11.8978 11.8115 11.9997 11.8125C12.1169 11.813 12.2302 11.7708 12.3185 11.6937L15.3185 9.19372C15.3748 9.1474 15.4201 9.08919 15.4512 9.02327C15.4823 8.95735 15.4985 8.88536 15.4985 8.81247C15.4985 8.73957 15.4823 8.66758 15.4512 8.60166C15.4201 8.53574 15.3748 8.47754 15.3185 8.43122Z" fill="#F9FAFB"/>
<path d="M10.1685 2.84371C10.107 2.82093 10.0415 2.81064 9.976 2.81344C9.91047 2.81623 9.84615 2.83206 9.7868 2.85998C9.72745 2.88791 9.67426 2.92739 9.63034 2.9761C9.58641 3.02482 9.55264 3.08179 9.53098 3.14371L5.53098 14.1437C5.5082 14.2052 5.49791 14.2707 5.50071 14.3362C5.5035 14.4017 5.51933 14.466 5.54726 14.5254C5.57518 14.5847 5.61466 14.6379 5.66337 14.6818C5.71209 14.7258 5.76907 14.7596 5.83098 14.7812C5.88519 14.8006 5.94217 14.8111 5.99973 14.8125C6.10264 14.813 6.20314 14.7813 6.28718 14.7219C6.37123 14.6626 6.43461 14.5784 6.46848 14.4812L10.4685 3.48121C10.4913 3.4197 10.5015 3.35426 10.4988 3.28873C10.496 3.2232 10.4801 3.15888 10.4522 3.09953C10.4243 3.04018 10.3848 2.98699 10.3361 2.94307C10.2874 2.89914 10.2304 2.86537 10.1685 2.84371Z" fill="#F9FAFB"/>
</svg>
