<svg width="16" height="17" viewBox="0 0 16 17" fill="none" xmlns="http://www.w3.org/2000/svg">
<path d="M14.9375 13.6998L14.0437 5.69978C14.0174 5.45504 13.9012 5.22878 13.7176 5.06482C13.534 4.90086 13.2961 4.81087 13.05 4.81228H10.9562C10.8359 4.11546 10.4733 3.48354 9.9324 3.02804C9.39151 2.57254 8.7071 2.32275 7.99997 2.32275C7.29284 2.32275 6.60843 2.57254 6.06754 3.02804C5.52665 3.48354 5.16404 4.11546 5.04372 4.81228H2.94997C2.70383 4.81087 2.46592 4.90086 2.28233 5.06482C2.09874 5.22878 1.98253 5.45504 1.95622 5.69978L1.06247 13.6998C1.04733 13.8402 1.06176 13.9823 1.10481 14.1169C1.14787 14.2514 1.2186 14.3755 1.31247 14.481C1.40602 14.5856 1.52067 14.6692 1.64886 14.7263C1.77706 14.7834 1.91589 14.8127 2.05622 14.8123H13.9437C14.0841 14.8127 14.2229 14.7834 14.3511 14.7263C14.4793 14.6692 14.5939 14.5856 14.6875 14.481C14.7813 14.3755 14.8521 14.2514 14.8951 14.1169C14.9382 13.9823 14.9526 13.8402 14.9375 13.6998ZM5.99997 7.31228C5.99997 7.44489 5.94729 7.57206 5.85352 7.66583C5.75975 7.7596 5.63258 7.81228 5.49997 7.81228C5.36736 7.81228 5.24018 7.7596 5.14642 7.66583C5.05265 7.57206 4.99997 7.44489 4.99997 7.31228V6.31228C4.99997 6.17967 5.05265 6.05249 5.14642 5.95872C5.24018 5.86496 5.36736 5.81228 5.49997 5.81228C5.63258 5.81228 5.75975 5.86496 5.85352 5.95872C5.94729 6.05249 5.99997 6.17967 5.99997 6.31228V7.31228ZM6.06247 4.81228C6.17262 4.38207 6.42282 4.00076 6.77362 3.72846C7.12443 3.45616 7.55588 3.30836 7.99997 3.30836C8.44405 3.30836 8.87551 3.45616 9.22631 3.72846C9.57712 4.00076 9.82732 4.38207 9.93747 4.81228H6.06247ZM11 7.31228C11 7.44489 10.9473 7.57206 10.8535 7.66583C10.7598 7.7596 10.6326 7.81228 10.5 7.81228C10.3674 7.81228 10.2402 7.7596 10.1464 7.66583C10.0526 7.57206 9.99997 7.44489 9.99997 7.31228V6.31228C9.99997 6.17967 10.0526 6.05249 10.1464 5.95872C10.2402 5.86496 10.3674 5.81228 10.5 5.81228C10.6326 5.81228 10.7598 5.86496 10.8535 5.95872C10.9473 6.05249 11 6.17967 11 6.31228V7.31228Z" fill="#F9FAFB"/>
</svg>
