<svg width="16" height="17" viewBox="0 0 16 17" fill="none" xmlns="http://www.w3.org/2000/svg">
<path d="M4.00002 9.56232C4.00086 9.62822 3.9885 9.69361 3.96367 9.75465C3.93884 9.81569 3.90204 9.87115 3.85544 9.91775C3.80885 9.96434 3.75339 10.0011 3.69235 10.026C3.63131 10.0508 3.56591 10.0632 3.50002 10.0623H0.75002C0.657132 10.0616 0.566195 10.0356 0.486933 9.98715C0.407671 9.93871 0.343064 9.86964 0.30002 9.78732C0.259993 9.7035 0.243502 9.61037 0.252309 9.5179C0.261116 9.42542 0.29489 9.33708 0.35002 9.26232C0.792512 8.66834 1.38297 8.20072 2.06252 7.90607C1.77052 7.63877 1.54616 7.30595 1.40793 6.935C1.26969 6.56405 1.22152 6.16558 1.26738 5.77237C1.31325 5.37917 1.45183 5.00247 1.67174 4.6733C1.89164 4.34412 2.18657 4.07187 2.53225 3.87895C2.87793 3.68604 3.26449 3.57797 3.6601 3.56365C4.05571 3.54933 4.44907 3.62916 4.8078 3.79657C5.16653 3.96399 5.48037 4.2142 5.7235 4.52661C5.96663 4.83903 6.13209 5.20471 6.20627 5.59357C6.22476 5.69485 6.21193 5.79936 6.1695 5.89316C6.12707 5.98696 6.05704 6.06559 5.96877 6.11857C5.16041 6.59792 4.54561 7.34541 4.23127 8.23107C4.07631 8.65772 3.99802 9.10841 4.00002 9.56232ZM15.65 9.26232C15.2075 8.66834 14.6171 8.20072 13.9375 7.90607C14.2295 7.63877 14.4539 7.30595 14.5921 6.935C14.7304 6.56405 14.7785 6.16558 14.7327 5.77237C14.6868 5.37917 14.5482 5.00247 14.3283 4.6733C14.1084 4.34412 13.8135 4.07187 13.4678 3.87895C13.1221 3.68604 12.7355 3.57797 12.3399 3.56365C11.9443 3.54933 11.551 3.62916 11.1922 3.79657C10.8335 3.96399 10.5197 4.2142 10.2765 4.52661C10.0334 4.83903 9.86795 5.20471 9.79377 5.59357C9.77528 5.69485 9.78811 5.79936 9.83054 5.89316C9.87297 5.98696 9.943 6.06559 10.0313 6.11857C10.8407 6.59669 11.4558 7.34461 11.7688 8.23107C11.9237 8.65772 12.002 9.10841 12 9.56232C11.9992 9.62822 12.0115 9.69361 12.0364 9.75465C12.0612 9.81569 12.098 9.87115 12.1446 9.91775C12.1912 9.96434 12.2466 10.0011 12.3077 10.026C12.3687 10.0508 12.4341 10.0632 12.5 10.0623H15.25C15.3429 10.0623 15.4339 10.0365 15.5129 9.98765C15.5919 9.93883 15.6557 9.86898 15.6972 9.78593C15.7388 9.70288 15.7563 9.6099 15.748 9.51742C15.7397 9.42494 15.7057 9.33661 15.65 9.26232ZM9.82502 11.9436C10.3226 11.5622 10.6882 11.0344 10.8705 10.4345C11.0527 9.83464 11.0424 9.19272 10.8411 8.59897C10.6397 8.00523 10.2574 7.48949 9.74778 7.12422C9.2382 6.75896 8.62699 6.56253 8.00002 6.56253C7.37305 6.56253 6.76184 6.75896 6.25226 7.12422C5.74268 7.48949 5.36034 8.00523 5.15897 8.59897C4.9576 9.19272 4.94731 9.83464 5.12955 10.4345C5.31179 11.0344 5.67741 11.5622 6.17502 11.9436C5.20285 12.3752 4.4147 13.1368 3.95002 14.0936C3.91305 14.1696 3.89649 14.254 3.90197 14.3383C3.90745 14.4227 3.93477 14.5042 3.98127 14.5748C4.02454 14.6473 4.08588 14.7072 4.15928 14.7489C4.23268 14.7905 4.31564 14.8124 4.40002 14.8123H11.6C11.6844 14.8124 11.7674 14.7905 11.8408 14.7489C11.9142 14.7072 11.9755 14.6473 12.0188 14.5748C12.0653 14.5042 12.0926 14.4227 12.0981 14.3383C12.1036 14.254 12.087 14.1696 12.05 14.0936C11.5853 13.1368 10.7972 12.3752 9.82502 11.9436Z" fill="#F9FAFB"/>
</svg>
