<svg width="16" height="17" viewBox="0 0 16 17" fill="none" xmlns="http://www.w3.org/2000/svg">
<path d="M12.2929 11.8125L9.64663 14.4588C9.55287 14.5525 9.5 14.6799 9.5 14.8125C9.5 14.8205 9.50019 14.8285 9.50058 14.8365C9.50655 14.9607 9.55855 15.0782 9.64645 15.1661C9.74021 15.2598 9.86739 15.3125 10 15.3125C10.1326 15.3125 10.2598 15.2598 10.3536 15.1661L13.3536 12.1661C13.4473 12.0723 13.5 11.9451 13.5 11.8125C13.5 11.6799 13.4473 11.5527 13.3536 11.4589L10.3536 8.45901C10.2598 8.36518 10.1326 8.3125 10 8.3125C9.86739 8.3125 9.74021 8.36518 9.64645 8.45895C9.55268 8.55271 9.5 8.67989 9.5 8.8125C9.5 8.94511 9.55268 9.07229 9.64645 9.16605L12.2929 11.8125Z" fill="#F9FAFB"/>
<path d="M4 12.3125H13C13.2761 12.3125 13.5 12.0886 13.5 11.8125C13.5 11.5364 13.2761 11.3125 13 11.3125H4.5V2.8125C4.5 2.53636 4.27614 2.3125 4 2.3125C3.72386 2.3125 3.5 2.53636 3.5 2.8125V11.8125C3.5 12.0886 3.72386 12.3125 4 12.3125Z" fill="#F9FAFB"/>
</svg>
