<svg width="48" height="48" viewBox="0 0 48 48" fill="none" xmlns="http://www.w3.org/2000/svg">
<path fill-rule="evenodd" clip-rule="evenodd" d="M48 24C48 37.2548 37.2548 48 24 48C10.7452 48 0 37.2548 0 24C0 10.7452 10.7452 0 24 0C37.2548 0 48 10.7452 48 24Z" fill="#E84142"/>
<path fill-rule="evenodd" clip-rule="evenodd" d="M17.1991 33.5503H12.5414C11.5627 33.5503 11.0792 33.5503 10.7844 33.3617C10.4661 33.1553 10.2715 32.8134 10.2479 32.436C10.2302 32.0882 10.4719 31.6637 10.9554 30.8146L22.4559 10.5434C22.9453 9.68262 23.1929 9.25225 23.5054 9.09304C23.8415 8.92211 24.2424 8.92211 24.5784 9.09304C24.8909 9.25225 25.1386 9.68262 25.6279 10.5434L27.9922 14.6705L28.0042 14.6916C28.5328 15.6151 28.8008 16.0834 28.9178 16.5749C29.0475 17.1114 29.0475 17.6774 28.9178 18.2139C28.7999 18.7092 28.5345 19.1809 27.998 20.1184L21.9571 30.797L21.9415 30.8244C21.4094 31.7554 21.1398 32.2273 20.7661 32.5834C20.3593 32.9726 19.87 33.2555 19.3335 33.4147C18.8441 33.5503 18.2958 33.5503 17.1991 33.5503Z" fill="white"/>
<path fill-rule="evenodd" clip-rule="evenodd" d="M28.9614 33.5509H35.6356C36.6202 33.5509 37.1154 33.5509 37.4102 33.3563C37.7286 33.1499 37.929 32.8021 37.9468 32.4248C37.9638 32.0884 37.7273 31.6803 37.2639 30.8807C37.2481 30.8534 37.232 30.8257 37.2156 30.7975L33.8727 25.0785L33.8346 25.0142C33.3649 24.2197 33.1276 23.8186 32.8232 23.6635C32.4872 23.4925 32.0922 23.4925 31.7561 23.6635C31.4495 23.8227 31.2018 24.2413 30.7125 25.0844L27.3814 30.8034L27.3699 30.8231C26.8823 31.6648 26.6386 32.0855 26.6562 32.4307C26.6798 32.808 26.8743 33.1559 27.1927 33.3622C27.4816 33.5509 27.9768 33.5509 28.9614 33.5509Z" fill="white"/>
</svg>
