<svg width="48" height="48" viewBox="0 0 48 48" fill="none" xmlns="http://www.w3.org/2000/svg">
<circle cx="24" cy="24" r="24" fill="#0033AD"/>
<path d="M16.7682 23.8871C16.6999 25.0941 17.6083 26.129 18.7978 26.1995H18.9155C20.089 26.1982 21.0456 25.2443 21.0672 24.0539C21.0887 22.8636 20.1674 21.8746 18.9948 21.8295C17.8222 21.7844 16.8297 22.6997 16.7623 23.8883L16.7682 23.8871Z" fill="white"/>
<path d="M8.73465 23.3329C8.35114 23.3111 8.02279 23.6088 8.00113 23.9979C7.97947 24.387 8.2727 24.7203 8.65619 24.7425C9.03969 24.7647 9.36833 24.4673 9.39038 24.0782C9.4013 23.8911 9.33826 23.7072 9.21519 23.5673C9.09212 23.4274 8.91919 23.3431 8.73465 23.3329Z" fill="white"/>
<path d="M16.6317 11.2011C16.9732 11.0232 17.1085 10.5986 16.9344 10.2514C16.7603 9.90427 16.3423 9.76537 15.9995 9.94076C15.6567 10.1161 15.5183 10.5398 15.6899 10.8882C15.7733 11.0569 15.9197 11.1849 16.0965 11.2436C16.2734 11.3024 16.466 11.2871 16.6317 11.2011Z" fill="white"/>
<path d="M18.8178 15.0686C19.3483 14.7971 19.5615 14.1407 19.294 13.6025C19.0265 13.0642 18.3797 12.8477 17.8491 13.1189C17.3184 13.3902 17.1049 14.0464 17.3721 14.5849C17.5005 14.8436 17.725 15.0399 17.9962 15.1307C18.2673 15.2214 18.5629 15.1991 18.8178 15.0686Z" fill="white"/>
<path d="M11.4612 17.7287C11.7608 17.9286 12.1497 17.9257 12.4464 17.7212C12.7431 17.5167 12.8891 17.151 12.8163 16.7946C12.7435 16.4383 12.4662 16.1616 12.1139 16.0936C11.7615 16.0256 11.4035 16.1798 11.2069 16.4841C10.9387 16.8991 11.0525 17.456 11.4612 17.7287Z" fill="white"/>
<path d="M12.7715 22.9351C12.1783 22.9012 11.6702 23.3614 11.6366 23.9632C11.6029 24.565 12.0563 25.0806 12.6495 25.115C13.2426 25.1494 13.751 24.6895 13.7851 24.0877C13.8185 23.4856 13.3649 22.9698 12.7715 22.9351Z" fill="white"/>
<path d="M11.5789 30.2749C11.142 30.4989 10.9668 31.0398 11.1874 31.4831C11.4081 31.9264 11.9411 32.1043 12.3781 31.8806C12.8151 31.6568 12.9907 31.1161 12.7703 30.6727C12.6643 30.4595 12.4793 30.2979 12.2558 30.2233C12.0324 30.1487 11.7888 30.1673 11.5789 30.2749Z" fill="white"/>
<path d="M15.7617 20.6789C16.3468 21.0679 17.1319 20.9021 17.5154 20.3085C17.8989 19.7149 17.7355 18.9183 17.1505 18.5292C16.5655 18.14 15.7803 18.3057 15.3967 18.8992C15.2121 19.1842 15.1469 19.532 15.2153 19.8658C15.2838 20.1997 15.4804 20.4922 15.7617 20.6789Z" fill="white"/>
<path d="M29.0316 14.9826C29.5298 15.3123 30.197 15.17 30.5221 14.6647C30.8473 14.1593 30.7072 13.4823 30.2092 13.1523C29.7112 12.8223 29.0439 12.9642 28.7185 13.4693C28.5617 13.712 28.5067 14.008 28.5654 14.2919C28.6242 14.5759 28.7919 14.8244 29.0316 14.9826Z" fill="white"/>
<path d="M31.2401 11.127C31.476 11.2838 31.7817 11.281 32.0147 11.1199C32.2477 10.9588 32.3621 10.6711 32.3044 10.3911C32.2468 10.1111 32.0285 9.89384 31.7515 9.84079C31.4744 9.78773 31.1931 9.9093 31.0388 10.1488C30.8284 10.4753 30.9185 10.9131 31.2401 11.127Z" fill="white"/>
<path d="M29.2012 21.8064C28.013 21.7371 26.9944 22.6583 26.9261 23.8638C26.8579 25.0693 27.7657 26.1028 28.9539 26.172C28.9951 26.172 29.0375 26.172 29.0787 26.172C29.9278 26.1716 30.6975 25.6652 31.0442 24.8788C31.391 24.0924 31.2501 23.1728 30.6845 22.5302C30.3057 22.0969 29.7713 21.8361 29.2012 21.8064Z" fill="white"/>
<path d="M19.5253 20.5272C19.8901 21.2666 20.6363 21.7326 21.4513 21.73C22.2004 21.7301 22.8958 21.3357 23.2881 20.6883C23.6804 20.0409 23.7133 19.2332 23.3749 18.5552C23.0076 17.8192 22.2621 17.3568 21.449 17.3607C20.7023 17.362 20.0094 17.7553 19.6177 18.4002C19.2259 19.0451 19.1909 19.8498 19.5253 20.5272Z" fill="white"/>
<path d="M36.4189 17.7262C36.8558 17.5025 37.0314 16.9619 36.8111 16.5185C36.5908 16.0751 36.0581 15.8967 35.6209 16.1199C35.1838 16.3432 35.0077 16.8837 35.2275 17.3273C35.4481 17.771 35.9813 17.9495 36.4189 17.7262Z" fill="white"/>
<path d="M30.9553 18.4226C30.3304 18.7418 30.079 19.5146 30.3937 20.1485C30.7084 20.7824 31.47 21.0375 32.0948 20.7183C32.7197 20.399 32.9711 19.6262 32.6564 18.9923C32.5055 18.6876 32.2414 18.4564 31.9223 18.3495C31.6032 18.2426 31.2553 18.2689 30.9553 18.4226Z" fill="white"/>
<path d="M23.9177 10.7974C24.2757 10.8181 24.6107 10.6179 24.7665 10.2902C24.9223 9.96244 24.8681 9.57178 24.6293 9.30039C24.3904 9.029 24.014 8.93035 23.6754 9.05045C23.3369 9.17055 23.1031 9.48575 23.083 9.84901C23.0556 10.3447 23.4291 10.7692 23.9177 10.7974Z" fill="white"/>
<path d="M23.9082 16.4578C24.6065 16.4976 25.2044 15.9556 25.2439 15.2472C25.2833 14.5387 24.7494 13.9319 24.0512 13.8915C23.353 13.8512 22.7546 14.3926 22.7145 15.101C22.675 15.81 23.2094 16.4174 23.9082 16.4578Z" fill="white"/>
<path d="M17.0449 29.5774C17.5024 29.3434 17.7759 28.8527 17.7378 28.3343C17.6997 27.8159 17.3576 27.3718 16.8709 27.2091C16.3843 27.0465 15.8489 27.1973 15.5146 27.5913C15.1803 27.9852 15.1129 28.5447 15.3437 29.0088C15.6588 29.6423 16.4203 29.8968 17.0449 29.5774Z" fill="white"/>
<path d="M24.7264 18.333C24.1859 19.1699 24.2745 20.2722 24.9414 21.0093C25.6083 21.7463 26.6833 21.9298 27.5512 21.4547C28.4191 20.9797 28.8584 19.9674 28.6175 18.9972C28.3767 18.027 27.5173 17.3465 26.5311 17.3452C25.8039 17.3447 25.1254 17.7161 24.7264 18.333Z" fill="white"/>
<path d="M28.4724 27.474C27.9948 26.513 26.8986 26.0478 25.8888 26.3775C24.8789 26.7073 24.256 27.7338 24.4205 28.7971C24.585 29.8605 25.488 30.644 26.5488 30.644C26.886 30.6417 27.2181 30.5599 27.5189 30.4051C28.578 29.8612 29.0043 28.5508 28.4724 27.474Z" fill="white"/>
<path d="M32.2373 27.3211C31.6525 26.9315 30.8671 27.0968 30.4832 27.6902C30.0993 28.2835 30.2621 29.0803 30.847 29.4698C31.4318 29.8594 32.2171 29.6941 32.6011 29.1008C32.9836 28.5071 32.821 27.7114 32.2373 27.3211Z" fill="white"/>
<path d="M36.3624 24.0376C36.3958 23.4358 35.9422 22.9204 35.3491 22.8862C34.7559 22.852 34.2477 23.3121 34.2138 23.9139C34.1799 24.5157 34.6332 25.0315 35.2263 25.066C35.8198 25.1 36.3282 24.6398 36.3624 24.0376Z" fill="white"/>
<path d="M39.3432 23.2601C39.0617 23.2436 38.7983 23.4008 38.6756 23.6583C38.553 23.9158 38.5953 24.223 38.7828 24.4365C38.9704 24.65 39.2662 24.7279 39.5324 24.6338C39.7986 24.5397 39.9827 24.2921 39.9989 24.0066C40.0203 23.617 39.7271 23.2832 39.3432 23.2601Z" fill="white"/>
<path d="M36.5366 30.2714C36.1271 29.9993 35.5778 30.1154 35.3095 30.5308C35.0412 30.9462 35.1555 31.5036 35.5648 31.7759C35.9741 32.0482 36.5235 31.9324 36.7921 31.5172C36.9211 31.3176 36.9667 31.0742 36.9188 30.8406C36.8709 30.6069 36.7334 30.4022 36.5366 30.2714Z" fill="white"/>
<path d="M16.7588 36.873C16.437 36.6587 16.005 36.7497 15.7938 37.0761C15.5826 37.4025 15.6722 37.8409 15.9939 38.0552C16.3156 38.2695 16.7476 38.1787 16.9589 37.8524C17.0605 37.6956 17.0964 37.5043 17.0589 37.3206C17.0213 37.1369 16.9134 36.9759 16.7588 36.873Z" fill="white"/>
<path d="M31.3661 36.7989C31.1144 36.9276 30.9639 37.1975 30.9848 37.4827C31.0057 37.768 31.1939 38.0123 31.4617 38.1019C31.7294 38.1914 32.0239 38.1084 32.2079 37.8917C32.3918 37.675 32.429 37.3672 32.302 37.1118C32.219 36.9442 32.0737 36.817 31.8981 36.7582C31.7225 36.6995 31.5311 36.7141 31.3661 36.7989Z" fill="white"/>
<path d="M23.2714 29.6634C23.8119 28.8265 23.7233 27.724 23.0562 26.987C22.3891 26.2499 21.3139 26.0666 20.446 26.542C19.5781 27.0173 19.1392 28.0299 19.3805 29.0001C19.6217 29.9704 20.4816 30.6505 21.4678 30.6512C22.1952 30.6537 22.8743 30.2818 23.2714 29.6634Z" fill="white"/>
<path d="M18.9661 33.0186C18.4689 32.6886 17.8022 32.8299 17.4768 33.3342C17.1514 33.8385 17.2904 34.515 17.7874 34.8453C18.2844 35.1757 18.9512 35.0348 19.2769 34.5307C19.6023 34.026 19.4632 33.3493 18.9661 33.0186Z" fill="white"/>
<path d="M23.9895 37.2026C23.5008 37.1744 23.082 37.5535 23.0541 38.0493C23.0262 38.5452 23.3997 38.9701 23.8884 38.9985C24.3772 39.0269 24.7961 38.6481 24.8241 38.1522C24.8376 37.914 24.7573 37.6801 24.6007 37.502C24.4442 37.3239 24.2243 37.2162 23.9895 37.2026Z" fill="white"/>
<path d="M23.9989 31.5434C23.487 31.5118 23.0069 31.7965 22.7828 32.2644C22.5586 32.7324 22.6346 33.2913 22.9753 33.6801C23.316 34.069 23.8542 34.211 24.3385 34.04C24.8228 33.8689 25.1577 33.4185 25.1867 32.8991C25.2269 32.1922 24.6955 31.5857 23.9989 31.5434Z" fill="white"/>
<path d="M29.18 32.9314C28.7912 33.1315 28.5597 33.5496 28.5934 33.9905C28.6271 34.4315 28.9195 34.8083 29.334 34.9452C29.7485 35.0821 30.2035 34.952 30.4865 34.6157C30.7696 34.2793 30.825 33.8031 30.6268 33.4091C30.4976 33.1509 30.2725 32.9554 30.0011 32.8658C29.7296 32.7762 29.4342 32.7998 29.18 32.9314Z" fill="white"/>
</svg>
