<svg width="48" height="48" viewBox="0 0 48 48" fill="none" xmlns="http://www.w3.org/2000/svg">
<circle cx="24" cy="24" r="24" fill="#A5A8A9"/>
<path d="M24.389 24.7896L21.8926 33.2134H35.2453C35.4606 33.2139 35.6631 33.3156 35.7921 33.488C35.921 33.6603 35.9615 33.8833 35.9013 34.09L34.7402 38.09C34.6264 38.4826 34.2665 38.7525 33.8578 38.7518H13.463L16.9115 27.106L13.0972 28.2671L13.939 25.5443L17.7591 24.3832L22.6009 8.02323C22.7102 7.62925 23.0686 7.35632 23.4775 7.3556H28.6444C28.8593 7.35483 29.0622 7.45499 29.1923 7.62613C29.3223 7.79727 29.3645 8.01953 29.3062 8.22642L25.2424 22.061L29.0566 20.8999L28.238 23.6691L24.389 24.7896Z" fill="white"/>
</svg>
