<svg width="48" height="48" viewBox="0 0 48 48" fill="none" xmlns="http://www.w3.org/2000/svg">
<circle cx="24" cy="24" r="24" fill="#F7F9FB"/>
<path d="M38.4174 9L25.9166 18.375L28.2412 12.85L38.4174 9Z" fill="#E17726" stroke="#E17726" stroke-width="0.25" stroke-linecap="round" stroke-linejoin="round"/>
<path d="M9.58267 9L21.9722 18.4625L19.7589 12.85L9.58267 9Z" fill="#E27625" stroke="#E27625" stroke-width="0.25" stroke-linecap="round" stroke-linejoin="round"/>
<path d="M33.9163 30.7374L30.5902 35.8874L37.7123 37.875L39.7526 30.85L33.9163 30.7374Z" fill="#E27625" stroke="#E27625" stroke-width="0.25" stroke-linecap="round" stroke-linejoin="round"/>
<path d="M8.25955 30.85L10.2874 37.875L17.3971 35.8874L14.0834 30.7374L8.25955 30.85Z" fill="#E27625" stroke="#E27625" stroke-width="0.25" stroke-linecap="round" stroke-linejoin="round"/>
<path d="M17.0138 22.0374L15.0354 25.0624L22.0833 25.3874L21.8484 17.7L17.0138 22.0374Z" fill="#E27625" stroke="#E27625" stroke-width="0.25" stroke-linecap="round" stroke-linejoin="round"/>
<path d="M30.9859 22.0375L26.0771 17.6125L25.9164 25.3875L32.9642 25.0625L30.9859 22.0375Z" fill="#E27625" stroke="#E27625" stroke-width="0.25" stroke-linecap="round" stroke-linejoin="round"/>
<path d="M17.3972 35.8874L21.663 33.7999L17.9908 30.8999L17.3972 35.8874Z" fill="#E27625" stroke="#E27625" stroke-width="0.25" stroke-linecap="round" stroke-linejoin="round"/>
<path opacity="0.8" d="M26.337 33.7999L30.5904 35.8874L30.0092 30.8999L26.337 33.7999Z" fill="#E27625" stroke="#E27625" stroke-width="0.25" stroke-linecap="round" stroke-linejoin="round"/>
<path d="M30.5904 35.8876L26.337 33.8002L26.6831 36.6001L26.646 37.7876L30.5904 35.8876Z" fill="#D5BFB2" stroke="#D5BFB2" stroke-width="0.25" stroke-linecap="round" stroke-linejoin="round"/>
<path d="M17.3972 35.8876L21.354 37.7876L21.3293 36.6001L21.663 33.8002L17.3972 35.8876Z" fill="#D5BFB2" stroke="#D5BFB2" stroke-width="0.25" stroke-linecap="round" stroke-linejoin="round"/>
<path d="M21.428 29.05L17.8917 28.0001L20.3894 26.8375L21.428 29.05Z" fill="#233447" stroke="#233447" stroke-width="0.25" stroke-linecap="round" stroke-linejoin="round"/>
<path d="M26.5719 29.05L27.6105 26.8375L30.1206 28.0001L26.5719 29.05Z" fill="#233447" stroke="#233447" stroke-width="0.25" stroke-linecap="round" stroke-linejoin="round"/>
<path d="M17.3971 35.8874L18.0154 30.7374L14.0834 30.85L17.3971 35.8874Z" fill="#CC6228" stroke="#CC6228" stroke-width="0.25" stroke-linecap="round" stroke-linejoin="round"/>
<path d="M29.9844 30.7374L30.5903 35.8874L33.9164 30.85L29.9844 30.7374Z" fill="#CC6228" stroke="#CC6228" stroke-width="0.25" stroke-linecap="round" stroke-linejoin="round"/>
<path d="M32.9642 25.0624L25.9164 25.3874L26.5717 29.05L27.6104 26.8374L30.1204 27.9999L32.9642 25.0624Z" fill="#CC6228" stroke="#CC6228" stroke-width="0.25" stroke-linecap="round" stroke-linejoin="round"/>
<path d="M17.8917 27.9999L20.3894 26.8374L21.428 29.05L22.0833 25.3874L15.0354 25.0624L17.8917 27.9999Z" fill="#CC6228" stroke="#CC6228" stroke-width="0.25" stroke-linecap="round" stroke-linejoin="round"/>
<path d="M15.0357 25.0624L17.9909 30.8999L17.8919 27.9999L15.0357 25.0624Z" fill="#E27525" stroke="#E27525" stroke-width="0.25" stroke-linecap="round" stroke-linejoin="round"/>
<path d="M30.1206 27.9999L30.0093 30.8999L32.9645 25.0624L30.1206 27.9999Z" fill="#E27525" stroke="#E27525" stroke-width="0.25" stroke-linecap="round" stroke-linejoin="round"/>
<path d="M22.0837 25.3875L21.4283 29.05L22.2568 33.3749L22.4423 27.675L22.0837 25.3875Z" fill="#E27525" stroke="#E27525" stroke-width="0.25" stroke-linecap="round" stroke-linejoin="round"/>
<path d="M25.9166 25.3875L25.5703 27.6625L25.7434 33.3749L26.5719 29.05L25.9166 25.3875Z" fill="#E27525" stroke="#E27525" stroke-width="0.25" stroke-linecap="round" stroke-linejoin="round"/>
<path d="M26.5719 29.05L25.7434 33.375L26.337 33.8L30.0093 30.9L30.1206 28L26.5719 29.05Z" fill="#F5841F" stroke="#F5841F" stroke-width="0.25" stroke-linecap="round" stroke-linejoin="round"/>
<path d="M17.8917 28L17.9907 30.9L21.6629 33.8L22.2565 33.375L21.428 29.05L17.8917 28Z" fill="#F5841F" stroke="#F5841F" stroke-width="0.25" stroke-linecap="round" stroke-linejoin="round"/>
<path d="M26.6461 37.7875L26.6831 36.6L26.3617 36.3249H21.6384L21.3293 36.6L21.354 37.7875L17.3972 35.8875L18.7821 37.0374L21.5889 39H26.3987L29.2179 37.0374L30.5904 35.8875L26.6461 37.7875Z" fill="#C0AC9D" stroke="#C0AC9D" stroke-width="0.25" stroke-linecap="round" stroke-linejoin="round"/>
<path d="M26.3369 33.7999L25.7433 33.375H22.2565L21.663 33.7999L21.3292 36.6L21.6383 36.325H26.3616L26.6831 36.6L26.3369 33.7999Z" fill="#161616" stroke="#161616" stroke-width="0.25" stroke-linecap="round" stroke-linejoin="round"/>
<path d="M38.949 18.9875L40 13.8125L38.4173 9L26.337 18.0625L30.9861 22.0375L37.5517 23.975L38.9985 22.2625L38.3679 21.8L39.3694 20.875L38.6028 20.275L39.6044 19.5L38.949 18.9875Z" fill="#763E1A" stroke="#763E1A" stroke-width="0.25" stroke-linecap="round" stroke-linejoin="round"/>
<path d="M8 13.8125L9.06337 18.9875L8.38331 19.5L9.39722 20.275L8.6306 20.875L9.63215 21.8L9.00154 22.2625L10.4482 23.975L17.014 22.0375L21.663 18.0625L9.58269 9L8 13.8125Z" fill="#763E1A" stroke="#763E1A" stroke-width="0.25" stroke-linecap="round" stroke-linejoin="round"/>
<path d="M37.5518 23.9749L30.9861 22.0375L32.9645 25.0625L30.0093 30.8999L33.9166 30.85H39.7527L37.5518 23.9749Z" fill="#F5841F" stroke="#F5841F" stroke-width="0.25" stroke-linecap="round" stroke-linejoin="round"/>
<path d="M17.0138 22.0375L10.4481 23.9749L8.25955 30.85H14.0834L17.9906 30.8999L15.0354 25.0625L17.0138 22.0375Z" fill="#F5841F" stroke="#F5841F" stroke-width="0.25" stroke-linecap="round" stroke-linejoin="round"/>
<path d="M25.9165 25.3875L26.3369 18.0624L28.241 12.85H19.7588L21.663 18.0624L22.0834 25.3875L22.2441 27.6875L22.2565 33.375H25.7433L25.7557 27.6875L25.9165 25.3875Z" fill="#F5841F" stroke="#F5841F" stroke-width="0.25" stroke-linecap="round" stroke-linejoin="round"/>
</svg>
