<svg width="48" height="48" viewBox="0 0 48 48" fill="none" xmlns="http://www.w3.org/2000/svg">
<circle cx="24" cy="24" r="24" fill="url(#paint0_linear_101_1797)"/>
<path fill-rule="evenodd" clip-rule="evenodd" d="M23.929 39.9375C19.2582 39.934 15.4957 38.8132 12.8669 36.8001C10.2065 34.7627 8.79514 31.8716 8.79514 28.6002C8.79514 25.448 10.2034 23.175 11.7968 21.6386C13.0455 20.4345 14.4235 19.6634 15.383 19.2198C15.1661 18.5539 14.8953 17.6821 14.6531 16.7817C14.3291 15.5768 14.0111 14.1632 14.0111 13.1273C14.0111 11.9011 14.2785 10.6697 14.9993 9.71285C15.7608 8.70195 16.9073 8.1604 18.2865 8.1604C19.3644 8.1604 20.2796 8.5602 20.9961 9.25C21.6809 9.9093 22.1367 10.785 22.4514 11.6977C23.0044 13.3016 23.2198 15.3166 23.2802 17.3275H24.6013C24.6617 15.3166 24.877 13.3016 25.43 11.6977C25.7447 10.785 26.2005 9.9093 26.8854 9.25C27.6018 8.5602 28.517 8.1604 29.5949 8.1604C30.9742 8.1604 32.1206 8.70195 32.8822 9.71285C33.603 10.6697 33.8703 11.9011 33.8703 13.1273C33.8703 14.1632 33.5524 15.5768 33.2283 16.7817C32.9861 17.6821 32.7154 18.5539 32.4984 19.2198C33.4579 19.6634 34.8359 20.4345 36.0846 21.6386C37.6781 23.175 39.0863 25.448 39.0863 28.6002C39.0863 31.8716 37.675 34.7627 35.0146 36.8001C32.3857 38.8132 28.6233 39.934 23.9524 39.9375H23.929Z" fill="#633001"/>
<path d="M18.2865 9.32642C16.2663 9.32642 15.3364 10.8489 15.3364 12.9544C15.3364 14.628 16.4169 17.9797 16.8602 19.2845C16.9599 19.578 16.8032 19.8995 16.5175 20.0133C14.8985 20.6582 10.1205 23.0195 10.1205 28.4273C10.1205 34.1239 14.976 38.419 23.93 38.4258C23.9335 38.4258 23.9371 38.4258 23.9407 38.4258C23.9442 38.4258 23.9478 38.4258 23.9514 38.4258C32.9053 38.419 37.7609 34.1239 37.7609 28.4273C37.7609 23.0195 32.9829 20.6582 31.3638 20.0133C31.0781 19.8995 30.9214 19.578 31.0211 19.2845C31.4644 17.9797 32.5449 14.628 32.5449 12.9544C32.5449 10.8489 31.615 9.32642 29.5949 9.32642C26.687 9.32642 25.9621 13.4876 25.9104 17.9535C25.907 18.2517 25.6684 18.4936 25.3732 18.4936H22.5081C22.2129 18.4936 21.9744 18.2517 21.9709 17.9535C21.9192 13.4876 21.1943 9.32642 18.2865 9.32642Z" fill="#D1884F"/>
<path d="M23.9514 36.6011C17.3724 36.6011 10.1318 33.0435 10.1205 28.4382C10.1205 28.4454 10.1205 28.4526 10.1205 28.4598C10.1205 34.1609 14.9837 38.4583 23.9514 38.4583C32.919 38.4583 37.7822 34.1609 37.7822 28.4598C37.7822 28.4526 37.7822 28.4454 37.7822 28.4382C37.7709 33.0435 30.5303 36.6011 23.9514 36.6011Z" fill="#FEDC90"/>
<path d="M20.2959 27.0236C20.2959 28.5784 19.5685 29.3882 18.6713 29.3882C17.774 29.3882 17.0466 28.5784 17.0466 27.0236C17.0466 25.4687 17.774 24.6589 18.6713 24.6589C19.5685 24.6589 20.2959 25.4687 20.2959 27.0236Z" fill="#633001"/>
<path d="M30.8561 27.0236C30.8561 28.5784 30.1287 29.3882 29.2314 29.3882C28.3342 29.3882 27.6068 28.5784 27.6068 27.0236C27.6068 25.4687 28.3342 24.6589 29.2314 24.6589C30.1287 24.6589 30.8561 25.4687 30.8561 27.0236Z" fill="#633001"/>
<defs>
<linearGradient id="paint0_linear_101_1797" x1="0" y1="0" x2="0" y2="48" gradientUnits="userSpaceOnUse">
<stop stop-color="#53DEE9"/>
<stop offset="1" stop-color="#1FC7D4"/>
</linearGradient>
</defs>
</svg>
