<svg width="48" height="48" viewBox="0 0 48 48" fill="none" xmlns="http://www.w3.org/2000/svg">
<circle cx="24" cy="24" r="24" fill="url(#paint0_linear_101_1839)"/>
<path fill-rule="evenodd" clip-rule="evenodd" d="M41.1814 24.2923H36.9505C36.9505 15.6701 29.9365 8.68079 21.2835 8.68079C12.7377 8.68079 5.78988 15.499 5.61983 23.9735C5.44391 32.7335 13.6916 40.3404 22.4839 40.3404H23.5899C31.3413 40.3404 41.7306 34.294 43.3539 26.9268C43.6536 25.5688 42.5771 24.2923 41.1814 24.2923ZM14.9962 24.6765C14.9962 25.8295 14.0498 26.7725 12.8926 26.7725C11.7355 26.7725 10.7891 25.829 10.7891 24.6765V21.2855C10.7891 20.1326 11.7355 19.1895 12.8926 19.1895C14.0498 19.1895 14.9962 20.1326 14.9962 21.2855V24.6765ZM20.197 26.7725C21.3541 26.7725 22.3004 25.8295 22.3004 24.6765V21.2855C22.3004 20.1326 21.3541 19.1895 20.197 19.1895C19.0402 19.1895 18.0934 20.1326 18.0934 21.2855V24.6765C18.0934 25.829 19.0398 26.7725 20.197 26.7725Z" fill="url(#paint1_linear_101_1839)"/>
<defs>
<linearGradient id="paint0_linear_101_1839" x1="0" y1="0" x2="0" y2="48" gradientUnits="userSpaceOnUse">
<stop stop-color="#534BB1"/>
<stop offset="1" stop-color="#551BF9"/>
</linearGradient>
<linearGradient id="paint1_linear_101_1839" x1="5.61701" y1="8.68079" x2="5.61701" y2="40.3404" gradientUnits="userSpaceOnUse">
<stop stop-color="white"/>
<stop offset="1" stop-color="white" stop-opacity="0.82"/>
</linearGradient>
</defs>
</svg>
