<svg width="48" height="48" viewBox="0 0 48 48" fill="none" xmlns="http://www.w3.org/2000/svg">
<circle cx="24" cy="24" r="24" fill="#FAFAFA"/>
<path fill-rule="evenodd" clip-rule="evenodd" d="M32.4435 8.94696C32.3389 9.04899 32.2344 9.15101 32.129 9.25208C32.0665 9.32182 32.0039 9.39142 31.9412 9.46102C31.6526 9.78181 31.364 10.1026 31.0897 10.4363C30.6448 10.9779 30.2099 11.5269 29.8044 12.0988C29.6723 12.2849 29.6718 12.2847 29.4749 12.2098L29.4645 12.2058C28.5445 11.8556 27.5953 11.6116 26.6255 11.4496C25.5432 11.2687 24.4517 11.2181 23.3563 11.2563C22.5914 11.2829 21.8273 11.332 21.0734 11.4737C20.2017 11.6376 19.3506 11.8765 18.5298 12.2151C18.4003 12.2685 18.3238 12.251 18.2291 12.14C17.7624 11.5927 17.2879 11.0518 16.8095 10.5145C16.5832 10.2604 16.3521 10.0106 16.121 9.76074C16.0074 9.63805 15.8939 9.51536 15.781 9.39215C15.7684 9.37832 15.7577 9.36268 15.747 9.34705C15.7422 9.33993 15.7373 9.33281 15.7323 9.32586C15.6564 9.25107 15.5805 9.17632 15.5045 9.10157C15.3181 8.91802 15.1317 8.73448 14.9457 8.55045C14.293 7.90459 13.6046 7.30078 12.8304 6.80303C12.25 6.42989 11.6387 6.12853 10.9447 6.02075C10.5491 5.95934 10.3763 6.02322 10.1631 6.36222C9.97755 6.65712 9.86417 6.98266 9.77731 7.31582C9.61733 7.92939 9.57501 8.55979 9.55144 9.18977C9.5324 9.70113 9.53865 10.213 9.56402 10.7252C9.58999 11.2502 9.62751 11.7736 9.68179 12.2961C9.73457 12.8041 9.8037 13.3099 9.87867 13.8152C9.89577 13.9305 9.91686 14.0451 9.93795 14.1597C9.97678 14.3707 10.0156 14.5816 10.0295 14.7964C10.0572 14.9214 10.0851 15.0464 10.113 15.1714C10.1743 15.4459 10.2355 15.7204 10.2941 15.9954C10.4121 16.549 10.5566 17.0957 10.7117 17.6396C10.9149 18.3527 11.1453 19.057 11.4228 19.7452C11.4512 19.8156 11.4296 19.8786 11.3995 19.9441C11.0986 20.5979 10.8083 21.2563 10.5592 21.9319C10.5169 22.0469 10.4758 22.0653 10.3946 21.9582C10.392 21.9667 10.389 21.9745 10.3864 21.9811C10.3819 21.9927 10.3788 22.0008 10.3813 22.0035C10.4919 22.1189 10.4478 22.236 10.4037 22.3532C10.3982 22.3677 10.3927 22.3823 10.3875 22.3968C10.1397 23.0915 9.93419 23.7982 9.76178 24.5156C9.65417 24.9635 9.55535 25.4132 9.47819 25.8663C9.38713 26.4013 9.30989 26.9389 9.2664 27.4813C9.26435 27.5068 9.2623 27.5323 9.26025 27.5578C9.22907 27.9459 9.19793 28.3334 9.19232 28.7227C9.21346 28.7192 9.23459 28.7156 9.25573 28.712C9.5981 28.6537 9.94053 28.5954 10.2871 28.5675C11.0304 28.5075 11.7701 28.5139 12.5108 28.6276C14.5012 28.9334 16.0885 29.9406 17.4164 31.4092L17.5565 31.5639C17.5942 31.4765 17.6313 31.3907 17.6679 31.3059C17.7427 31.1328 17.8156 30.9639 17.8883 30.7948C18.1121 30.2744 18.381 29.7775 18.6739 29.2933C18.725 29.2088 18.7745 29.1234 18.824 29.038C18.9842 28.7615 19.1441 28.4854 19.3594 28.24C20.1315 27.3598 21.0377 26.687 22.1649 26.3347C22.7355 26.1563 23.3205 26.0355 23.9176 26.0371C25.0694 26.04 26.1584 26.3045 27.1477 26.9143C27.7893 27.3099 28.3448 27.8076 28.8382 28.3758C28.9784 28.5373 29.0948 28.7147 29.1879 28.9066C29.2559 29.047 29.3254 29.1866 29.3949 29.3262C29.6412 29.8205 29.8874 30.3148 30.064 30.8405C30.1197 31.0062 30.1749 31.1719 30.2314 31.3417C30.2549 31.4125 30.2788 31.4841 30.3029 31.5567C30.3705 31.4898 30.4369 31.4234 30.5028 31.3574C30.6444 31.2157 30.7835 31.0765 30.9263 30.9412C31.6992 30.2096 32.5683 29.6198 33.553 29.2121C34.3099 28.8986 35.0987 28.7134 35.9174 28.6309C36.6267 28.5594 37.3286 28.5933 38.0322 28.667C38.1797 28.6825 38.3264 28.7066 38.473 28.7307C38.5403 28.7417 38.6075 28.7528 38.6749 28.763C38.7148 28.655 38.6984 28.5475 38.6819 28.4403C38.674 28.3884 38.6661 28.3365 38.6645 28.2847C38.6525 27.8704 38.6262 27.456 38.5897 27.043C38.5475 26.5663 38.4887 26.0911 38.4133 25.618C38.29 24.8443 38.1204 24.0812 37.8959 23.3307C37.7585 22.8713 37.5933 22.4212 37.4262 21.9717C37.2833 21.5872 37.0976 21.223 36.912 20.8588C36.7922 20.6238 36.6724 20.3888 36.5641 20.1483C36.4677 19.9342 36.4129 19.7428 36.4951 19.4942C36.7754 18.6461 37.0149 17.7849 37.2422 16.9208C37.4354 16.1867 37.6234 15.4512 37.7826 14.7087C37.7891 14.6782 37.7987 14.6483 37.8082 14.6185C37.8127 14.6046 37.8171 14.5907 37.8213 14.5767C37.8386 14.4444 37.8673 14.3142 37.8961 14.1841C37.915 14.0987 37.9338 14.0135 37.9494 13.9276L37.965 13.8416C38.0633 13.2999 38.1616 12.7583 38.241 12.2132C38.3466 11.4879 38.42 10.7596 38.4481 10.0282C38.4826 9.13283 38.4479 8.24043 38.2143 7.36651C38.101 6.94241 37.9527 6.53485 37.7191 6.15937C37.6649 6.0722 37.6097 6.05537 37.5183 6.06244C36.8806 6.11184 36.2809 6.30102 35.7025 6.56074C34.8135 6.96006 34.0287 7.5195 33.2928 8.15223C32.9984 8.40531 32.7209 8.67614 32.4435 8.94696ZM32.3234 13.8564C32.3652 13.929 32.4291 13.9782 32.4931 14.0275C32.5313 14.057 32.5695 14.0864 32.6031 14.1209C32.7177 14.2385 32.8338 14.3547 32.9498 14.4708L32.95 14.4709L32.95 14.4709C33.2377 14.7587 33.5254 15.0465 33.7899 15.3577C34.0849 15.7049 34.366 16.0619 34.6367 16.4276C34.9216 16.8124 35.1901 17.2086 35.4462 17.613C35.457 17.6301 35.4655 17.6501 35.4739 17.6699C35.4948 17.7189 35.5153 17.7673 35.5715 17.7714C35.5929 17.7729 35.6291 17.659 35.648 17.5948C35.7144 17.3703 35.7835 17.1466 35.8525 16.9229L35.8526 16.9226C35.9458 16.6206 36.0389 16.3187 36.1258 16.0147C36.2974 15.414 36.4564 14.8104 36.5895 14.201C36.7351 13.5341 36.8608 12.8634 36.9374 12.1826C36.9883 11.7297 37.0171 11.2766 37.0345 10.8231C37.0486 10.4555 37.0079 10.0881 36.9675 9.72192L36.9556 9.61388C36.9528 9.60551 36.9495 9.5972 36.9461 9.58889C36.9391 9.5713 36.9321 9.55372 36.9301 9.53558C36.8869 9.15735 36.7697 8.80063 36.6122 8.45668C36.5345 8.28694 36.517 8.28523 36.3377 8.35618C35.716 8.60259 35.1288 8.91679 34.5792 9.29487C33.717 9.88804 32.9306 10.575 32.1776 11.2999C31.739 11.722 31.3207 12.164 30.9128 12.6159C30.8506 12.6847 30.8355 12.7224 30.9248 12.7877L31.0473 12.8771L31.0473 12.8771C31.3406 13.0911 31.6339 13.305 31.9162 13.5343C31.9583 13.5684 31.9981 13.6056 32.0381 13.6428L32.0381 13.6428L32.0381 13.6428C32.1253 13.724 32.2127 13.8054 32.3234 13.8564ZM11.0041 8.50422C11.08 8.33393 11.0981 8.30919 11.1837 8.32094C11.408 8.38751 11.633 8.48601 11.8502 8.59317C12.3194 8.82474 12.7678 9.09588 13.1974 9.39523C13.6085 9.68183 13.9968 9.99788 14.3801 10.3214C14.909 10.7676 15.406 11.2468 15.8955 11.7341C16.0851 11.9228 16.2668 12.1195 16.4485 12.3161L16.4485 12.3161L16.4485 12.3161C16.5451 12.4207 16.6416 12.5252 16.7394 12.6285C16.7966 12.689 16.8013 12.7286 16.7241 12.7808C16.3048 13.0641 15.9071 13.3768 15.518 13.6998C15.099 14.0476 14.7152 14.4332 14.3369 14.824C13.8689 15.3073 13.4516 15.8328 13.0459 16.3688C12.7203 16.7989 12.431 17.2523 12.1434 17.7073C12.1404 17.712 12.1377 17.717 12.135 17.7221C12.1245 17.7416 12.1139 17.7616 12.087 17.7616C12.0462 17.7616 12.035 17.7261 12.0259 17.697L12.0256 17.6962C11.9906 17.5844 11.9553 17.4727 11.92 17.361C11.8212 17.0485 11.7224 16.736 11.6314 16.4213C11.4824 15.9056 11.3376 15.3884 11.2068 14.8679C11.1018 14.4505 11.0094 14.03 10.9279 13.6067C10.8663 13.287 10.809 12.9668 10.7598 12.6454C10.7156 12.3556 10.6808 12.0644 10.6551 11.7718C10.6181 11.3494 10.5824 10.9268 10.604 10.5033C10.639 9.81825 10.7204 9.14066 11.0041 8.50422ZM17.7168 21.1824L17.7168 21.1824C17.7669 21.1783 17.8173 21.1741 17.8676 21.1703C18.1428 21.1495 18.4163 21.0973 18.6771 21.0033C18.8381 20.9453 18.9871 20.8509 19.0507 20.6826C19.1676 20.373 19.1937 20.0472 19.102 19.7314C18.9594 19.2402 18.5995 18.9089 18.2095 18.6055C17.8704 18.3416 17.4865 18.2356 17.0676 18.3063C16.345 18.4284 15.6094 19.0684 15.5207 19.8212C15.4817 20.1524 15.463 20.4688 15.6541 20.7673C15.7827 20.9684 15.9168 21.1366 16.1816 21.1579L16.2374 21.1624C16.5179 21.1851 16.7998 21.208 17.1138 21.2045C17.2991 21.2172 17.506 21.2 17.7168 21.1824ZM30.7599 21.2091C30.8731 21.2171 31.0327 21.2038 31.2062 21.1894C31.2817 21.1831 31.3599 21.1766 31.4381 21.1715C31.6667 21.1568 31.8832 21.1046 32.0224 20.8873C32.2178 20.5824 32.2982 20.2515 32.2487 19.8964C32.1622 19.2741 31.7988 18.8381 31.2728 18.5303C30.8524 18.2843 30.4034 18.2064 29.9316 18.3764C29.6571 18.4754 29.4361 18.6594 29.2284 18.8543C28.8608 19.1993 28.5798 19.5949 28.5383 20.1223C28.5001 20.6067 28.6967 20.8987 29.1557 21.0341C29.6488 21.1795 30.155 21.198 30.7599 21.2091ZM33.2464 23.2674L33.2465 23.3126C33.2436 23.3681 33.2399 23.4236 33.2362 23.4792C33.2275 23.6081 33.2189 23.737 33.2207 23.8657C33.2227 24.008 33.1575 24.1072 33.0693 24.2046C32.7333 24.5753 32.3186 24.8362 31.8796 25.0637C31.2189 25.4059 30.5194 25.6452 29.7992 25.8208C29.2397 25.9573 28.6731 26.0605 28.0926 26.0615C27.9379 26.0618 27.7898 26.0321 27.6424 25.9965C27.4861 25.9588 27.438 25.8737 27.4605 25.7286C27.5331 25.2597 27.8209 24.9207 28.143 24.606C28.4803 24.2764 28.8735 24.0209 29.2663 23.7656C29.348 23.7125 29.4296 23.6594 29.5108 23.6057C30.0931 23.2202 30.6863 22.8512 31.3122 22.5387C31.753 22.3186 32.2001 22.1079 32.6994 22.0639C33.0343 22.0344 33.0348 22.0362 33.127 22.3237L33.1411 22.3676L33.1539 22.4069C33.2453 22.6851 33.2459 22.9768 33.2464 23.2674V23.2674ZM14.8533 23.2652C14.8552 23.3 14.8583 23.3414 14.8617 23.3875C14.8712 23.5138 14.8833 23.676 14.8796 23.8377C14.8749 24.0442 14.9754 24.1821 15.112 24.3137C15.6783 24.8594 16.3731 25.1807 17.0956 25.453C17.5652 25.63 18.0464 25.7674 18.5369 25.8755C19.0286 25.9839 19.5237 26.0624 20.0274 26.0764C20.2074 26.0813 20.3862 26.0613 20.559 26.003C20.7056 25.9536 20.7516 25.8826 20.7279 25.7368C20.7072 25.609 20.6684 25.4874 20.6102 25.3716C20.3851 24.9237 20.0372 24.5811 19.6342 24.3026C18.5937 23.5836 17.538 22.8864 16.3708 22.3821C16.0159 22.2287 15.6512 22.1031 15.2531 22.1078C15.1179 22.1093 15.0591 22.1648 15.0103 22.2797C14.8988 22.5422 14.8815 22.8184 14.8597 23.165L14.8533 23.2652Z" fill="#F4A817"/>
<path d="M38.6748 28.763C38.7341 28.6028 38.6691 28.4437 38.6645 28.2847C38.6525 27.8704 38.6262 27.456 38.5896 27.043C38.5475 26.5663 38.4887 26.0911 38.4133 25.6179C38.2899 24.8443 38.1203 24.0811 37.8958 23.3307C37.7583 22.8712 37.5932 22.4212 37.4261 21.9717C37.1909 21.3391 36.8401 20.7615 36.5641 20.1482C36.4678 19.9342 36.4129 19.7428 36.4951 19.4942C36.7754 18.6461 37.0149 17.785 37.2421 16.9207C37.4352 16.1866 37.6233 15.4512 37.7825 14.7086C37.7921 14.664 37.8081 14.6206 37.8212 14.5767C38.2591 15.204 38.6377 15.8659 38.986 16.5464C39.4359 17.4253 39.8081 18.3364 40.1089 19.2755C40.3674 20.083 40.5663 20.9059 40.7129 21.7426C40.9232 22.9429 41.0168 24.1513 40.9975 25.3681C40.9828 26.2924 40.9039 27.2129 40.7512 28.1248C40.3652 30.4286 39.5901 32.5939 38.3908 34.6003C37.1713 36.6403 35.6132 38.378 33.6951 39.7895C32.633 40.5711 31.4957 41.2165 30.2809 41.7299C29.5705 42.0302 28.8436 42.2804 28.0988 42.4756C27.2901 42.6876 26.4687 42.8334 25.6358 42.9175C24.6162 43.0206 23.5957 43.026 22.5765 42.9394C21.7254 42.8671 20.8853 42.7198 20.0548 42.5121C18.9183 42.2278 17.8262 41.8262 16.7804 41.3042C14.2851 40.0587 12.2277 38.2914 10.5728 36.0515C9.70143 34.8723 8.99158 33.6024 8.42906 32.2483C8.10699 31.4731 7.83589 30.6811 7.62177 29.8706C7.39912 29.0278 7.23915 28.1724 7.13504 27.306C6.9829 26.0401 6.96201 24.7719 7.05877 23.5022C7.13731 22.4705 7.3023 21.4509 7.55559 20.4475C8.06334 18.436 8.87332 16.5548 10.0111 14.8172C10.0161 14.8096 10.0232 14.8033 10.0294 14.7964C10.1179 15.196 10.2088 15.5951 10.2941 15.9954C10.412 16.5489 10.5566 17.0956 10.7116 17.6395C10.9148 18.3527 11.1452 19.057 11.4227 19.7451C11.4511 19.8156 11.4295 19.8786 11.3994 19.944C11.0985 20.5979 10.8082 21.2563 10.5592 21.932C10.5168 22.0469 10.4757 22.0653 10.3945 21.9582C10.3873 21.9815 10.3773 21.9993 10.3813 22.0034C10.5056 22.1331 10.4344 22.2651 10.3874 22.3968C10.1396 23.0915 9.93412 23.7982 9.7617 24.5156C9.65409 24.9635 9.55527 25.4131 9.47817 25.8663C9.38706 26.4013 9.30981 26.9388 9.26632 27.4813C9.23319 27.8948 9.19822 28.3078 9.19224 28.7228C9.15884 29.2379 9.20625 29.7448 9.34156 30.2435C9.5418 30.9816 9.86512 31.6647 10.2668 32.3124C11.0752 33.6157 12.1169 34.7146 13.2696 35.7135C14.8713 37.1015 16.6398 38.232 18.5655 39.1182C18.9443 39.2927 19.3199 39.4708 19.7125 39.6162C20.0015 39.7232 20.2913 39.8235 20.5818 39.9239C20.763 39.9866 20.9467 40.0525 21.1307 40.1093C21.8126 40.3193 22.5109 40.4606 23.2197 40.5294C24.0266 40.6076 24.8315 40.5605 25.6325 40.4257C26.3493 40.305 27.0522 40.1304 27.7428 39.908C28.4548 39.6786 29.1492 39.4022 29.829 39.0887C30.7905 38.6455 31.7125 38.1327 32.5956 37.5496C33.4295 36.9988 34.2201 36.3917 34.955 35.7142C35.2687 35.425 35.5829 35.1351 35.8544 34.8035C35.8898 34.7965 35.9054 34.7696 35.9178 34.7397L35.9265 34.7391L35.9298 34.7311C35.9439 34.7193 35.9599 34.7091 35.9719 34.6954C36.4743 34.1304 36.9449 33.5423 37.3304 32.8886C37.5444 32.5259 37.7725 32.1711 37.9509 31.7889C38.2764 31.0918 38.5064 30.3648 38.6203 29.602C38.662 29.3234 38.6852 29.0446 38.6748 28.763Z" fill="#F00500"/>
<path d="M32.129 9.2521C31.7785 9.64324 31.4235 10.0302 31.0897 10.4363C30.6448 10.9779 30.2099 11.5269 29.8044 12.0988C29.67 12.2881 29.6719 12.2847 29.4645 12.2058C28.5444 11.8556 27.5953 11.6116 26.6255 11.4496C25.5431 11.2687 24.4516 11.2181 23.3563 11.2563C22.5914 11.2829 21.8273 11.3321 21.0734 11.4737C20.2017 11.6376 19.3507 11.8765 18.5298 12.2151C18.4002 12.2686 18.3238 12.251 18.2292 12.14C17.7625 11.5927 17.2879 11.0518 16.8095 10.5145C16.4721 10.1356 16.1239 9.76627 15.781 9.39217C15.7626 9.37204 15.7484 9.34807 15.7321 9.32594C16.7323 8.73773 17.7816 8.25598 18.8822 7.89012C19.8026 7.58416 20.7436 7.36489 21.7055 7.22661C22.933 7.05014 24.1629 7.02376 25.3961 7.12268C26.2434 7.19069 27.0793 7.33481 27.9053 7.53972C29.3636 7.90146 30.7403 8.46399 32.0484 9.199C32.0764 9.21473 32.1022 9.23431 32.129 9.2521Z" fill="#F00500"/>
<path fill-rule="evenodd" clip-rule="evenodd" d="M34.9551 35.7142C35.2687 35.425 35.5829 35.1351 35.8544 34.8035L35.8461 34.7938C35.8413 34.7917 35.8354 34.7907 35.8295 34.7896C35.813 34.7865 35.7963 34.7835 35.8024 34.7584C35.8041 34.7516 35.8172 34.7476 35.8302 34.7437C35.8358 34.742 35.8414 34.7403 35.846 34.7384C35.846 34.7386 35.846 34.7387 35.846 34.7389L35.8469 34.738C35.8466 34.7382 35.8463 34.7383 35.846 34.7384C35.851 34.6781 35.8907 34.6458 35.9348 34.6101C35.9477 34.5996 35.9611 34.5888 35.974 34.5768C35.9775 34.6079 35.9625 34.6313 35.9482 34.6535C35.9326 34.6779 35.9178 34.7009 35.9298 34.7311C35.9344 34.7272 35.9392 34.7235 35.944 34.7198C35.9539 34.7122 35.9638 34.7046 35.9719 34.6954C36.4742 34.1303 36.9448 33.5423 37.3304 32.8886C37.378 32.808 37.4262 32.7278 37.4744 32.6476C37.6433 32.3669 37.8122 32.0862 37.9509 31.7889C38.2764 31.0918 38.5064 30.3648 38.6203 29.6021C38.662 29.3234 38.6852 29.0446 38.6748 28.7629C38.6074 28.7527 38.5401 28.7417 38.4728 28.7306C38.3262 28.7065 38.1796 28.6825 38.0321 28.667C37.3286 28.5933 36.6266 28.5594 35.9173 28.6308C35.0987 28.7133 34.3099 28.8986 33.5528 29.2121C32.5682 29.6198 31.6992 30.2095 30.9263 30.9412C30.7836 31.0763 30.6448 31.2153 30.5034 31.3568C30.4373 31.4229 30.3707 31.4896 30.3029 31.5567C30.2739 31.4697 30.2455 31.3842 30.2173 31.2996C30.1657 31.1445 30.1151 30.9924 30.064 30.8404C29.8873 30.3147 29.641 29.8203 29.3948 29.3259C29.3253 29.1864 29.2558 29.0469 29.1878 28.9066C29.0947 28.7146 28.9783 28.5372 28.8381 28.3757C28.3447 27.8076 27.7893 27.3099 27.1476 26.9143C26.1584 26.3045 25.0693 26.0399 23.9175 26.037C23.3205 26.0355 22.7355 26.1562 22.1648 26.3346C21.0376 26.687 20.1314 27.3597 19.3593 28.2399C19.144 28.4854 18.984 28.7615 18.8238 29.0381C18.7743 29.1234 18.7249 29.2088 18.6738 29.2933C18.381 29.7775 18.1121 30.2744 17.8882 30.7948C17.8152 30.9645 17.742 31.1341 17.6669 31.308C17.6306 31.3921 17.5938 31.4772 17.5565 31.5638C17.5394 31.545 17.5234 31.5274 17.5082 31.5106C17.4752 31.4742 17.4457 31.4417 17.4163 31.4091C16.0883 29.9405 14.5012 28.9333 12.5107 28.6276C11.77 28.5138 11.0303 28.5075 10.287 28.5675C9.93981 28.5955 9.59675 28.6539 9.25375 28.7123C9.23324 28.7158 9.21274 28.7193 9.19223 28.7228C9.15884 29.2378 9.20625 29.7447 9.34156 30.2435C9.5418 30.9816 9.86505 31.6647 10.2668 32.3124C11.0752 33.6157 12.1169 34.7146 13.2695 35.7135C14.8713 37.1015 16.6398 38.232 18.5654 39.1182C18.6091 39.1384 18.6528 39.1585 18.6965 39.1787C19.0312 39.3334 19.3652 39.4877 19.7125 39.6162C20.0015 39.7232 20.2913 39.8235 20.5818 39.9239C20.619 39.9367 20.6563 39.9497 20.6937 39.9628C20.8384 40.0133 20.9845 40.0642 21.1308 40.1093C21.8126 40.3193 22.5109 40.4606 23.2197 40.5294C24.0266 40.6076 24.8315 40.5605 25.6324 40.4257C26.3493 40.305 27.0522 40.1304 27.7428 39.908C28.4548 39.6786 29.1492 39.4022 29.829 39.0887C30.7905 38.6455 31.7125 38.1327 32.5956 37.5496C33.4295 36.9989 34.2201 36.3917 34.9551 35.7142ZM27.949 33.8228L28.2445 33.8228L28.1677 34.1405C28.098 34.4287 28.0293 34.7126 27.9618 34.9968C27.9434 35.0744 27.8917 35.0746 27.8279 35.0743C27.6056 35.0735 27.6048 35.0756 27.5251 35.2836L27.5238 35.287C27.4334 35.523 27.3427 35.7588 27.2494 36.0013L27.2488 36.0031L27.0901 36.4159C27.0626 36.364 27.0307 36.3166 26.9995 36.2702C26.925 36.1591 26.8544 36.0539 26.8568 35.9094C26.8599 35.711 26.8613 35.5125 26.8627 35.314V35.314V35.3139C26.8644 35.0689 26.8661 34.8238 26.8712 34.5788C26.8733 34.4781 26.856 34.4555 26.7509 34.4738C25.8205 34.6363 24.8827 34.7164 23.9385 34.6806C23.3531 34.6583 22.7683 34.6156 22.1922 34.4974C22.1458 34.4879 22.0984 34.4836 22.0529 34.4795L22.0529 34.4795L22.0529 34.4795C22.0325 34.4777 22.0124 34.4759 21.993 34.4736C21.993 34.602 21.9921 34.7301 21.9912 34.8581V34.8581V34.8581C21.989 35.1652 21.9868 35.4714 21.9973 35.7771C22.0054 36.0115 21.9886 36.2257 21.8102 36.4081C21.6561 36.2013 21.5599 35.9601 21.4766 35.7145L21.4726 35.7026L21.4726 35.7026C21.4121 35.5242 21.3512 35.3442 21.3312 35.1554C21.3164 35.0138 21.2189 35.0259 21.133 35.0522C21.0025 35.0923 20.9629 35.0529 20.937 34.9219C20.9057 34.7635 20.8777 34.6046 20.8669 34.4448C20.8591 34.3298 20.823 34.2446 20.7336 34.1732C20.6846 34.1342 20.6402 34.0896 20.5957 34.045L20.5957 34.0449C20.5749 34.024 20.554 34.0031 20.5327 33.9828C20.4942 33.9459 20.5017 33.8991 20.5086 33.8554L20.5091 33.8526C20.515 33.8147 20.543 33.8187 20.5681 33.8223C20.5751 33.8234 20.5818 33.8243 20.5878 33.8243C20.7941 33.8249 21.0004 33.8263 21.2067 33.8276H21.2067H21.2068C21.3795 33.8288 21.5522 33.8299 21.7249 33.8306C21.7956 33.8309 21.8537 33.8418 21.8552 33.9299C21.8561 33.9859 21.8921 33.9876 21.9324 33.9895L21.9411 33.99C22.4348 34.0168 22.9289 34.0175 23.4231 34.0183H23.4231L23.5768 34.0186C23.635 34.0187 23.6694 34.0008 23.6977 33.9501C23.7277 33.8961 23.7599 33.8433 23.7921 33.7904L23.7921 33.7904C23.8267 33.7336 23.8612 33.6769 23.8931 33.6187L23.8933 33.6184C23.9477 33.5192 23.9986 33.4264 24.1392 33.4609C24.2029 33.4765 24.2148 33.4338 24.2146 33.3792L24.2145 33.3514C24.213 33.0096 24.2116 32.6677 24.215 32.326C24.2158 32.2587 24.1781 32.2436 24.1343 32.2261C24.128 32.2235 24.1214 32.2209 24.1149 32.2181C23.5848 31.9884 23.0846 31.7107 22.6782 31.2906C22.3424 30.9434 22.1359 30.5437 22.1659 30.042C22.1759 29.8756 22.1732 29.7084 22.1706 29.5412C22.1693 29.4633 22.1681 29.3854 22.1682 29.3075C22.1686 28.7864 22.5125 28.4419 23.0336 28.4416C23.8888 28.4412 24.744 28.4411 25.5991 28.4417C26.0599 28.4419 26.5266 28.9135 26.511 29.3742C26.5069 29.4946 26.5077 29.6153 26.5086 29.736C26.5104 29.9985 26.5122 30.261 26.4639 30.5211C26.3615 31.0739 26.0543 31.4964 25.6146 31.8299C25.3904 32 25.1477 32.1402 24.879 32.2288C24.819 32.2486 24.8036 32.2778 24.804 32.3372C24.8066 32.6838 24.8075 33.0303 24.8036 33.3769C24.8028 33.4521 24.8278 33.4777 24.8979 33.4658C25.0094 33.4468 25.0686 33.497 25.1193 33.5969C25.1325 33.623 25.1455 33.6504 25.1587 33.6781C25.2176 33.8019 25.2801 33.9331 25.3803 33.9917C25.4636 34.0402 25.5811 34.0307 25.6981 34.0213C25.747 34.0173 25.7958 34.0134 25.842 34.0137C25.944 34.0143 26.0461 34.0143 26.1482 34.0142C26.3512 34.0141 26.5542 34.0139 26.7571 34.0196C26.8614 34.0225 26.9321 34.0015 26.9716 33.8993C26.988 33.857 27.0178 33.822 27.0745 33.8221C27.3651 33.8231 27.6555 33.823 27.9488 33.8228H27.9489H27.949ZM24.2364 35.0191V35.0143L23.8436 35.0143L23.0583 35.0143H23.0574C22.9408 35.0142 22.8829 35.0142 22.8551 35.0431C22.8278 35.0716 22.8299 35.1283 22.834 35.241V35.241L22.8343 35.251C22.8366 35.3132 22.8663 35.3413 22.9097 35.3698C22.9941 35.4252 23.0867 35.4623 23.1794 35.4994C23.2142 35.5133 23.2491 35.5273 23.2835 35.5422C23.3714 35.5803 23.4187 35.572 23.4539 35.4675C23.5207 35.2696 23.5296 35.2702 23.7269 35.2832L23.7459 35.2844C23.8167 35.289 23.8547 35.3211 23.8865 35.374C23.9173 35.4252 23.9479 35.4765 23.9785 35.5278L23.9786 35.5279L23.9786 35.528L23.9787 35.5281C24.0207 35.5986 24.0627 35.6691 24.1053 35.7392C24.2196 35.9275 24.4035 35.9388 24.5473 35.7676C24.5817 35.7267 24.6162 35.6859 24.6507 35.6451L24.7339 35.5467L24.734 35.5466L24.734 35.5466L24.734 35.5466C24.8368 35.4248 24.8882 35.3638 24.9444 35.3591C25.0007 35.3544 25.0617 35.4065 25.184 35.5108L25.1841 35.5109C25.1912 35.517 25.1979 35.5238 25.2046 35.5306C25.2294 35.5556 25.2538 35.5804 25.2997 35.5696C25.4995 35.522 25.6483 35.3311 25.6543 35.1344C25.6576 35.0291 25.6148 35.0165 25.5255 35.0173C25.2086 35.0203 24.8917 35.0198 24.5748 35.0194H24.5745H24.5745C24.4618 35.0193 24.3491 35.0191 24.2364 35.0191ZM26.1074 40.2362H25.9808C26.0294 40.2665 26.0666 40.2562 26.1074 40.2362ZM25.9321 40.2665C25.8576 40.3037 25.7931 40.3276 25.6932 40.2969C25.7259 40.2929 25.7545 40.2843 25.7817 40.2762C25.8315 40.2614 25.8764 40.248 25.9321 40.2665ZM35.7369 34.8512L35.7591 34.8238L35.7443 34.8131L35.742 34.8198L35.7328 34.8473L35.7073 34.8769C35.6685 34.875 35.651 34.8946 35.6517 34.9324L35.6175 34.941L35.6269 34.9554L35.6522 34.9329C35.6795 34.9231 35.698 34.9045 35.7078 34.8773L35.7369 34.8512Z" fill="#FFFEFE"/>
<path d="M11.1837 8.32085C11.4081 8.38748 11.633 8.48599 11.8502 8.59316C12.3195 8.82465 12.7678 9.09578 13.1974 9.39515C13.6086 9.68174 13.9968 9.99786 14.3802 10.3213C14.909 10.7675 15.406 11.2468 15.8956 11.734C16.1859 12.0231 16.4576 12.3306 16.7394 12.6285C16.7966 12.6889 16.8013 12.7286 16.7241 12.7807C16.3048 13.0641 15.9071 13.3767 15.518 13.6997C15.0991 14.0475 14.7152 14.4332 14.3369 14.8239C13.8689 15.3073 13.4516 15.8327 13.0459 16.3687C12.7203 16.7989 12.431 17.2522 12.1434 17.7073C12.129 17.73 12.1208 17.7615 12.087 17.7615C12.0458 17.7615 12.0348 17.7254 12.0257 17.6962C11.8928 17.2716 11.7549 16.8485 11.6314 16.4212C11.4825 15.9056 11.3376 15.3883 11.2068 14.8678C11.1018 14.4505 11.0094 14.0299 10.9279 13.6067C10.8663 13.287 10.809 12.9668 10.7598 12.6453C10.7156 12.3556 10.6808 12.0643 10.6551 11.7717C10.6181 11.3494 10.5824 10.9267 10.604 10.5032C10.639 9.81823 10.7204 9.14064 11.0041 8.50412C11.0801 8.3339 11.0981 8.30911 11.1837 8.32085Z" fill="#F28F1F"/>
<path d="M36.9555 9.61389C36.9994 10.0159 37.0499 10.4193 37.0345 10.8231C37.017 11.2766 36.9883 11.7297 36.9373 12.1826C36.8608 12.8634 36.735 13.5341 36.5894 14.201C36.4564 14.8104 36.2973 15.4141 36.1257 16.0147C35.9745 16.5441 35.804 17.0672 35.6479 17.5949C35.629 17.659 35.5928 17.773 35.5714 17.7714C35.4926 17.7657 35.4839 17.6727 35.4461 17.6131C35.19 17.2086 34.9216 16.8125 34.6366 16.4276C34.3659 16.0619 34.0849 15.705 33.7898 15.3578C33.4186 14.9208 33.0016 14.5303 32.603 14.121C32.5132 14.0288 32.3901 13.9723 32.3233 13.8564C32.3481 13.8236 32.3795 13.794 32.3968 13.7575C32.5715 13.3882 32.7694 13.0316 32.9801 12.6817C33.2987 12.153 33.6517 11.6478 34.0655 11.1899C34.4997 10.7093 34.9902 10.2937 35.574 10C36.009 9.78123 36.4637 9.63072 36.9555 9.61389Z" fill="#F28B20"/>
<path d="M14.8533 23.2651C14.879 22.8707 14.8882 22.5669 15.0102 22.2798C15.059 22.1647 15.1178 22.1093 15.253 22.1077C15.6512 22.103 16.0158 22.2287 16.3707 22.3821C17.5379 22.8863 18.5936 23.5835 19.6341 24.3026C20.0371 24.5811 20.3849 24.9237 20.61 25.3716C20.6683 25.4874 20.707 25.609 20.7279 25.7368C20.7516 25.8826 20.7054 25.9535 20.5589 26.003C20.386 26.0613 20.2072 26.0813 20.0273 26.0763C19.5236 26.0623 19.0286 25.9838 18.5368 25.8754C18.0463 25.7673 17.5652 25.6299 17.0955 25.453C16.373 25.1807 15.6781 24.8594 15.112 24.3136C14.9754 24.182 14.8748 24.0441 14.8795 23.8378C14.8846 23.6168 14.8601 23.3952 14.8533 23.2651Z" fill="#1F1712"/>
<path d="M33.2464 23.3126C33.2367 23.497 33.218 23.6815 33.2205 23.8658C33.2225 24.008 33.1573 24.1072 33.0691 24.2047C32.7332 24.5754 32.3184 24.8363 31.8794 25.0638C31.2187 25.4059 30.5192 25.6452 29.7991 25.8209C29.2395 25.9574 28.6729 26.0605 28.0924 26.0615C27.9377 26.0618 27.7896 26.0321 27.6423 25.9966C27.4859 25.9589 27.4378 25.8737 27.4603 25.7287C27.533 25.2597 27.8207 24.9208 28.1428 24.606C28.5503 24.2078 29.0394 23.9178 29.5106 23.6058C30.093 23.2202 30.6862 22.8513 31.312 22.5387C31.7528 22.3186 32.1998 22.1079 32.6992 22.0639C33.0636 22.0319 33.0322 22.0367 33.1537 22.4069C33.2499 22.6996 33.2456 23.0071 33.2464 23.3126Z" fill="#1F1713"/>
<path d="M36.9555 9.61377C36.4637 9.6306 36.009 9.78111 35.574 9.99989C34.9902 10.2936 34.4997 10.7092 34.0655 11.1898C33.6517 11.6477 33.2987 12.1529 32.9802 12.6816C32.7695 13.0315 32.5715 13.3881 32.3968 13.7574C32.3795 13.7938 32.3481 13.8235 32.3233 13.8563C32.1619 13.782 32.05 13.6428 31.9162 13.5342C31.5945 13.273 31.2586 13.0317 30.9247 12.7876C30.8355 12.7223 30.8506 12.6846 30.9127 12.6158C31.3206 12.1639 31.7391 11.7219 32.1775 11.2998C32.9305 10.5749 33.7169 9.88799 34.5791 9.29482C35.1287 8.91667 35.716 8.60246 36.3377 8.35613C36.5169 8.2851 36.5345 8.28689 36.6121 8.45656C36.7696 8.80058 36.8869 9.15723 36.93 9.53546C36.933 9.56218 36.9468 9.58766 36.9555 9.61377Z" fill="#F2991D"/>
<path d="M30.7599 21.209C30.1548 21.198 29.6487 21.1795 29.1556 21.0341C28.6967 20.8987 28.5001 20.6067 28.5382 20.1222C28.5797 19.5948 28.8607 19.1993 29.2284 18.8542C29.436 18.6593 29.6571 18.4753 29.9316 18.3763C30.4032 18.2063 30.8523 18.2843 31.2727 18.5303C31.7987 18.8381 32.1621 19.274 32.2488 19.8963C32.2982 20.2515 32.2177 20.5824 32.0223 20.8872C31.8831 21.1045 31.6667 21.1567 31.4381 21.1715C31.1802 21.1881 30.9225 21.2206 30.7599 21.209Z" fill="#FFFEFE"/>
<path d="M17.1137 21.2046C16.779 21.2082 16.4806 21.1819 16.1816 21.1578C15.9167 21.1365 15.7827 20.9683 15.654 20.7673C15.4628 20.4688 15.4816 20.1524 15.5206 19.8212C15.6093 19.0684 16.345 18.4284 17.0676 18.3063C17.4864 18.2356 17.8703 18.3416 18.2095 18.6055C18.5994 18.9089 18.9593 19.2402 19.1019 19.7313C19.1936 20.0472 19.1676 20.3729 19.0506 20.6826C18.987 20.8509 18.8379 20.9452 18.677 21.0033C18.4163 21.0973 18.1427 21.1495 17.8675 21.1703C17.6057 21.19 17.3431 21.2202 17.1137 21.2046Z" fill="#FFFEFE"/>
<path d="M35.8459 34.7389C35.8521 34.6604 35.9169 34.6294 35.9739 34.5768C35.9812 34.6422 35.9068 34.6736 35.9297 34.7311C35.9297 34.7311 35.9265 34.7392 35.9265 34.7392L35.9177 34.7397C35.8938 34.7394 35.8698 34.7392 35.8459 34.7389Z" fill="#F6D9A7"/>
<path d="M35.8459 34.739C35.8698 34.7392 35.8938 34.7395 35.9177 34.7398C35.9053 34.7697 35.8897 34.7965 35.8543 34.8036C35.8543 34.8036 35.8461 34.7938 35.8461 34.7938C35.8463 34.7752 35.8465 34.7566 35.8468 34.7381L35.8459 34.739Z" fill="#FFFEFE"/>
<path d="M28.2443 33.8228C28.1481 34.2213 28.0537 34.6089 27.9617 34.997C27.9432 35.0744 27.8915 35.0746 27.8278 35.0744C27.6042 35.0736 27.6046 35.0757 27.5237 35.2871C27.3827 35.6549 27.241 36.0227 27.0899 36.4158C26.9966 36.2402 26.8533 36.1144 26.8566 35.9094C26.8637 35.466 26.8618 35.0223 26.8711 34.5788C26.8732 34.4781 26.8559 34.4555 26.7507 34.4739C25.8204 34.6363 24.8826 34.7164 23.9383 34.6805C23.353 34.6583 22.7682 34.6156 22.1921 34.4974C22.1248 34.4836 22.0554 34.4808 21.9929 34.4737C21.9929 34.9099 21.9822 35.3439 21.9972 35.7771C22.0053 36.0114 21.9884 36.2258 21.81 36.4082C21.656 36.2014 21.5598 35.9601 21.4765 35.7145C21.4147 35.5322 21.3515 35.3485 21.3311 35.1554C21.3162 35.0138 21.2188 35.0259 21.1329 35.0523C21.0024 35.0923 20.9628 35.0529 20.9369 34.922C20.9055 34.7635 20.8776 34.6047 20.8667 34.4448C20.8589 34.3299 20.8229 34.2447 20.7334 34.1732C20.6616 34.1159 20.5994 34.0465 20.5326 33.9828C20.4932 33.9452 20.5019 33.8971 20.5089 33.8526C20.5166 33.8041 20.5603 33.8243 20.5877 33.8243C20.9667 33.8254 21.3458 33.8291 21.7248 33.8306C21.7955 33.8309 21.8536 33.8419 21.8551 33.9299C21.8561 33.9899 21.8973 33.9876 21.9409 33.9899C22.4859 34.0196 23.0312 34.0175 23.5766 34.0186C23.6348 34.0187 23.6692 34.001 23.6976 33.9501C23.7599 33.8382 23.8314 33.7312 23.893 33.6187C23.9475 33.5194 23.9983 33.4264 24.139 33.461C24.2028 33.4765 24.2146 33.4338 24.2144 33.3792C24.213 33.0282 24.2114 32.6771 24.2149 32.326C24.2157 32.2489 24.1662 32.2404 24.1148 32.218C23.5847 31.9884 23.0845 31.7107 22.678 31.2906C22.3422 30.9435 22.1357 30.5437 22.1658 30.0421C22.1804 29.7981 22.1678 29.5524 22.168 29.3075C22.1684 28.7864 22.5124 28.4419 23.0334 28.4416C23.8887 28.4412 24.7439 28.4411 25.599 28.4416C26.0598 28.442 26.5264 28.9135 26.5108 29.3742C26.498 29.7566 26.5343 30.1414 26.4638 30.5211C26.3613 31.074 26.0541 31.4963 25.6145 31.8299C25.3903 32 25.1476 32.1403 24.8788 32.2289C24.8189 32.2486 24.8035 32.2779 24.8039 32.3373C24.8065 32.6838 24.8074 33.0305 24.8035 33.3769C24.8027 33.4521 24.8277 33.4777 24.8978 33.4658C25.0093 33.4469 25.0685 33.4971 25.1191 33.5969C25.1914 33.7394 25.2574 33.92 25.3802 33.9916C25.4983 34.0605 25.6852 34.0127 25.8418 34.0136C26.1469 34.0156 26.4521 34.0111 26.757 34.0196C26.8613 34.0225 26.9319 34.0015 26.9715 33.8994C26.9879 33.8571 27.0177 33.822 27.0744 33.8222C27.4622 33.8234 27.85 33.8228 28.2443 33.8228Z" fill="#1D1919"/>
<path d="M24.2364 35.0191C24.6661 35.0191 25.0958 35.0213 25.5255 35.0173C25.6148 35.0165 25.6576 35.0291 25.6544 35.1344C25.6484 35.331 25.4995 35.522 25.2997 35.5695C25.2415 35.5833 25.2178 35.5396 25.1841 35.5109C24.9398 35.3025 24.9399 35.3025 24.734 35.5467C24.6718 35.6204 24.6093 35.6937 24.5473 35.7676C24.4036 35.9388 24.2196 35.9274 24.1053 35.7392C24.0317 35.6179 23.9597 35.4956 23.8865 35.3739C23.8547 35.321 23.8167 35.2889 23.7459 35.2844C23.5301 35.2704 23.5228 35.2634 23.4539 35.4675C23.4188 35.5719 23.3713 35.5802 23.2835 35.5422C23.1576 35.4875 23.0258 35.446 22.9097 35.3698C22.8663 35.3413 22.8366 35.3132 22.8343 35.251C22.8258 35.0139 22.8224 35.0142 23.0583 35.0143C23.4509 35.0144 23.8437 35.0143 24.2364 35.0143V35.0191Z" fill="#171413"/>
<path d="M25.6933 40.2969C25.7857 40.2856 25.846 40.2379 25.9321 40.2665C25.8577 40.3038 25.7931 40.3276 25.6933 40.2969Z" fill="#F6D9A7"/>
<path d="M26.1072 40.2361C26.0665 40.2562 26.0292 40.2664 25.9806 40.2361H26.1072Z" fill="#F6D9A7"/>
<path d="M35.8469 34.738C35.8466 34.7567 35.8463 34.7753 35.8461 34.7938C35.8277 34.7859 35.7942 34.7924 35.8025 34.7584C35.8049 34.7486 35.8314 34.7447 35.8469 34.738Z" fill="#F6D9A7"/>
<path d="M35.6518 34.9324C35.651 34.8945 35.6685 34.8751 35.7073 34.8769L35.7079 34.8773C35.6981 34.9045 35.6796 34.923 35.6523 34.9329L35.6518 34.9324Z" fill="#F6D9A7"/>
<path d="M35.6524 34.9329C35.6439 34.9404 35.6355 34.9479 35.6271 34.9555C35.6239 34.9507 35.6208 34.9458 35.6176 34.941C35.629 34.9381 35.6404 34.9352 35.6518 34.9323L35.6524 34.9329Z" fill="#F7DDB0"/>
<path d="M35.246 35.3292C35.2456 35.3327 35.2466 35.3379 35.2447 35.3393C35.2416 35.3418 35.2357 35.3437 35.2326 35.3422C35.2197 35.3363 35.2203 35.3295 35.2342 35.3255C35.2375 35.3246 35.242 35.3278 35.246 35.3292Z" fill="#F7DDB0"/>
<path d="M35.7329 34.8472C35.7367 34.8358 35.7406 34.8244 35.7444 34.813C35.7493 34.8167 35.7544 34.8202 35.7594 34.8239C35.7519 34.833 35.7444 34.8421 35.7369 34.8511L35.7329 34.8472Z" fill="#F6D9A7"/>
<path d="M35.7073 34.8768C35.716 34.8666 35.7248 34.8564 35.7335 34.8463C35.7334 34.8462 35.7376 34.8503 35.7377 34.8503C35.7277 34.8593 35.7177 34.8683 35.7077 34.8772L35.7073 34.8768Z" fill="#F6D9A7"/>
<path d="M35.5664 35.0135C35.5709 35.0076 35.5753 35.0015 35.5798 34.9955C35.5973 35.0111 35.5797 35.0128 35.5709 35.018L35.5664 35.0135Z" fill="#F7DDB0"/>
<path d="M35.5711 35.0176C35.5656 35.0214 35.56 35.0252 35.5545 35.029C35.5586 35.0237 35.5626 35.0185 35.5667 35.0131C35.5666 35.0131 35.5711 35.0176 35.5711 35.0176Z" fill="#F7DDB0"/>
<path d="M35.4998 35.0784L35.5031 35.0872L35.4948 35.0864L35.4998 35.0784Z" fill="#F7DDB0"/>
<path d="M35.425 35.1497C35.4308 35.1396 35.4356 35.1253 35.449 35.1424C35.4495 35.1431 35.4388 35.1526 35.4334 35.1579L35.425 35.1497Z" fill="#F7DDB0"/>
<path d="M35.4336 35.1576C35.4275 35.161 35.4215 35.1644 35.4154 35.1678C35.4188 35.1617 35.4221 35.1556 35.4253 35.1494C35.4252 35.1493 35.4336 35.1576 35.4336 35.1576Z" fill="#F7DDB0"/>
<path d="M35.3613 35.2022L35.3584 35.1942L35.3659 35.1951L35.3613 35.2022Z" fill="#F7DDB0"/>
<path d="M35.2776 35.2855L35.2747 35.2774L35.2823 35.2782L35.2776 35.2855Z" fill="#F7DDB0"/>
</svg>
