<svg width="48" height="48" viewBox="0 0 48 48" fill="none" xmlns="http://www.w3.org/2000/svg">
<circle cx="24" cy="24" r="24" fill="black"/>
<path d="M41.0389 24.9821C37.8378 30.8231 32.5212 35.2166 26.1816 37.2593C19.59 39.4047 15.4118 37.937 9.59937 35.2081C15.9953 35.7846 20.4235 35.7338 25.8844 31.465C28.9086 29.1083 31.3748 26.1125 33.1064 22.6919C35.855 23.0312 38.5325 23.8042 41.0389 24.9821Z" fill="#D81FFA"/>
<path d="M33.1244 22.6919C31.3913 26.1116 28.9239 29.1061 25.8988 31.4614C20.4378 35.7302 16.0096 35.781 9.61374 35.2048C15.8212 33.5594 19.9668 31.9939 23.634 26.1163C24.2813 25.0828 24.8552 24.0051 25.3516 22.8912C27.918 22.4364 30.5382 22.3693 33.1244 22.6919Z" fill="#E167FF"/>
<path d="M33.1244 22.6918C30.5392 22.3707 27.9204 22.4391 25.3553 22.8947C26.4195 20.5163 27.1194 17.9912 27.4317 15.4044C30.1248 14.7868 32.8988 14.5997 35.6505 14.85C35.2291 17.5812 34.3766 20.2281 33.1244 22.6918Z" fill="#0057FF"/>
<path d="M25.3553 22.8948C24.1563 23.1094 22.9734 23.4061 21.8149 23.7827C15.2233 25.9279 12.7085 29.5806 9.61743 35.2082C10.5958 28.8559 11.7119 24.569 17.1729 20.3002C20.1906 17.9334 23.6935 16.2617 27.4317 15.4045C27.1194 17.9914 26.4195 20.5164 25.3553 22.8948Z" fill="#189FFF"/>
<path d="M27.4317 15.4046C23.6936 16.2617 20.1907 17.9334 17.1729 20.3002C11.7119 24.569 10.5959 28.8559 9.61749 35.2081C8.36367 28.903 7.95058 24.4929 11.6178 18.6152C15.1356 12.9644 20.6801 8.87183 27.1166 7.17505C27.6545 9.88449 27.7609 12.6619 27.4317 15.4046Z" fill="#17EF97"/>
<path fill-rule="evenodd" clip-rule="evenodd" d="M48 24C48 10.7452 37.2549 0 24 0C10.7452 0 0 10.7452 0 24C0 37.2549 10.7452 48 24 48C37.2549 48 48 37.2549 48 24ZM3 24C3 12.402 12.402 3 24 3C35.598 3 45 12.402 45 24C45 35.5981 35.5981 45 24 45C12.402 45 3 35.598 3 24Z" fill="white"/>
</svg>
