<svg width="48" height="48" viewBox="0 0 48 48" fill="none" xmlns="http://www.w3.org/2000/svg">
<circle cx="24" cy="24" r="24" fill="black"/>
<path d="M29.1098 17.8438H34L31.5549 8H14.4451L16.8903 17.8438H21.7743L24.2195 27.6938H21.1662L22.3887 32.6125H25.4421L26.6646 37.5375H34L29.1098 17.8438Z" fill="url(#paint0_linear_101_1845)"/>
<path d="M31.5549 20.3062H29.7179L29.1098 17.8438H34L31.5549 20.3062Z" fill="url(#paint1_linear_101_1845)"/>
<path d="M29.1098 12.9251H18.1128L17.8026 11.6938H30.0282L29.1098 12.9251Z" fill="url(#paint2_linear_101_1845)"/>
<path d="M14.4451 20.3062L12 10.4625L14.4451 8L16.8903 17.8438L14.4451 20.3062Z" fill="url(#paint3_linear_101_1845)"/>
<path d="M25.442 32.6125H22.3887L19.9436 35.0751H22.9968L25.442 32.6125Z" fill="url(#paint4_linear_101_1845)"/>
<path d="M19.3354 20.3062H14.4451L16.8903 17.8438H21.7743L19.3354 20.3062Z" fill="url(#paint5_linear_101_1845)"/>
<path d="M24.2195 27.6938H21.1662L19.3354 20.3062L21.7743 17.8438L24.2195 27.6938Z" fill="url(#paint6_linear_101_1845)"/>
<path d="M22.3887 32.6126L21.1662 27.6938L18.721 30.1563L19.9436 35.0751L22.3887 32.6126Z" fill="url(#paint7_linear_101_1845)"/>
<path d="M26.6646 37.5376L25.4421 32.6125L22.9969 35.0751L24.2195 40.0001L26.6646 37.5376Z" fill="url(#paint8_linear_101_1845)"/>
<path d="M31.5549 37.5375L26.0564 15.3875L25.0759 16.3687L30.3323 37.5375L29.3517 38.525H30.5743L31.5549 37.5375Z" fill="url(#paint9_linear_101_1845)"/>
<path d="M30.9405 15.3876H29.7179L29.1098 12.9251L30.0282 11.6938L30.9405 15.3876Z" fill="url(#paint10_linear_101_1845)"/>
<path d="M31.5549 37.5376L30.5743 38.525H29.3518L30.3323 37.5376H26.6646L24.2195 40.0001H31.5549L34 37.5376H31.5549Z" fill="url(#paint11_linear_101_1845)"/>
<defs>
<linearGradient id="paint0_linear_101_1845" x1="14.4442" y1="37.5369" x2="33.9976" y2="37.5369" gradientUnits="userSpaceOnUse">
<stop offset="0.00188079" stop-color="#FCC33C"/>
<stop offset="1" stop-color="#FFEE50"/>
</linearGradient>
<linearGradient id="paint1_linear_101_1845" x1="33.9976" y1="17.8462" x2="29.1093" y2="17.8462" gradientUnits="userSpaceOnUse">
<stop stop-color="#FB9828"/>
<stop offset="1" stop-color="#F96C13"/>
</linearGradient>
<linearGradient id="paint2_linear_101_1845" x1="30.0273" y1="11.6923" x2="17.8049" y2="11.6923" gradientUnits="userSpaceOnUse">
<stop stop-color="#F84200"/>
<stop offset="1" stop-color="#F96C13"/>
</linearGradient>
<linearGradient id="paint3_linear_101_1845" x1="10.7075" y1="11.9696" x2="18.0002" y2="16.6212" gradientUnits="userSpaceOnUse">
<stop stop-color="#F96C13"/>
<stop offset="1" stop-color="#FB9828"/>
</linearGradient>
<linearGradient id="paint4_linear_101_1845" x1="19.9436" y1="35.0777" x2="25.443" y2="35.0777" gradientUnits="userSpaceOnUse">
<stop stop-color="#F84200"/>
<stop offset="1" stop-color="#F96C13"/>
</linearGradient>
<linearGradient id="paint5_linear_101_1845" x1="14.4442" y1="20.3088" x2="21.7767" y2="20.3088" gradientUnits="userSpaceOnUse">
<stop stop-color="#F84200"/>
<stop offset="1" stop-color="#F96C13"/>
</linearGradient>
<linearGradient id="paint6_linear_101_1845" x1="25.2218" y1="25.5955" x2="19.0706" y2="19.4869" gradientUnits="userSpaceOnUse">
<stop stop-color="#F96C13"/>
<stop offset="1" stop-color="#FB9828"/>
</linearGradient>
<linearGradient id="paint7_linear_101_1845" x1="23.035" y1="33.0565" x2="18.8762" y2="28.9088" gradientUnits="userSpaceOnUse">
<stop stop-color="#FB9828"/>
<stop offset="1" stop-color="#F96C13"/>
</linearGradient>
<linearGradient id="paint8_linear_101_1845" x1="27.3109" y1="37.9781" x2="23.1507" y2="33.8362" gradientUnits="userSpaceOnUse">
<stop stop-color="#F96C13"/>
<stop offset="1" stop-color="#FB9828"/>
</linearGradient>
<linearGradient id="paint9_linear_101_1845" x1="33.775" y1="28.4205" x2="22.0549" y2="24.7084" gradientUnits="userSpaceOnUse">
<stop stop-color="#F96C13"/>
<stop offset="1" stop-color="#F84200"/>
</linearGradient>
<linearGradient id="paint10_linear_101_1845" x1="31.3743" y1="14.9825" x2="29.0675" y2="12.6935" gradientUnits="userSpaceOnUse">
<stop stop-color="#F84200"/>
<stop offset="1" stop-color="#F96C13"/>
</linearGradient>
<linearGradient id="paint11_linear_101_1845" x1="25.2461" y1="39.6886" x2="32.5489" y2="39.6886" gradientUnits="userSpaceOnUse">
<stop stop-color="#F84200"/>
<stop offset="1" stop-color="#F96C13"/>
</linearGradient>
</defs>
</svg>
