<svg width="48" height="48" viewBox="0 0 48 48" fill="none" xmlns="http://www.w3.org/2000/svg">
<circle cx="24" cy="24" r="24" fill="url(#paint0_linear_101_1733)"/>
<path fill-rule="evenodd" clip-rule="evenodd" d="M7.90307 6.19849L7.54996 6.52448L9.44266 8.8377L15.5788 16.3812L16.0788 17.0145C16.3957 17.4524 16.2764 17.8462 15.7336 18.1548C15.4319 18.3263 14.8113 18.5003 14.5005 18.5003C14.1492 18.5003 13.7532 18.331 13.4649 18.0575C13.4584 18.0513 13.4511 18.044 13.4433 18.0356L13.3542 17.9296L13.227 17.7604L12.8484 17.218L12.1751 16.2078L7.84555 9.54387L7.82226 9.52081C7.81813 9.51832 7.81635 9.51953 7.81874 9.5278L7.82427 9.54258L7.87722 9.64934L11.0876 15.417L12.0477 17.1669L12.3806 17.8005L12.487 18.016L12.5727 18.2093L12.5932 18.269L12.5999 18.306C12.5999 18.5901 12.5224 18.7394 12.172 19.1302L12.0662 19.2535C11.5556 19.8765 11.3149 20.6089 11.1382 22.0295L11.107 22.2582C10.8707 23.839 10.2578 25.0215 8.68601 26.9819L8.39333 27.3479L7.95776 27.9029L7.73327 28.2045L7.6185 28.3702L7.52308 28.5196L7.43968 28.6629L7.32104 28.8889C7.01475 29.4991 6.93052 29.8409 6.89638 30.6113C6.86027 31.4261 6.93052 31.9523 7.17949 32.7311C7.36104 33.2994 7.54923 33.7068 7.94342 34.348L8.42245 35.1079L8.60676 35.4202L8.75752 35.6975C8.91319 35.9993 8.99697 36.2229 8.99697 36.3445L9.00047 36.4069C9.00917 36.4597 9.03847 36.4838 9.13376 36.4795L9.25272 36.4658C9.27678 36.4619 9.30308 36.4573 9.33185 36.4518L9.53571 36.4098L10.1535 36.2665C11.8559 35.8358 13.2337 35.1331 14.0303 34.2841C14.5562 33.7235 14.6797 33.414 14.6837 32.6457C14.684 32.5899 14.684 32.539 14.6837 32.4922L14.6759 32.2542C14.6614 32.0527 14.6234 31.9417 14.5328 31.749C14.3118 31.2786 13.9093 30.8873 13.0221 30.2809L12.8119 30.1337C11.7991 29.4055 11.3547 28.7917 11.2262 27.9668C11.1269 27.3299 11.2168 26.8585 11.6811 25.8306L12.0223 25.1007C12.5761 23.9039 12.7256 23.298 12.8293 21.9924L12.8465 21.7923C12.9177 21.0293 13.0212 20.7035 13.2622 20.4381C13.5344 20.1382 13.7795 20.0366 14.4531 19.9446L14.7196 19.9042C15.6672 19.7454 16.2987 19.4662 16.8257 18.9806C17.3244 18.5211 17.533 18.0783 17.5651 17.4118L17.5894 16.9065L17.3108 16.5815L17.1106 16.3533L7.90307 6.19849ZM8.47597 30.7294C8.40162 30.6773 8.36784 30.6177 8.36784 30.5413C8.36784 30.2289 8.92811 30.1159 9.28869 30.3557C9.67036 30.6095 9.79165 31.129 9.56341 31.5331C9.34497 31.9202 8.92765 32.047 8.63289 31.8162C8.44998 31.6731 8.43716 31.4623 8.59665 31.2226L8.64273 31.1481C8.74853 30.9605 8.71726 30.8588 8.53945 30.7672L8.47597 30.7294Z" fill="#FF007A"/>
<path d="M16.4316 9.49626C15.9813 9.42636 15.9623 9.41821 16.1742 9.38559C16.5803 9.32314 17.5391 9.4083 18.1998 9.56535C19.7423 9.93199 21.1459 10.8712 22.6441 12.5394L23.0421 12.9825L23.6115 12.891C26.0103 12.5055 28.4506 12.8119 30.4916 13.7547C31.0531 14.0142 31.9384 14.5305 32.049 14.6632C32.0843 14.7055 32.1489 14.9777 32.1927 15.2681C32.3444 16.2731 32.2685 17.0434 31.9611 17.6187C31.7938 17.9318 31.7845 18.031 31.8969 18.299C31.9868 18.5128 32.237 18.671 32.4848 18.6706C32.9921 18.6701 33.538 17.8501 33.7909 16.7092L33.8914 16.2561L34.0905 16.4815C35.1824 17.7186 36.0398 19.4055 36.1872 20.6064L36.2256 20.9194L36.0421 20.6348C35.7262 20.145 35.4089 19.8116 35.0025 19.5427C34.2699 19.058 33.4954 18.893 31.444 18.7849C29.5913 18.6873 28.5428 18.5291 27.5031 18.1901C25.7341 17.6132 24.8422 16.8451 22.7409 14.0882C21.8076 12.8637 21.2307 12.1861 20.6569 11.6405C19.353 10.4008 18.0718 9.75059 16.4316 9.49626Z" fill="#FF007A"/>
<path d="M32.4669 12.2303C32.5135 11.4097 32.6247 10.8686 32.8485 10.3742C32.9371 10.1786 33.02 10.0186 33.0328 10.0186C33.0457 10.0186 33.0071 10.1629 32.9472 10.3394C32.7846 10.8191 32.7579 11.4752 32.87 12.2385C33.0122 13.207 33.0931 13.3469 34.1168 14.3931C34.5969 14.8838 35.1554 15.5028 35.3579 15.7685L35.726 16.2517L35.3579 15.9063C34.9076 15.4841 33.8723 14.6606 33.6436 14.5429C33.4902 14.4639 33.4675 14.4653 33.3729 14.5594C33.2858 14.6462 33.2674 14.7765 33.2552 15.3928C33.2364 16.3532 33.1055 16.9698 32.7896 17.5862C32.6187 17.9195 32.5918 17.8485 32.7464 17.4722C32.8618 17.1911 32.8736 17.0677 32.8726 16.1378C32.8709 14.2696 32.6492 13.8204 31.3484 13.0512C31.0189 12.8563 30.476 12.5751 30.142 12.4265C29.808 12.2777 29.5426 12.1483 29.5523 12.1386C29.5891 12.1019 30.8576 12.4721 31.3681 12.6686C32.1275 12.9606 32.2528 12.9985 32.3451 12.9633C32.407 12.9397 32.4368 12.7596 32.4669 12.2303Z" fill="#FF007A"/>
<path d="M17.3062 15.4263C16.3921 14.1679 15.8266 12.2385 15.9491 10.7962L15.9869 10.3499L16.195 10.3878C16.5858 10.459 17.2594 10.7099 17.5749 10.9014C18.4405 11.4272 18.8153 12.1193 19.1966 13.8968C19.3082 14.4174 19.4548 15.0065 19.5223 15.206C19.6308 15.5271 20.0409 16.277 20.3744 16.764C20.6146 17.1148 20.4551 17.281 19.9241 17.233C19.1132 17.1599 18.0148 16.4018 17.3062 15.4263Z" fill="#FF007A"/>
<path d="M31.3582 24.792C27.0865 23.072 25.582 21.5791 25.582 19.0602C25.582 18.6896 25.5948 18.3862 25.6103 18.3862C25.6259 18.3862 25.7911 18.5086 25.9775 18.6582C26.8437 19.3529 27.8138 19.6496 30.4991 20.0414C32.0792 20.272 32.9685 20.4581 33.7887 20.7302C36.396 21.5949 38.0091 23.3495 38.3937 25.7396C38.5055 26.4341 38.4401 27.7365 38.2588 28.4228C38.1157 28.9649 37.679 29.9422 37.5632 29.9797C37.5312 29.9901 37.4996 29.867 37.4915 29.6996C37.4476 28.8022 36.994 27.9284 36.2324 27.2739C35.3664 26.5298 34.2029 25.9373 31.3582 24.792Z" fill="#FF007A"/>
<path d="M28.3594 25.5065C28.3058 25.188 28.2129 24.7812 28.153 24.6026L28.044 24.2778L28.2465 24.5051C28.5267 24.8196 28.748 25.222 28.9357 25.7579C29.0789 26.167 29.095 26.2886 29.0939 26.9532C29.0929 27.6059 29.0749 27.7427 28.9427 28.1108C28.7342 28.6914 28.4754 29.1031 28.0412 29.545C27.2608 30.3391 26.2576 30.7788 24.8099 30.9612C24.5583 30.9928 23.8249 31.0463 23.18 31.0797C21.555 31.1643 20.4855 31.3388 19.5245 31.6763C19.3864 31.7249 19.263 31.7544 19.2504 31.7418C19.2115 31.7031 19.8659 31.3131 20.4063 31.0528C21.1683 30.6857 21.9269 30.4853 23.6266 30.2023C24.4662 30.0625 25.3333 29.8929 25.5535 29.8253C27.6326 29.1878 28.7014 27.5428 28.3594 25.5065Z" fill="#FF007A"/>
<path d="M30.3175 28.9843C29.75 27.7642 29.6196 26.5861 29.9306 25.4876C29.9639 25.3703 30.0174 25.2742 30.0495 25.2742C30.0817 25.2742 30.2156 25.3465 30.3471 25.4351C30.6086 25.6111 31.1331 25.9076 32.5306 26.6695C34.2744 27.6202 35.2687 28.3564 35.9448 29.1976C36.537 29.9342 36.9034 30.7731 37.0796 31.7961C37.1796 32.3756 37.121 33.77 36.9723 34.3535C36.5035 36.1934 35.4139 37.6387 33.8596 38.4819C33.6319 38.6054 33.4275 38.7069 33.4053 38.7074C33.3832 38.7078 33.4662 38.4968 33.5897 38.2385C34.1126 37.1456 34.1721 36.0825 33.7768 34.8992C33.5348 34.1746 33.0414 33.2906 32.0449 31.7963C30.8865 30.0591 30.6024 29.5968 30.3175 28.9843Z" fill="#FF007A"/>
<path d="M14.2727 35.5671C15.8578 34.2285 17.8302 33.2777 19.6269 32.9859C20.4012 32.8601 21.691 32.9099 22.408 33.0936C23.5573 33.3876 24.5854 34.0464 25.1201 34.8312C25.6426 35.5984 25.8667 36.2668 26.1001 37.7541C26.1923 38.3408 26.2923 38.93 26.3226 39.0634C26.498 39.8341 26.8391 40.4503 27.2618 40.7598C27.9331 41.2511 29.0892 41.2817 30.2264 40.8381C30.4194 40.7628 30.5869 40.7107 30.5987 40.7225C30.64 40.7635 30.0673 41.1468 29.6633 41.3486C29.1197 41.6202 28.6874 41.7251 28.1131 41.7251C27.0715 41.7251 26.2068 41.1953 25.4853 40.1149C25.3433 39.9023 25.0242 39.2654 24.7761 38.6997C24.0142 36.9621 23.6381 36.4328 22.7535 35.8534C21.9838 35.3494 20.991 35.2591 20.2441 35.6253C19.2631 36.1064 18.9894 37.3599 19.692 38.1545C19.9713 38.4702 20.492 38.7426 20.9179 38.7955C21.7145 38.8947 22.3992 38.2886 22.3992 37.4843C22.3992 36.9621 22.1985 36.6639 21.6931 36.4359C21.0029 36.1245 20.2611 36.4885 20.2646 37.137C20.2661 37.4134 20.3866 37.587 20.6636 37.7124C20.8414 37.7929 20.8456 37.7992 20.7006 37.7691C20.0674 37.6378 19.9191 36.8744 20.4282 36.3676C21.0395 35.7592 22.3036 36.0276 22.7377 36.858C22.92 37.207 22.9412 37.9017 22.7822 38.3211C22.4264 39.2601 21.3888 39.7539 20.3363 39.4852C19.6196 39.3022 19.3279 39.1041 18.4639 38.2143C16.9626 36.6678 16.3798 36.3681 14.2154 36.0302L13.8007 35.9655L14.2727 35.5671Z" fill="#FF007A"/>
<path fill-rule="evenodd" clip-rule="evenodd" d="M18.2826 20.2096C17.767 20.3679 17.2658 20.9144 17.1106 21.4874C17.0159 21.837 17.0696 22.4502 17.2114 22.6395C17.4404 22.9454 17.6619 23.0261 18.2617 23.0217C19.4359 23.0136 20.4567 22.5099 20.5753 21.8805C20.6726 21.3643 20.2243 20.6491 19.6068 20.3352C19.2882 20.1732 18.6105 20.1089 18.2826 20.2096ZM19.6553 21.2829C19.8363 21.0257 19.7571 20.7476 19.4491 20.5595C18.8626 20.2014 17.9758 20.4977 17.9758 21.0518C17.9758 21.3275 18.4383 21.6285 18.8622 21.6285C19.1444 21.6285 19.5305 21.4602 19.6553 21.2829Z" fill="#FF007A"/>
<defs>
<linearGradient id="paint0_linear_101_1733" x1="24" y1="72" x2="72" y2="24" gradientUnits="userSpaceOnUse">
<stop stop-color="#FEF4F9"/>
<stop offset="1" stop-color="#FFD9E8"/>
</linearGradient>
</defs>
</svg>
